<svg width="331" height="244" viewBox="0 0 331 244" fill="none" xmlns="http://www.w3.org/2000/svg">
<g clip-path="url(#clip0)">
<path d="M9.80385 144.938C9.80385 144.938 9.52208 144.292 9.06628 143.09" stroke="#69F0AE" stroke-width="9" stroke-miterlimit="10"/>
<path d="M7.73201 139.344C-2.34111 109.101 -33.7455 -30.2846 281.069 56.7301" stroke="#69F0AE" stroke-width="9" stroke-miterlimit="10" stroke-dasharray="12.04 12.04"/>
<path d="M283.427 57.375L285.768 58.0212" stroke="#69F0AE" stroke-width="9" stroke-miterlimit="10"/>
<path d="M247.208 164.872C247.21 158.336 244.085 152.036 238.444 147.203C232.803 142.37 225.052 139.352 216.708 138.74C208.364 138.128 200.028 139.967 193.33 143.895C186.633 147.823 182.056 153.559 180.496 159.98L77.0753 157.792L78.2107 171.647C78.2107 171.647 63.4635 198.181 140.97 205.251V232.07H230.571V187.48C235.631 185.169 239.829 181.868 242.747 177.902C245.665 173.936 247.203 169.444 247.208 164.872Z" fill="url(#paint0_linear)"/>
<path d="M81.7617 172.231C81.7617 172.231 67.6403 197.641 141.865 204.42V230.114H227.675V162.066L80.6595 158.961L81.7617 172.231Z" fill="#F6B9AD"/>
<path d="M124.648 66.1942C122.411 68.9474 118.867 70.8982 114.791 71.6205C110.715 72.3428 106.438 71.7778 102.894 70.049L56.8214 46.3743C53.2907 44.6296 50.7889 41.8661 49.8627 38.6877C48.9365 35.5092 49.661 32.1741 51.878 29.4108C54.1154 26.6612 57.6561 24.7129 61.7282 23.9908C65.8002 23.2687 70.0732 23.8313 73.6154 25.5561L119.688 49.2307C123.222 50.9734 125.727 53.7359 126.656 56.9145C127.586 60.0931 126.864 63.4294 124.648 66.1942Z" fill="url(#paint1_linear)"/>
<path d="M122.096 64.896C120.016 67.4552 116.722 69.2685 112.933 69.9399C109.144 70.6114 105.169 70.0863 101.875 68.4794L59.034 46.472C55.7522 44.8503 53.4268 42.2816 52.5658 39.3271C51.7047 36.3727 52.3781 33.2726 54.4388 30.7041C56.5186 28.1449 59.8126 26.3316 63.6014 25.6602C67.3902 24.9887 71.3657 25.5138 74.6596 27.1207L117.492 49.1313C120.774 50.752 123.101 53.3196 123.963 56.2734C124.826 59.2271 124.154 62.327 122.096 64.896Z" fill="#F6B9AD"/>
<path d="M211.382 190.867C229.18 190.867 243.607 179.616 243.607 165.738C243.607 151.86 229.18 140.609 211.382 140.609C193.585 140.609 179.157 151.86 179.157 165.738C179.157 179.616 193.585 190.867 211.382 190.867Z" fill="#F6B9AD"/>
<path d="M205.581 0H82.1348C79.3314 0 77.0588 1.77213 77.0588 3.95815V184.082C77.0588 186.268 79.3314 188.04 82.1348 188.04H205.581C208.385 188.04 210.657 186.268 210.657 184.082V3.95815C210.657 1.77213 208.385 0 205.581 0Z" fill="url(#paint2_linear)"/>
<path d="M203.199 2.54297H84.5172C81.3958 2.54297 78.8654 4.51618 78.8654 6.95025V181.096C78.8654 183.53 81.3958 185.503 84.5172 185.503H203.199C206.32 185.503 208.85 183.53 208.85 181.096V6.95025C208.85 4.51618 206.32 2.54297 203.199 2.54297Z" fill="white"/>
<path d="M176.514 7.12891C176.138 9.06921 174.884 10.8405 172.978 12.1224C171.073 13.4043 168.642 14.1121 166.126 14.1179H121.234C118.718 14.1114 116.288 13.4032 114.384 12.1213C112.479 10.8395 111.226 9.06866 110.85 7.12891H87.0656C86.4172 7.12848 85.775 7.22771 85.1758 7.42091C84.5766 7.61412 84.0321 7.89752 83.5734 8.25491C83.1147 8.61229 82.7508 9.03667 82.5025 9.50378C82.2542 9.97088 82.1265 10.4716 82.1265 10.9772V177.058C82.1259 177.564 82.2532 178.064 82.5009 178.532C82.7487 178.999 83.1121 179.424 83.5704 179.781C84.0287 180.139 84.573 180.423 85.172 180.616C85.771 180.81 86.4131 180.91 87.0615 180.91H200.654C201.303 180.91 201.945 180.811 202.544 180.618C203.143 180.424 203.688 180.141 204.147 179.784C204.605 179.426 204.969 179.002 205.218 178.535C205.466 178.068 205.594 177.567 205.594 177.061V10.9804C205.594 10.4748 205.467 9.97403 205.219 9.50676C204.971 9.03949 204.608 8.61488 204.15 8.25719C203.691 7.8995 203.147 7.61575 202.548 7.42215C201.949 7.22855 201.307 7.12891 200.659 7.12891H176.514Z" fill="#EB6565"/>
<path d="M157.698 9.32031H130.387C129.929 9.32031 129.558 9.60964 129.558 9.96654V10.0861C129.558 10.443 129.929 10.7323 130.387 10.7323H157.698C158.155 10.7323 158.526 10.443 158.526 10.0861V9.96654C158.526 9.60964 158.155 9.32031 157.698 9.32031Z" fill="#DBDBDB"/>
<path d="M164.679 10.7322C165.279 10.7322 165.765 10.3532 165.765 9.88562C165.765 9.41808 165.279 9.03906 164.679 9.03906C164.08 9.03906 163.594 9.41808 163.594 9.88562C163.594 10.3532 164.08 10.7322 164.679 10.7322Z" fill="#DBDBDB"/>
<path d="M232.216 170.169C222.864 171.856 216.446 167.1 214.283 159.81L192.794 97.5913C191.767 94.076 192.565 90.3867 195.015 87.3288C197.464 84.271 201.365 82.0931 205.867 81.2708C210.375 80.4698 215.106 81.0924 219.028 83.0024C222.949 84.9124 225.742 87.9547 226.796 91.465L244.332 155.28C246.495 162.583 241.564 168.483 232.216 170.169Z" fill="url(#paint3_linear)"/>
<path d="M224.386 92.989C222.562 86.8358 214.687 83.0001 206.796 84.4218C198.906 85.8436 193.987 91.9843 195.81 98.1376L215.57 164.826C217.393 170.979 225.268 174.815 233.159 173.393C241.05 171.971 245.969 165.831 244.145 159.677L224.386 92.989Z" fill="#F6B9AD"/>
<path d="M243.475 221.707H120.824V244.002H243.475V221.707Z" fill="url(#paint4_linear)"/>
<path d="M240.16 224.289H124.138V241.737H240.16V224.289Z" fill="#FF8976"/>
<path d="M171.222 58.93L161.717 53.3498L165.861 49.1493L158.945 44.9165L154.623 49.1881L144.848 43.4528C144.476 43.235 144.023 43.1172 143.558 43.1172C143.092 43.1172 142.639 43.235 142.267 43.4528L116.357 58.4938C115.375 59.14 114.455 59.88 114.447 61.5731H114.418L114.351 84.7469V85.7776C114.35 86.1094 114.433 86.4382 114.595 86.745C114.757 87.0519 114.994 87.331 115.295 87.5662C115.595 87.8014 115.951 87.9883 116.344 88.116C116.737 88.2438 117.158 88.31 117.583 88.3108H118.86L143.427 88.3528L169.275 88.3981C169.7 88.3989 170.122 88.3344 170.516 88.2082C170.909 88.082 171.267 87.8966 171.569 87.6626C171.87 87.4285 172.11 87.1505 172.274 86.8442C172.438 86.538 172.522 86.2096 172.524 85.8778L172.594 61.7153H172.648C172.648 60.0189 172.204 59.5762 171.222 58.93Z" fill="url(#paint5_linear)"/>
<path d="M170.095 62.0667C170.095 60.5222 169.681 60.128 168.794 59.5303L144.732 45.4198C144.392 45.2209 143.978 45.1133 143.553 45.1133C143.128 45.1133 142.715 45.2209 142.374 45.4198L118.735 59.1457C118.167 59.4625 117.709 59.8857 117.405 60.3763C117.101 60.867 116.96 61.4094 116.995 61.9536H116.97L116.908 83.0982V84.0385C116.907 84.6498 117.217 85.2365 117.77 85.6696C118.323 86.1028 119.074 86.3471 119.858 86.3488H121.022L143.439 86.3876L167.021 86.4296C167.805 86.4304 168.557 86.1886 169.112 85.7573C169.668 85.3259 169.981 84.7403 169.983 84.129L170.046 62.0829L170.095 62.0667Z" fill="url(#paint6_linear)"/>
<path d="M117.404 62.0391L169.543 62.1313L169.478 84.5005C169.478 84.6778 169.432 84.8534 169.345 85.0171C169.257 85.1808 169.129 85.3295 168.968 85.4546C168.807 85.5797 168.616 85.6789 168.405 85.7464C168.195 85.8139 167.97 85.8484 167.742 85.848L119.262 85.7623C118.756 85.7614 118.27 85.6036 117.913 85.3236C117.555 85.0436 117.355 84.6644 117.356 84.2693L117.421 62.0391L117.404 62.0391Z" fill="#EB6565"/>
<path opacity="0.2" d="M117.404 62.0391L169.543 62.1313L169.478 84.5005C169.478 84.6778 169.432 84.8534 169.345 85.0171C169.257 85.1808 169.129 85.3295 168.968 85.4546C168.807 85.5797 168.616 85.6789 168.405 85.7464C168.195 85.8139 167.97 85.8484 167.742 85.848L119.262 85.7623C118.756 85.7614 118.27 85.6036 117.913 85.3236C117.555 85.0436 117.355 84.6644 117.356 84.2693L117.421 62.0391L117.404 62.0391Z" fill="white"/>
<path d="M117.409 62.0312L117.351 82.5781C117.35 82.9927 117.454 83.4034 117.656 83.7867C117.859 84.17 118.156 84.5185 118.531 84.8122C118.906 85.106 119.352 85.3392 119.843 85.4986C120.333 85.6581 120.86 85.7406 121.391 85.7414L165.434 85.819" fill="#F5F5F5"/>
<path d="M169.552 62.1211L169.494 82.6809C169.493 83.0954 169.388 83.5058 169.183 83.8885C168.979 84.2711 168.68 84.6187 168.303 84.9112C167.926 85.2038 167.479 85.4356 166.988 85.5934C166.496 85.7513 165.969 85.8321 165.438 85.8313L121.395 85.7537" fill="white"/>
<path d="M142.37 45.9564L119.166 59.301C118.609 59.6066 118.16 60.0172 117.86 60.4946C117.561 60.972 117.422 61.5006 117.455 62.0313L169.619 62.1606C169.619 60.6581 169.204 60.2639 168.342 59.6952L144.703 45.9628C144.368 45.765 143.959 45.6574 143.538 45.6563C143.117 45.6551 142.708 45.7604 142.37 45.9564Z" fill="#EB6565"/>
<path opacity="0.2" d="M142.37 45.9564L119.166 59.301C118.609 59.6066 118.16 60.0172 117.86 60.4946C117.561 60.972 117.422 61.5006 117.455 62.0313L169.619 62.1606C169.619 60.6581 169.204 60.2639 168.342 59.6952L144.703 45.9628C144.368 45.765 143.959 45.6574 143.538 45.6563C143.117 45.6551 142.708 45.7604 142.37 45.9564Z" fill="black"/>
<path d="M163.905 50.6002L157.594 46.7422L142.341 61.8058L134.145 56.8492L129.011 61.9383L140.941 69.0436L143.899 70.895L163.905 50.6002Z" fill="url(#paint7_linear)"/>
<path d="M163.441 50.5045L157.722 47.0859L142.569 62.4953L134.154 57.4644L129.766 61.9234L141.04 68.6571L143.932 70.347L163.441 50.5045Z" fill="white"/>
<path d="M114.753 100.102C112.532 102.835 109.014 104.771 104.969 105.488C100.923 106.204 96.6781 105.644 93.1608 103.928L54.0037 84.0467C50.4996 82.3146 48.0169 79.5717 47.0976 76.4169C46.1784 73.2622 46.8974 69.9519 49.0977 67.2092C51.3189 64.4768 54.8364 62.5407 58.8821 61.8239C62.9277 61.1071 67.1727 61.6678 70.69 63.3835L109.847 83.2648C113.351 84.9968 115.834 87.7398 116.753 90.8945C117.672 94.0493 116.953 97.3595 114.753 100.102Z" fill="url(#paint8_linear)"/>
<path d="M112.673 99.0567C110.593 101.616 107.299 103.429 103.511 104.101C99.7218 104.772 95.7462 104.247 92.4523 102.64L55.7772 84.0189C52.4954 82.3971 50.1699 79.8284 49.3089 76.874C48.4479 73.9196 49.1213 70.8195 51.1819 68.2509C53.2617 65.6918 56.5558 63.8784 60.3446 63.207C64.1333 62.5356 68.1089 63.0607 71.4028 64.6676L108.078 83.2887C111.36 84.9105 113.685 87.4791 114.546 90.4336C115.407 93.388 114.734 96.4881 112.673 99.0567Z" fill="#F6B9AD"/>
<path d="M106.764 132.94C104.554 135.661 101.053 137.588 97.0256 138.302C92.9984 139.016 88.7726 138.458 85.2714 136.75L54.3684 121.159C50.8797 119.436 48.4076 116.706 47.4922 113.565C46.5768 110.425 47.2926 107.13 49.4831 104.4C51.6934 101.679 55.1946 99.7514 59.2218 99.0376C63.249 98.3238 67.4748 98.8819 70.976 100.59L101.875 116.184C105.363 117.907 107.835 120.636 108.751 123.776C109.668 126.915 108.953 130.21 106.764 132.94Z" fill="url(#paint9_linear)"/>
<path d="M99.0074 165.941C96.7775 168.687 93.2446 170.632 89.1808 171.353C85.1171 172.073 80.8528 171.51 77.3198 169.786L58.1804 158.897C54.6597 157.158 52.1648 154.404 51.2409 151.235C50.317 148.066 51.0391 144.741 53.2495 141.986C55.4822 139.242 59.0162 137.299 63.0798 136.581C67.1434 135.863 71.4062 136.429 74.9372 138.153L94.0765 149.039C97.5938 150.778 100.086 153.531 101.01 156.698C101.934 159.864 101.214 163.187 99.0074 165.941Z" fill="url(#paint10_linear)"/>
<path d="M97.4619 165.131C95.3821 167.69 92.088 169.503 88.2993 170.175C84.5105 170.846 80.535 170.321 77.2411 168.714L59.3945 158.562C56.1127 156.94 53.7872 154.371 52.9262 151.417C52.0652 148.463 52.7386 145.362 54.7993 142.794C56.879 140.235 60.1731 138.421 63.9619 137.75C67.7506 137.079 71.7262 137.604 75.0201 139.211L92.8666 149.363C96.1485 150.985 98.4739 153.553 99.3349 156.508C100.196 159.462 99.5226 162.562 97.4619 165.131Z" fill="#F6B9AD"/>
<path d="M186.123 104.551H101.593V124.261H186.123V104.551Z" fill="url(#paint11_linear)"/>
<path d="M183.222 106.488H104.494V120.705H183.222V106.488Z" fill="#69F0AE"/>
<path d="M329.512 69.316L331 69.4969L330.768 69.3257H330.892L330.697 69.274L303.727 49.3281L297.18 57.3834L291.735 64.731L294.259 65.038L293.14 69.0187L329.512 69.316Z" fill="url(#paint12_linear)"/>
<path d="M298.311 57.8014L293.339 64.5254L329.803 69.1557L306.317 56.4023L298.311 57.8014Z" fill="#EB6565"/>
<path opacity="0.2" d="M298.311 57.8014L293.339 64.5254L329.803 69.1557L306.317 56.4023L298.311 57.8014Z" fill="black"/>
<path d="M304.299 50.4336L329.802 69.1549L298.311 57.8006L304.299 50.4336Z" fill="#EB6565"/>
<path d="M294.681 68.4788L329.703 68.999L297.01 59.9453L294.681 68.4788Z" fill="#EB6565"/>
<path d="M105.065 132.097C102.986 134.656 99.6916 136.47 95.9029 137.141C92.1141 137.812 88.1385 137.287 84.8446 135.68L55.7731 121.011C52.4912 119.389 50.1658 116.821 49.3048 113.866C48.4438 110.912 49.1171 107.812 51.1778 105.243C53.2543 102.681 56.5468 100.864 60.3358 100.19C64.1249 99.5155 68.1022 100.038 71.3986 101.643L100.47 116.313C103.758 117.935 106.087 120.507 106.948 123.465C107.81 126.423 107.133 129.527 105.065 132.097Z" fill="#F6B9AD"/>
</g>
<defs>
<linearGradient id="paint0_linear" x1="162.148" y1="232.083" x2="162.148" y2="138.628" gradientUnits="userSpaceOnUse">
<stop stop-color="#808080" stop-opacity="0.25"/>
<stop offset="0.54" stop-color="#808080" stop-opacity="0.12"/>
<stop offset="1" stop-color="#808080" stop-opacity="0.1"/>
</linearGradient>
<linearGradient id="paint1_linear" x1="31962.4" y1="14257.5" x2="31962.4" y2="7052.78" gradientUnits="userSpaceOnUse">
<stop stop-color="#808080" stop-opacity="0.25"/>
<stop offset="0.54" stop-color="#808080" stop-opacity="0.12"/>
<stop offset="1" stop-color="#808080" stop-opacity="0.1"/>
</linearGradient>
<linearGradient id="paint2_linear" x1="72875.4" y1="123028" x2="72875.4" y2="13596.3" gradientUnits="userSpaceOnUse">
<stop stop-color="#808080" stop-opacity="0.25"/>
<stop offset="0.54" stop-color="#808080" stop-opacity="0.12"/>
<stop offset="1" stop-color="#808080" stop-opacity="0.1"/>
</linearGradient>
<linearGradient id="paint3_linear" x1="38286.7" y1="53840.7" x2="38286.7" y2="29002.8" gradientUnits="userSpaceOnUse">
<stop stop-color="#808080" stop-opacity="0.25"/>
<stop offset="0.54" stop-color="#808080" stop-opacity="0.12"/>
<stop offset="1" stop-color="#808080" stop-opacity="0.1"/>
</linearGradient>
<linearGradient id="paint4_linear" x1="78282.6" y1="18648.9" x2="78282.6" y2="17110.5" gradientUnits="userSpaceOnUse">
<stop stop-color="#808080" stop-opacity="0.25"/>
<stop offset="0.54" stop-color="#808080" stop-opacity="0.12"/>
<stop offset="1" stop-color="#808080" stop-opacity="0.1"/>
</linearGradient>
<linearGradient id="paint5_linear" x1="143.497" y1="88.3948" x2="143.497" y2="43.1136" gradientUnits="userSpaceOnUse">
<stop stop-opacity="0.12"/>
<stop offset="0.55" stop-opacity="0.09"/>
<stop offset="1" stop-opacity="0.02"/>
</linearGradient>
<linearGradient id="paint6_linear" x1="29085.4" y1="14086.9" x2="29085.4" y2="8804.16" gradientUnits="userSpaceOnUse">
<stop stop-color="#808080" stop-opacity="0.25"/>
<stop offset="0.54" stop-color="#808080" stop-opacity="0.12"/>
<stop offset="1" stop-color="#808080" stop-opacity="0.1"/>
</linearGradient>
<linearGradient id="paint7_linear" x1="19264.6" y1="7108.58" x2="19267.8" y2="5301.22" gradientUnits="userSpaceOnUse">
<stop stop-opacity="0.12"/>
<stop offset="0.55" stop-opacity="0.09"/>
<stop offset="1" stop-opacity="0.02"/>
</linearGradient>
<linearGradient id="paint8_linear" x1="27943" y1="17764.3" x2="27943" y2="11697.6" gradientUnits="userSpaceOnUse">
<stop stop-color="#808080" stop-opacity="0.25"/>
<stop offset="0.54" stop-color="#808080" stop-opacity="0.12"/>
<stop offset="1" stop-color="#808080" stop-opacity="0.1"/>
</linearGradient>
<linearGradient id="paint9_linear" x1="24047.6" y1="20090.1" x2="24047.6" y2="15170" gradientUnits="userSpaceOnUse">
<stop stop-color="#808080" stop-opacity="0.25"/>
<stop offset="0.54" stop-color="#808080" stop-opacity="0.12"/>
<stop offset="1" stop-color="#808080" stop-opacity="0.1"/>
</linearGradient>
<linearGradient id="paint10_linear" x1="19366.3" y1="21495.7" x2="19366.3" y2="17620.4" gradientUnits="userSpaceOnUse">
<stop stop-color="#808080" stop-opacity="0.25"/>
<stop offset="0.54" stop-color="#808080" stop-opacity="0.12"/>
<stop offset="1" stop-color="#808080" stop-opacity="0.1"/>
</linearGradient>
<linearGradient id="paint11_linear" x1="29448.6" y1="7684.43" x2="29448.6" y2="6482.12" gradientUnits="userSpaceOnUse">
<stop stop-opacity="0.12"/>
<stop offset="0.55" stop-opacity="0.09"/>
<stop offset="1" stop-opacity="0.02"/>
</linearGradient>
<linearGradient id="paint12_linear" x1="27430.6" y1="21387.1" x2="28048.4" y2="20136.7" gradientUnits="userSpaceOnUse">
<stop stop-color="#808080" stop-opacity="0.25"/>
<stop offset="0.54" stop-color="#808080" stop-opacity="0.12"/>
<stop offset="1" stop-color="#808080" stop-opacity="0.1"/>
</linearGradient>
<clipPath id="clip0">
<rect width="331" height="244" fill="white"/>
</clipPath>
</defs>
</svg>
