<svg width="778" height="470" viewBox="0 0 778 470" fill="none" xmlns="http://www.w3.org/2000/svg">
    <g clip-path="url(#clip0)">
    <path opacity="0.1" d="M769.793 438.356C766.785 445.766 763.086 452.876 758.745 459.592C756.706 462.795 754.472 465.868 752.053 468.795L751.979 468.882H3.77002L3.90467 468.788C4.57791 468.262 8.52985 465.062 14.6766 459.585C19.0863 455.65 24.6204 450.543 30.8344 444.399C81.6575 394.375 179.285 275.967 97.9769 167.496C22.3919 66.6593 103.774 48.3541 157.458 46.2251C178.086 45.4238 198.663 48.7898 217.962 56.1222C242.758 65.5544 288.087 80.0194 347.144 86.6421C349.083 86.8622 351.04 87.0733 353.015 87.2754C384.282 90.4588 415.759 91.0289 447.121 88.98C448.043 88.9328 448.972 88.8654 449.908 88.7981C480.932 86.6123 511.721 81.8437 541.954 74.542C543.913 74.0636 545.845 73.6122 547.771 73.1945C648.508 49.87 741.375 129.363 718.162 219.205C709.571 252.427 711.753 287.851 740.379 316.498C787.203 363.282 781.501 409.338 769.793 438.356Z" fill="#EB6565"/>
    <path d="M610.651 186.637C613.201 182.074 612.445 176.796 608.962 174.847C605.48 172.899 600.59 175.019 598.041 179.582C595.492 184.145 596.248 189.423 599.73 191.372C603.212 193.32 608.102 191.2 610.651 186.637Z" fill="#3F3D56"/>
    <path d="M616.291 176.54C618.84 171.977 618.084 166.698 614.601 164.75C611.119 162.801 606.229 164.921 603.68 169.484C601.131 174.047 601.887 179.326 605.369 181.274C608.851 183.222 613.741 181.103 616.291 176.54Z" fill="#3F3D56"/>
    <path d="M621.935 166.446C624.485 161.883 623.728 156.604 620.246 154.656C616.764 152.707 611.874 154.827 609.325 159.39C606.775 163.953 607.531 169.232 611.014 171.18C614.496 173.129 619.386 171.009 621.935 166.446Z" fill="#3F3D56"/>
    <path d="M627.574 156.34C630.124 151.777 629.367 146.499 625.885 144.55C622.403 142.602 617.513 144.722 614.964 149.285C612.414 153.848 613.17 159.126 616.653 161.075C620.135 163.023 625.025 160.904 627.574 156.34Z" fill="#3F3D56"/>
    <path d="M633.21 146.247C635.759 141.684 635.003 136.405 631.521 134.457C628.038 132.508 623.149 134.628 620.599 139.191C618.05 143.754 618.806 149.033 622.288 150.981C625.771 152.929 630.66 150.81 633.21 146.247Z" fill="#3F3D56"/>
    <path d="M638.855 136.145C641.405 131.582 640.649 126.303 637.166 124.355C633.684 122.407 628.794 124.526 626.245 129.089C623.695 133.652 624.452 138.931 627.934 140.879C631.416 142.828 636.306 140.708 638.855 136.145Z" fill="#3F3D56"/>
    <path d="M644.5 126.051C647.049 121.488 646.293 116.21 642.811 114.261C639.328 112.313 634.439 114.433 631.889 118.996C629.34 123.559 630.096 128.837 633.578 130.786C637.061 132.734 641.95 130.614 644.5 126.051Z" fill="#3F3D56"/>
    <path d="M712.629 68.8511C714.104 68.2348 715.534 67.519 716.911 66.7086L701.864 54.7095L719.699 64.8693C723.508 62.0875 726.71 58.5574 729.11 54.4949C731.51 50.4323 733.056 45.9227 733.655 41.2417L702.639 40.2715L733.924 36.3706C733.888 31.5946 732.864 26.8777 730.919 22.5164C728.973 18.1551 726.147 14.2436 722.618 11.0278C719.089 7.81187 714.934 5.36109 710.413 3.8294C705.893 2.2977 701.104 1.7182 696.349 2.12729C691.594 2.53639 686.975 3.92524 682.782 6.20659C678.589 8.48794 674.912 11.6125 671.984 15.3839C669.055 19.1553 666.938 23.492 665.764 28.1217C664.591 32.7513 664.387 37.5737 665.166 42.2859C662.869 43.2438 660.682 44.4454 658.642 45.8702L673.918 69.0869L655.289 48.5516C651.016 52.4135 647.772 57.2812 645.853 62.7138C643.933 68.1465 643.398 73.9725 644.295 79.6644C638.301 82.1637 633.131 86.3003 629.375 91.6014C625.619 96.9025 623.43 103.154 623.057 109.642C622.684 116.129 624.143 122.591 627.266 128.288C630.39 133.985 635.052 138.688 640.72 141.858C646.388 145.029 652.834 146.539 659.319 146.217C665.805 145.896 672.069 143.754 677.396 140.037C682.722 136.321 686.897 131.18 689.441 125.201C691.986 119.223 692.799 112.648 691.786 106.23C698.95 103.244 704.902 97.9351 708.687 91.156C712.472 84.3768 713.87 76.5211 712.656 68.8511H712.629Z" fill="#EB6565"/>
    <path opacity="0.1" d="M641.241 53.1648C637.457 59.9453 636.067 67.8038 637.295 75.4719C631.301 77.9712 626.131 82.1078 622.375 87.4089C618.619 92.71 616.43 98.9616 616.057 105.449C615.684 111.937 617.143 118.398 620.266 124.095C623.39 129.792 628.052 134.495 633.72 137.666C639.388 140.836 645.834 142.347 652.319 142.025C658.805 141.703 665.069 139.561 670.396 135.845C675.722 132.128 679.897 126.987 682.441 121.009C684.986 115.03 685.799 108.456 684.786 102.037C691.673 99.1602 643.139 49.7961 641.241 53.1648Z" fill="#EB6565"/>
    <path d="M680.912 425.641H689.064C693.528 425.641 697.809 427.415 700.966 430.574C704.122 433.733 705.896 438.017 705.896 442.484V467.486H664.08V442.484C664.08 438.017 665.854 433.733 669.01 430.574C672.167 427.415 676.448 425.641 680.912 425.641Z" fill="#3F3D56"/>
    <path opacity="0.1" d="M680.912 425.641H689.064C693.528 425.641 697.809 427.415 700.966 430.574C704.122 433.733 705.896 438.017 705.896 442.484V467.486H664.08V442.484C664.08 438.017 665.854 433.733 669.01 430.574C672.167 427.415 676.448 425.641 680.912 425.641Z" fill="black"/>
    <path d="M683.322 434.853C685.17 434.853 686.668 433.354 686.668 431.505C686.668 429.655 685.17 428.156 683.322 428.156C681.474 428.156 679.976 429.655 679.976 431.505C679.976 433.354 681.474 434.853 683.322 434.853Z" fill="#3F3D56"/>
    <path d="M683.322 430.67C685.17 430.67 686.668 429.17 686.668 427.321C686.668 425.472 685.17 423.973 683.322 423.973C681.474 423.973 679.976 425.472 679.976 427.321C679.976 429.17 681.474 430.67 683.322 430.67Z" fill="#3F3D56"/>
    <path d="M683.322 426.478C685.17 426.478 686.668 424.979 686.668 423.13C686.668 421.28 685.17 419.781 683.322 419.781C681.474 419.781 679.976 421.28 679.976 423.13C679.976 424.979 681.474 426.478 683.322 426.478Z" fill="#3F3D56"/>
    <path d="M683.322 422.294C685.17 422.294 686.668 420.795 686.668 418.946C686.668 417.097 685.17 415.598 683.322 415.598C681.474 415.598 679.976 417.097 679.976 418.946C679.976 420.795 681.474 422.294 683.322 422.294Z" fill="#3F3D56"/>
    <path d="M683.322 418.111C685.17 418.111 686.668 416.612 686.668 414.762C686.668 412.913 685.17 411.414 683.322 411.414C681.474 411.414 679.976 412.913 679.976 414.762C679.976 416.612 681.474 418.111 683.322 418.111Z" fill="#3F3D56"/>
    <path d="M683.322 413.923C685.17 413.923 686.668 412.424 686.668 410.575C686.668 408.726 685.17 407.227 683.322 407.227C681.474 407.227 679.976 408.726 679.976 410.575C679.976 412.424 681.474 413.923 683.322 413.923Z" fill="#3F3D56"/>
    <path d="M683.322 409.74C685.17 409.74 686.668 408.241 686.668 406.391C686.668 404.542 685.17 403.043 683.322 403.043C681.474 403.043 679.976 404.542 679.976 406.391C679.976 408.241 681.474 409.74 683.322 409.74Z" fill="#3F3D56"/>
    <path d="M688.337 411.412C690.185 411.412 691.683 409.913 691.683 408.063C691.683 406.214 690.185 404.715 688.337 404.715C686.489 404.715 684.991 406.214 684.991 408.063C684.991 409.913 686.489 411.412 688.337 411.412Z" fill="#3F3D56"/>
    <path d="M691.683 409.74C693.531 409.74 695.029 408.241 695.029 406.391C695.029 404.542 693.531 403.043 691.683 403.043C689.835 403.043 688.337 404.542 688.337 406.391C688.337 408.241 689.835 409.74 691.683 409.74Z" fill="#3F3D56"/>
    <path d="M695.029 408.064C696.877 408.064 698.375 406.565 698.375 404.716C698.375 402.866 696.877 401.367 695.029 401.367C693.181 401.367 691.683 402.866 691.683 404.716C691.683 406.565 693.181 408.064 695.029 408.064Z" fill="#3F3D56"/>
    <path d="M683.322 405.556C685.17 405.556 686.668 404.057 686.668 402.208C686.668 400.359 685.17 398.859 683.322 398.859C681.474 398.859 679.976 400.359 679.976 402.208C679.976 404.057 681.474 405.556 683.322 405.556Z" fill="#3F3D56"/>
    <path d="M683.322 401.377C685.17 401.377 686.668 399.877 686.668 398.028C686.668 396.179 685.17 394.68 683.322 394.68C681.474 394.68 679.976 396.179 679.976 398.028C679.976 399.877 681.474 401.377 683.322 401.377Z" fill="#3F3D56"/>
    <path d="M683.322 397.185C685.17 397.185 686.668 395.686 686.668 393.837C686.668 391.987 685.17 390.488 683.322 390.488C681.474 390.488 679.976 391.987 679.976 393.837C679.976 395.686 681.474 397.185 683.322 397.185Z" fill="#3F3D56"/>
    <path d="M683.322 393.002C685.17 393.002 686.668 391.502 686.668 389.653C686.668 387.804 685.17 386.305 683.322 386.305C681.474 386.305 679.976 387.804 679.976 389.653C679.976 391.502 681.474 393.002 683.322 393.002Z" fill="#3F3D56"/>
    <path d="M697.191 378.859C696.361 378.98 695.526 379.067 694.687 379.121C695.463 378.444 696.183 377.705 696.841 376.911C696.377 375.504 695.696 374.179 694.821 372.984C693.991 373.45 693.075 373.741 692.128 373.839C691.3 373.961 690.465 374.048 689.63 374.102C690.754 373.035 691.821 371.911 692.828 370.733C690.415 368.544 687.323 367.252 684.071 367.072C680.818 366.893 677.603 367.837 674.964 369.748C672.324 371.658 670.421 374.418 669.573 377.565C668.725 380.712 668.983 384.055 670.305 387.035C671.627 390.014 673.931 392.448 676.833 393.929C679.734 395.411 683.056 395.849 686.242 395.171C689.429 394.494 692.285 392.741 694.333 390.206C696.382 387.672 697.498 384.51 697.494 381.25C697.494 380.43 697.422 379.612 697.278 378.805L697.191 378.859Z" fill="#EB6565"/>
    <path d="M708.366 395.491C707.512 396.015 706.55 396.338 705.552 396.434C704.724 396.555 703.889 396.643 703.055 396.696C703.942 395.9 704.77 395.04 705.532 394.123C704.833 393.939 704.114 393.844 703.391 393.84C701.4 393.836 699.473 394.543 697.955 395.832C696.437 397.122 695.428 398.911 695.109 400.878C694.79 402.844 695.181 404.861 696.213 406.565C697.245 408.269 698.85 409.549 700.74 410.176C702.63 410.803 704.682 410.736 706.526 409.986C708.371 409.237 709.889 407.854 710.807 406.086C711.725 404.318 711.984 402.28 711.537 400.338C711.089 398.397 709.965 396.678 708.366 395.491Z" fill="#EB6565"/>
    <path d="M678.299 411.412C680.147 411.412 681.645 409.913 681.645 408.063C681.645 406.214 680.147 404.715 678.299 404.715C676.451 404.715 674.953 406.214 674.953 408.063C674.953 409.913 676.451 411.412 678.299 411.412Z" fill="#3F3D56"/>
    <path d="M674.953 409.74C676.801 409.74 678.299 408.241 678.299 406.391C678.299 404.542 676.801 403.043 674.953 403.043C673.105 403.043 671.607 404.542 671.607 406.391C671.607 408.241 673.105 409.74 674.953 409.74Z" fill="#3F3D56"/>
    <path d="M671.614 408.064C673.462 408.064 674.96 406.565 674.96 404.716C674.96 402.866 673.462 401.367 671.614 401.367C669.766 401.367 668.268 402.866 668.268 404.716C668.268 406.565 669.766 408.064 671.614 408.064Z" fill="#3F3D56"/>
    <path d="M658.298 395.491C659.152 396.015 660.114 396.338 661.112 396.434C661.94 396.555 662.775 396.643 663.609 396.696C662.722 395.9 661.894 395.04 661.132 394.123C661.831 393.939 662.55 393.844 663.273 393.84C665.264 393.836 667.191 394.543 668.709 395.832C670.227 397.122 671.236 398.911 671.555 400.878C671.874 402.844 671.483 404.861 670.451 406.565C669.419 408.269 667.814 409.549 665.924 410.176C664.034 410.803 661.982 410.736 660.138 409.986C658.293 409.237 656.775 407.854 655.857 406.086C654.939 404.318 654.68 402.28 655.127 400.338C655.575 398.397 656.699 396.678 658.298 395.491Z" fill="#EB6565"/>
    <path d="M680.912 428.156H689.064C693.528 428.156 697.809 429.931 700.966 433.09C704.122 436.248 705.896 440.532 705.896 444.999V467.145C705.896 467.903 705.595 468.629 705.06 469.165C704.524 469.701 703.798 470.001 703.041 470.001H666.935C666.178 470.001 665.452 469.701 664.917 469.165C664.381 468.629 664.08 467.903 664.08 467.145V444.999C664.08 440.532 665.854 436.248 669.01 433.09C672.167 429.931 676.448 428.156 680.912 428.156Z" fill="#3F3D56"/>
    <g opacity="0.1">
    <path opacity="0.1" d="M697.446 379.773C697.109 380.139 696.747 380.481 696.362 380.797C696.746 380.797 697.13 380.737 697.507 380.696C697.493 380.387 697.48 380.077 697.446 379.773Z" fill="#EB6565"/>
    <path opacity="0.1" d="M691.347 375.774C692.182 375.72 693.016 375.632 693.844 375.511C694.594 375.419 695.327 375.219 696.019 374.918C695.677 374.245 695.285 373.599 694.848 372.984C694.429 373.24 693.975 373.432 693.501 373.557C692.841 374.351 692.121 375.092 691.347 375.774Z" fill="#EB6565"/>
    <path opacity="0.1" d="M670.773 382.962C670.767 380.407 671.451 377.899 672.751 375.701C674.051 373.503 675.919 371.696 678.159 370.471C680.399 369.246 682.927 368.648 685.478 368.741C688.029 368.833 690.507 369.612 692.653 370.996L692.868 370.767C691.468 369.52 689.835 368.563 688.064 367.951C686.292 367.339 684.417 367.083 682.547 367.199C680.676 367.315 678.847 367.801 677.164 368.627C675.482 369.454 673.98 370.606 672.744 372.016C671.509 373.426 670.564 375.067 669.965 376.844C669.366 378.621 669.125 380.5 669.254 382.371C669.384 384.242 669.882 386.069 670.72 387.746C671.559 389.424 672.721 390.918 674.139 392.145C671.961 389.582 670.768 386.326 670.773 382.962Z" fill="#EB6565"/>
    </g>
    <g opacity="0.1">
    <path opacity="0.1" d="M703.055 398.373C703.89 398.312 704.724 398.224 705.553 398.103C706.55 398.009 707.512 397.689 708.367 397.167C709.313 397.862 710.102 398.75 710.682 399.771C711.263 400.793 711.62 401.926 711.733 403.095C711.766 402.8 711.781 402.503 711.78 402.206C711.786 400.898 711.484 399.606 710.9 398.436C710.315 397.266 709.463 396.249 708.414 395.469C707.56 395.993 706.597 396.316 705.6 396.412L704.926 396.493C704.354 397.168 703.728 397.797 703.055 398.373Z" fill="black"/>
    <path opacity="0.1" d="M703.405 395.511C703.688 395.511 703.964 395.511 704.24 395.571C704.677 395.106 705.108 394.608 705.546 394.123C704.847 393.939 704.127 393.844 703.405 393.84C701.187 393.84 699.06 394.721 697.492 396.291C695.924 397.86 695.043 399.988 695.043 402.208C695.043 402.491 695.043 402.773 695.084 403.043C695.292 400.979 696.259 399.066 697.796 397.674C699.333 396.283 701.332 395.512 703.405 395.511Z" fill="black"/>
    </g>
    <g opacity="0.1">
    <path opacity="0.1" d="M663.582 398.373C662.747 398.312 661.913 398.224 661.085 398.103C660.087 398.009 659.125 397.689 658.27 397.167C657.324 397.862 656.535 398.75 655.955 399.771C655.375 400.793 655.017 401.926 654.904 403.095C654.871 402.8 654.856 402.503 654.857 402.206C654.851 400.898 655.153 399.606 655.738 398.436C656.322 397.266 657.174 396.249 658.223 395.469C659.077 395.993 660.04 396.316 661.037 396.412L661.711 396.493C662.285 397.167 662.911 397.795 663.582 398.373Z" fill="black"/>
    <path opacity="0.1" d="M663.245 395.511C662.963 395.511 662.687 395.511 662.411 395.571C661.973 395.106 661.542 394.608 661.104 394.123C661.803 393.939 662.523 393.844 663.245 393.84C665.463 393.84 667.59 394.721 669.158 396.291C670.726 397.86 671.607 399.988 671.607 402.208C671.607 402.491 671.607 402.773 671.567 403.043C671.358 400.979 670.392 399.066 668.854 397.674C667.317 396.283 665.318 395.512 663.245 395.511Z" fill="black"/>
    </g>
    <path d="M38.3749 363.141H102.697C107.16 363.141 111.441 364.915 114.598 368.074C117.754 371.233 119.528 375.517 119.528 379.984V461.161H21.5438V379.984C21.5438 375.517 23.3171 371.233 26.4735 368.074C29.63 364.915 33.911 363.141 38.3749 363.141Z" fill="#3F3D56"/>
    <path opacity="0.1" d="M38.3749 363.141H102.697C107.16 363.141 111.441 364.915 114.598 368.074C117.754 371.233 119.528 375.517 119.528 379.984V461.161H21.5438V379.984C21.5438 375.517 23.3171 371.233 26.4735 368.074C29.63 364.915 33.911 363.141 38.3749 363.141Z" fill="black"/>
    <path d="M66.6309 384.677C70.9589 384.677 74.4674 381.166 74.4674 376.834C74.4674 372.503 70.9589 368.992 66.6309 368.992C62.3029 368.992 58.7943 372.503 58.7943 376.834C58.7943 381.166 62.3029 384.677 66.6309 384.677Z" fill="#3F3D56"/>
    <path d="M66.6309 374.876C70.9589 374.876 74.4674 371.365 74.4674 367.034C74.4674 362.702 70.9589 359.191 66.6309 359.191C62.3029 359.191 58.7943 362.702 58.7943 367.034C58.7943 371.365 62.3029 374.876 66.6309 374.876Z" fill="#3F3D56"/>
    <path d="M66.6309 365.067C70.9589 365.067 74.4674 361.556 74.4674 357.225C74.4674 352.894 70.9589 349.383 66.6309 349.383C62.3029 349.383 58.7943 352.894 58.7943 357.225C58.7943 361.556 62.3029 365.067 66.6309 365.067Z" fill="#3F3D56"/>
    <path d="M66.6309 355.263C70.9589 355.263 74.4674 351.751 74.4674 347.42C74.4674 343.089 70.9589 339.578 66.6309 339.578C62.3029 339.578 58.7943 343.089 58.7943 347.42C58.7943 351.751 62.3029 355.263 66.6309 355.263Z" fill="#3F3D56"/>
    <path d="M66.6309 345.454C70.9589 345.454 74.4674 341.943 74.4674 337.612C74.4674 333.281 70.9589 329.77 66.6309 329.77C62.3029 329.77 58.7943 333.281 58.7943 337.612C58.7943 341.943 62.3029 345.454 66.6309 345.454Z" fill="#3F3D56"/>
    <path d="M66.6309 335.649C70.9589 335.649 74.4674 332.138 74.4674 327.807C74.4674 323.476 70.9589 319.965 66.6309 319.965C62.3029 319.965 58.7943 323.476 58.7943 327.807C58.7943 332.138 62.3029 335.649 66.6309 335.649Z" fill="#3F3D56"/>
    <path d="M66.6309 325.848C70.9589 325.848 74.4674 322.337 74.4674 318.006C74.4674 313.675 70.9589 310.164 66.6309 310.164C62.3029 310.164 58.7943 313.675 58.7943 318.006C58.7943 322.337 62.3029 325.848 66.6309 325.848Z" fill="#3F3D56"/>
    <path d="M78.3857 329.77C82.7138 329.77 86.2223 326.259 86.2223 321.928C86.2223 317.597 82.7138 314.086 78.3857 314.086C74.0577 314.086 70.5492 317.597 70.5492 321.928C70.5492 326.259 74.0577 329.77 78.3857 329.77Z" fill="#3F3D56"/>
    <path d="M86.2222 325.848C90.5502 325.848 94.0587 322.337 94.0587 318.006C94.0587 313.675 90.5502 310.164 86.2222 310.164C81.8942 310.164 78.3856 313.675 78.3856 318.006C78.3856 322.337 81.8942 325.848 86.2222 325.848Z" fill="#3F3D56"/>
    <path d="M94.0654 321.923C98.3934 321.923 101.902 318.412 101.902 314.08C101.902 309.749 98.3934 306.238 94.0654 306.238C89.7374 306.238 86.2289 309.749 86.2289 314.08C86.2289 318.412 89.7374 321.923 94.0654 321.923Z" fill="#3F3D56"/>
    <path d="M66.6309 316.04C70.9589 316.04 74.4674 312.529 74.4674 308.198C74.4674 303.867 70.9589 300.355 66.6309 300.355C62.3029 300.355 58.7943 303.867 58.7943 308.198C58.7943 312.529 62.3029 316.04 66.6309 316.04Z" fill="#3F3D56"/>
    <path d="M66.6309 306.235C70.9589 306.235 74.4674 302.724 74.4674 298.393C74.4674 294.062 70.9589 290.551 66.6309 290.551C62.3029 290.551 58.7943 294.062 58.7943 298.393C58.7943 302.724 62.3029 306.235 66.6309 306.235Z" fill="#3F3D56"/>
    <path d="M66.6309 296.427C70.9589 296.427 74.4674 292.916 74.4674 288.584C74.4674 284.253 70.9589 280.742 66.6309 280.742C62.3029 280.742 58.7943 284.253 58.7943 288.584C58.7943 292.916 62.3029 296.427 66.6309 296.427Z" fill="#3F3D56"/>
    <path d="M66.6309 286.626C70.9589 286.626 74.4674 283.115 74.4674 278.784C74.4674 274.452 70.9589 270.941 66.6309 270.941C62.3029 270.941 58.7943 274.452 58.7943 278.784C58.7943 283.115 62.3029 286.626 66.6309 286.626Z" fill="#3F3D56"/>
    <path d="M99.1286 253.484C97.1851 253.767 95.2327 253.974 93.2714 254.104C95.0865 252.513 96.7726 250.781 98.3139 248.923C97.2448 245.631 95.6683 242.526 93.6416 239.72C91.7131 240.823 89.5762 241.511 87.367 241.741C85.4281 242.024 83.4689 242.233 81.5098 242.368C84.0883 240.279 86.4783 237.119 89.003 234.553C83.15 229.233 75.6005 226.165 67.6985 225.895C59.7966 225.624 52.0552 228.169 45.8527 233.076C39.6502 237.982 35.3891 244.933 33.8282 252.689C32.2672 260.446 33.5078 268.505 37.3289 275.432C41.15 282.359 47.3036 287.704 54.6942 290.515C62.0848 293.327 70.2325 293.422 77.6868 290.784C85.1411 288.147 91.418 282.947 95.4001 276.112C99.3821 269.276 100.811 261.248 99.4315 253.457L99.1286 253.484Z" fill="#EB6565"/>
    <path d="M125.317 292.466C123.473 293.767 121.022 294.326 118.726 294.663C116.781 294.952 114.828 295.154 112.869 295.289C114.889 293.665 116.747 291.402 118.673 289.266C113.955 288.013 108.94 288.566 104.608 290.816C100.276 293.065 96.9382 296.851 95.2464 301.432C93.5546 306.014 93.6307 311.062 95.4598 315.59C97.2889 320.118 100.74 323.801 105.138 325.919C109.535 328.038 114.565 328.438 119.242 327.044C123.92 325.649 127.909 322.559 130.432 318.378C132.954 314.196 133.828 309.224 132.882 304.432C131.936 299.641 129.239 295.374 125.317 292.466Z" fill="#EB6565"/>
    <path d="M54.8694 329.77C59.1974 329.77 62.7059 326.259 62.7059 321.928C62.7059 317.597 59.1974 314.086 54.8694 314.086C50.5414 314.086 47.0328 317.597 47.0328 321.928C47.0328 326.259 50.5414 329.77 54.8694 329.77Z" fill="#3F3D56"/>
    <path d="M47.0326 325.848C51.3606 325.848 54.8691 322.337 54.8691 318.006C54.8691 313.675 51.3606 310.164 47.0326 310.164C42.7046 310.164 39.196 313.675 39.196 318.006C39.196 322.337 42.7046 325.848 47.0326 325.848Z" fill="#3F3D56"/>
    <path d="M39.1962 321.923C43.5242 321.923 47.0327 318.412 47.0327 314.08C47.0327 309.749 43.5242 306.238 39.1962 306.238C34.8682 306.238 31.3596 309.749 31.3596 314.08C31.3596 318.412 34.8682 321.923 39.1962 321.923Z" fill="#3F3D56"/>
    <path d="M7.94431 292.466C9.789 293.767 12.2396 294.326 14.5421 294.663C16.481 294.952 18.4334 295.154 20.3926 295.289C18.3729 293.665 16.5147 291.402 14.5892 289.266C19.3066 288.013 24.3214 288.566 28.6535 290.816C32.9855 293.065 36.3236 296.851 38.0154 301.432C39.7072 306.014 39.6311 311.062 37.802 315.59C35.9729 320.118 32.5222 323.801 28.1243 325.919C23.7263 328.038 18.6972 328.438 14.0197 327.044C9.34222 325.649 5.35245 322.559 2.83009 318.378C0.307739 314.196 -0.565931 309.224 0.379814 304.432C1.32556 299.641 4.02275 295.374 7.94431 292.466Z" fill="#EB6565"/>
    <path d="M38.3749 368.992H102.697C107.16 368.992 111.441 370.767 114.598 373.925C117.754 377.084 119.528 381.368 119.528 385.835V464.197C119.528 464.954 119.227 465.681 118.692 466.217C118.156 466.752 117.43 467.053 116.673 467.053H24.4118C24.0358 467.055 23.6632 466.983 23.3153 466.84C22.9674 466.697 22.6512 466.487 22.3847 466.222C22.1182 465.956 21.9067 465.641 21.7624 465.293C21.6181 464.946 21.5438 464.573 21.5438 464.197V385.835C21.5438 381.368 23.3171 377.084 26.4735 373.925C29.63 370.767 33.911 368.992 38.3749 368.992Z" fill="#3F3D56"/>
    <g opacity="0.1">
    <path opacity="0.1" d="M99.7208 255.625C98.933 256.482 98.0872 257.283 97.1893 258.023C98.0848 257.963 98.9869 257.882 99.8823 257.794C99.8487 257.067 99.8015 256.339 99.7208 255.625Z" fill="black"/>
    <path opacity="0.1" d="M85.4346 246.261C87.3937 246.126 89.3461 245.924 91.285 245.634C93.0413 245.43 94.7596 244.976 96.3882 244.287C95.5921 242.704 94.6737 241.186 93.6414 239.746C92.668 240.348 91.6107 240.802 90.5041 241.094C88.9507 242.945 87.2557 244.673 85.4346 246.261Z" fill="black"/>
    <path opacity="0.1" d="M37.2304 263.095C37.2186 257.11 38.8199 251.233 41.8658 246.083C44.9117 240.932 49.2893 236.699 54.5375 233.829C59.7857 230.959 65.7103 229.559 71.6869 229.776C77.6636 229.993 83.4712 231.819 88.4979 235.062C88.6662 234.886 88.8345 234.691 89.0028 234.523C85.7282 231.562 81.8979 229.283 77.7348 227.817C73.5718 226.352 69.1591 225.729 64.7535 225.986C60.3478 226.243 56.0372 227.374 52.0724 229.313C48.1076 231.253 44.5677 233.962 41.6588 237.283C38.7499 240.604 36.5299 244.471 35.1281 248.658C33.7263 252.846 33.1707 257.271 33.4935 261.675C33.8162 266.08 35.011 270.376 37.0083 274.314C39.0056 278.252 41.7656 281.753 45.1275 284.614C40.022 278.609 37.2222 270.98 37.2304 263.095Z" fill="black"/>
    </g>
    <g opacity="0.1">
    <path opacity="0.1" d="M112.869 299.209C114.826 299.083 116.779 298.874 118.726 298.582C121.022 298.252 123.439 297.693 125.318 296.386C127.527 298.019 129.367 300.1 130.72 302.492C132.072 304.885 132.906 307.535 133.168 310.272C133.235 309.598 133.275 308.924 133.275 308.203C133.277 305.141 132.56 302.121 131.181 299.387C129.802 296.653 127.801 294.282 125.338 292.465C123.493 293.765 121.042 294.324 118.747 294.661C118.228 294.735 117.717 294.796 117.205 294.857C115.877 296.42 114.427 297.875 112.869 299.209Z" fill="black"/>
    <path opacity="0.1" d="M113.644 292.513C114.301 292.524 114.957 292.569 115.609 292.648C116.633 291.556 117.629 290.398 118.659 289.279C115.759 288.497 112.718 288.394 109.772 288.98C106.826 289.566 104.054 290.824 101.673 292.656C99.2926 294.489 97.3662 296.846 96.0444 299.545C94.7225 302.244 94.0407 305.212 94.0521 308.218C94.0521 308.891 94.0858 309.565 94.1464 310.178C94.6289 305.339 96.8912 300.851 100.494 297.587C104.097 294.322 108.783 292.514 113.644 292.513Z" fill="black"/>
    </g>
    <g opacity="0.1">
    <path opacity="0.1" d="M20.3858 299.209C18.4289 299.083 16.4788 298.874 14.5353 298.582C12.2328 298.252 9.78223 297.693 7.93754 296.386C5.73209 298.021 3.89519 300.103 2.54623 302.495C1.19726 304.887 0.366427 307.537 0.10772 310.272C0.040396 309.598 1.49211e-06 308.924 1.49211e-06 308.203C-0.00119498 305.14 0.717185 302.12 2.09716 299.386C3.47714 296.652 5.48006 294.281 7.94427 292.465C9.78896 293.765 12.2396 294.324 14.5421 294.661C15.0537 294.735 15.5654 294.796 16.0771 294.857C17.3982 296.417 18.8388 297.872 20.3858 299.209Z" fill="black"/>
    <path opacity="0.1" d="M19.5981 292.513C18.9409 292.524 18.2847 292.569 17.6322 292.648C16.6089 291.556 15.6125 290.398 14.5824 289.279C17.4824 288.497 20.5238 288.394 23.4699 288.98C26.4159 289.566 29.1872 290.824 31.5681 292.656C33.949 294.489 35.8754 296.846 37.1972 299.545C38.5191 302.244 39.2008 305.212 39.1894 308.218C39.1894 308.891 39.1894 309.565 39.0952 310.178C38.6127 305.339 36.3504 300.851 32.7475 297.587C29.1446 294.322 24.4582 292.514 19.5981 292.513Z" fill="black"/>
    </g>
    <path d="M457.792 469.011L326.51 467.326L326.893 463.958L333.242 408.375H448.535L457.018 463.958L457.664 468.168L457.792 469.011Z" fill="#D0D2D5"/>
    <path opacity="0.1" d="M457.664 468.168H392.151L326.51 467.326L326.893 463.957H457.018L457.664 468.168Z" fill="black"/>
    <path d="M478.831 464.797H304.629V469.008H478.831V464.797Z" fill="#D0D2D5"/>
    <path d="M645.035 74.5261C645.049 71.6183 643.909 68.8238 641.865 66.7569C639.821 64.69 637.04 63.5199 634.135 63.5039H147.642C146.203 63.511 144.779 63.8017 143.452 64.3594C142.125 64.9172 140.921 65.731 139.908 66.7545C138.895 67.778 138.094 68.9911 137.55 70.3246C137.005 71.6581 136.729 73.0857 136.736 74.5261V369.619H645.035V74.5261Z" fill="#444053"/>
    <path d="M136.736 366.684V401.253C136.731 402.688 137.01 404.111 137.556 405.439C138.103 406.766 138.905 407.973 139.919 408.99C140.932 410.006 142.136 410.813 143.461 411.362C144.787 411.912 146.207 412.195 147.642 412.194H634.135C637.025 412.194 639.798 411.045 641.842 408.999C643.886 406.954 645.034 404.179 645.034 401.286V366.684H136.736Z" fill="#D0D2D5"/>
    <path opacity="0.1" d="M626.52 82.0312H157.775V347.312H626.52V82.0312Z" fill="#6C63FF"/>
    <path d="M393.41 399.051C395.131 399.052 396.83 398.662 398.379 397.911C399.927 397.159 401.285 396.066 402.35 394.712C402.672 394.298 402.966 393.864 403.232 393.412L396.998 392.388L403.731 392.435C404.38 391.028 404.734 389.503 404.771 387.954C404.808 386.404 404.527 384.864 403.946 383.427L394.904 388.144L403.246 382.013C402.48 380.638 401.438 379.437 400.184 378.487C398.93 377.536 397.493 376.856 395.963 376.491C394.434 376.125 392.845 376.081 391.297 376.362C389.75 376.643 388.277 377.243 386.973 378.123C385.669 379.003 384.562 380.145 383.722 381.475C382.883 382.806 382.328 384.297 382.094 385.853C381.86 387.41 381.951 388.998 382.362 390.517C382.773 392.036 383.495 393.453 384.483 394.679C385.542 396.037 386.896 397.137 388.443 397.894C389.989 398.652 391.688 399.047 393.41 399.051Z" fill="#EB6565"/>
    <path opacity="0.1" d="M404.774 412.16L457.146 464.799L449.114 412.16H404.774Z" fill="black"/>
    <path d="M616.799 259.172H478.356V332.737H616.799V259.172Z" fill="white"/>
    <path opacity="0.1" d="M524.692 278.352H486.078V280.354H524.692V278.352Z" fill="#3A7BB8"/>
    <path opacity="0.1" d="M493.231 267.758H489.511V278.349H493.231V267.758Z" fill="#3A7BB8"/>
    <path opacity="0.1" d="M498.665 267.758H494.946V278.349H498.665V267.758Z" fill="#3A7BB8"/>
    <path opacity="0.1" d="M504.1 267.758H500.381V278.349H504.1V267.758Z" fill="#3A7BB8"/>
    <path opacity="0.1" d="M509.534 267.758H505.815V278.349H509.534V267.758Z" fill="#3A7BB8"/>
    <path opacity="0.1" d="M514.969 267.758H511.25V278.349H514.969V267.758Z" fill="#3A7BB8"/>
    <path opacity="0.1" d="M520.404 267.758H516.685V278.349H520.404V267.758Z" fill="#3A7BB8"/>
    <path opacity="0.1" d="M493.231 269.762H489.511V270.906H493.231V269.762Z" fill="#3A7BB8"/>
    <path opacity="0.1" d="M498.665 269.762H494.946V270.906H498.665V269.762Z" fill="#3A7BB8"/>
    <path opacity="0.1" d="M504.1 269.762H500.381V270.906H504.1V269.762Z" fill="#3A7BB8"/>
    <path opacity="0.1" d="M509.534 269.762H505.815V270.906H509.534V269.762Z" fill="#3A7BB8"/>
    <path opacity="0.1" d="M514.969 269.762H511.25V270.906H514.969V269.762Z" fill="#3A7BB8"/>
    <path opacity="0.1" d="M520.404 269.762H516.685V270.906H520.404V269.762Z" fill="#3A7BB8"/>
    <path opacity="0.1" d="M493.231 274.914H489.511V276.058H493.231V274.914Z" fill="#3A7BB8"/>
    <path opacity="0.1" d="M498.665 274.914H494.946V276.058H498.665V274.914Z" fill="#3A7BB8"/>
    <path opacity="0.1" d="M504.1 274.914H500.381V276.058H504.1V274.914Z" fill="#3A7BB8"/>
    <path opacity="0.1" d="M509.534 274.914H505.815V276.058H509.534V274.914Z" fill="#3A7BB8"/>
    <path opacity="0.1" d="M514.969 274.914H511.25V276.058H514.969V274.914Z" fill="#3A7BB8"/>
    <path opacity="0.1" d="M520.404 274.914H516.685V276.058H520.404V274.914Z" fill="#3A7BB8"/>
    <path opacity="0.1" d="M609.36 283.5H570.745V285.503H609.36V283.5Z" fill="#3A7BB8"/>
    <path opacity="0.1" d="M577.898 272.91H574.179V283.501H577.898V272.91Z" fill="#3A7BB8"/>
    <path opacity="0.1" d="M583.333 272.91H579.614V283.501H583.333V272.91Z" fill="#3A7BB8"/>
    <path opacity="0.1" d="M588.768 272.91H585.048V283.501H588.768V272.91Z" fill="#3A7BB8"/>
    <path opacity="0.1" d="M594.202 272.91H590.483V283.501H594.202V272.91Z" fill="#3A7BB8"/>
    <path opacity="0.1" d="M599.637 272.91H595.917V283.501H599.637V272.91Z" fill="#3A7BB8"/>
    <path opacity="0.1" d="M605.072 272.91H601.352V283.501H605.072V272.91Z" fill="#3A7BB8"/>
    <path opacity="0.1" d="M577.898 274.914H574.179V276.058H577.898V274.914Z" fill="#3A7BB8"/>
    <path opacity="0.1" d="M583.333 274.914H579.614V276.058H583.333V274.914Z" fill="#3A7BB8"/>
    <path opacity="0.1" d="M588.768 274.914H585.048V276.058H588.768V274.914Z" fill="#3A7BB8"/>
    <path opacity="0.1" d="M594.202 274.914H590.483V276.058H594.202V274.914Z" fill="#3A7BB8"/>
    <path opacity="0.1" d="M599.637 274.914H595.917V276.058H599.637V274.914Z" fill="#3A7BB8"/>
    <path opacity="0.1" d="M605.072 274.914H601.352V276.058H605.072V274.914Z" fill="#3A7BB8"/>
    <path opacity="0.1" d="M577.898 280.066H574.179V281.211H577.898V280.066Z" fill="#3A7BB8"/>
    <path opacity="0.1" d="M583.333 280.066H579.614V281.211H583.333V280.066Z" fill="#3A7BB8"/>
    <path opacity="0.1" d="M588.768 280.066H585.048V281.211H588.768V280.066Z" fill="#3A7BB8"/>
    <path opacity="0.1" d="M594.202 280.066H590.483V281.211H594.202V280.066Z" fill="#3A7BB8"/>
    <path opacity="0.1" d="M599.637 280.066H595.917V281.211H599.637V280.066Z" fill="#3A7BB8"/>
    <path opacity="0.1" d="M605.072 280.066H601.352V281.211H605.072V280.066Z" fill="#3A7BB8"/>
    <path opacity="0.1" d="M609.36 298.098H570.745V300.1H609.36V298.098Z" fill="#3A7BB8"/>
    <path opacity="0.1" d="M577.898 287.508H574.179V298.099H577.898V287.508Z" fill="#3A7BB8"/>
    <path opacity="0.1" d="M583.333 287.508H579.614V298.099H583.333V287.508Z" fill="#3A7BB8"/>
    <path opacity="0.1" d="M588.768 287.508H585.048V298.099H588.768V287.508Z" fill="#3A7BB8"/>
    <path opacity="0.1" d="M594.202 287.508H590.483V298.099H594.202V287.508Z" fill="#3A7BB8"/>
    <path opacity="0.1" d="M599.637 287.508H595.917V298.099H599.637V287.508Z" fill="#3A7BB8"/>
    <path opacity="0.1" d="M605.072 287.508H601.352V298.099H605.072V287.508Z" fill="#3A7BB8"/>
    <path opacity="0.1" d="M577.898 289.508H574.179V290.652H577.898V289.508Z" fill="#3A7BB8"/>
    <path opacity="0.1" d="M583.333 289.508H579.614V290.652H583.333V289.508Z" fill="#3A7BB8"/>
    <path opacity="0.1" d="M588.768 289.508H585.048V290.652H588.768V289.508Z" fill="#3A7BB8"/>
    <path opacity="0.1" d="M594.202 289.508H590.483V290.652H594.202V289.508Z" fill="#3A7BB8"/>
    <path opacity="0.1" d="M599.637 289.508H595.917V290.652H599.637V289.508Z" fill="#3A7BB8"/>
    <path opacity="0.1" d="M605.072 289.508H601.352V290.652H605.072V289.508Z" fill="#3A7BB8"/>
    <path opacity="0.1" d="M577.898 294.664H574.179V295.809H577.898V294.664Z" fill="#3A7BB8"/>
    <path opacity="0.1" d="M583.333 294.664H579.614V295.809H583.333V294.664Z" fill="#3A7BB8"/>
    <path opacity="0.1" d="M588.768 294.664H585.048V295.809H588.768V294.664Z" fill="#3A7BB8"/>
    <path opacity="0.1" d="M594.202 294.664H590.483V295.809H594.202V294.664Z" fill="#3A7BB8"/>
    <path opacity="0.1" d="M599.637 294.664H595.917V295.809H599.637V294.664Z" fill="#3A7BB8"/>
    <path opacity="0.1" d="M605.072 294.664H601.352V295.809H605.072V294.664Z" fill="#3A7BB8"/>
    <path opacity="0.1" d="M509.761 301C509.472 300.632 509.209 300.245 508.973 299.84L514.534 298.928L508.51 298.977C507.933 297.721 507.618 296.36 507.585 294.978C507.552 293.597 507.801 292.222 508.316 290.94L516.383 295.129L508.945 289.656C509.64 288.448 510.576 287.397 511.696 286.567C512.815 285.737 514.093 285.147 515.451 284.834C516.808 284.52 518.215 284.49 519.585 284.746C520.954 285.001 522.257 285.536 523.41 286.318C524.564 287.099 525.544 288.11 526.29 289.288C527.035 290.465 527.53 291.784 527.744 293.161C527.958 294.539 527.885 295.946 527.531 297.294C527.177 298.642 526.549 299.903 525.687 300.998C526.139 301.569 526.529 302.188 526.848 302.843L519.637 306.593L527.33 304.016C527.871 305.614 528.005 307.321 527.72 308.984C527.435 310.646 526.739 312.212 525.697 313.537C526.873 315.033 527.605 316.83 527.809 318.723C528.013 320.616 527.68 322.527 526.849 324.24C526.018 325.952 524.722 327.396 523.11 328.406C521.498 329.416 519.634 329.952 517.732 329.952C515.83 329.952 513.966 329.416 512.354 328.406C510.741 327.396 509.446 325.952 508.615 324.24C507.784 322.527 507.451 320.616 507.655 318.723C507.859 316.83 508.59 315.033 509.767 313.537C508.362 311.75 507.598 309.542 507.598 307.267C507.598 304.993 508.362 302.785 509.767 300.998L509.761 301Z" fill="#3A7BB8"/>
    <path opacity="0.1" d="M527.86 307.271C527.863 309.545 527.099 311.754 525.691 313.539C526.868 315.035 527.6 316.832 527.803 318.725C528.007 320.618 527.674 322.529 526.843 324.242C526.012 325.954 524.717 327.398 523.104 328.408C521.492 329.418 519.628 329.954 517.726 329.954C515.824 329.954 513.96 329.418 512.348 328.408C510.736 327.398 509.44 325.954 508.609 324.242C507.778 322.529 507.446 320.618 507.649 318.725C507.853 316.832 508.585 315.035 509.761 313.539C508.404 311.815 527.86 306.131 527.86 307.271Z" fill="#3A7BB8"/>
    <path opacity="0.2" d="M519.353 332.651C519.371 332.679 519.384 332.708 519.402 332.736H515.961C515.979 332.708 515.992 332.679 516.01 332.651C515.714 332.135 515.561 331.55 515.567 330.955C515.566 330.548 515.637 330.144 515.775 329.762C515.966 329.793 516.203 329.826 516.476 329.855C517.274 329.934 518.078 329.934 518.876 329.855C519.103 329.831 519.343 329.798 519.585 329.762C519.585 329.768 519.585 329.774 519.585 329.78C519.72 330.157 519.789 330.554 519.788 330.955C519.796 331.549 519.646 332.134 519.353 332.651Z" fill="#3F3D56"/>
    <path opacity="0.1" d="M506.987 332.74H487.849C487.806 332.629 487.767 332.513 487.733 332.399C487.059 330.227 487.138 327.891 487.958 325.77C486.087 324.477 484.706 322.593 484.035 320.419C483.364 318.246 483.443 315.91 484.259 313.787C483.874 313.52 483.507 313.227 483.162 312.911L488.205 310.395L482.474 312.215C481.552 311.185 480.849 309.977 480.41 308.666C479.971 307.355 479.803 305.968 479.919 304.59L488.862 306.206L480.14 303.175C480.449 301.816 481.034 300.534 481.859 299.411C482.684 298.288 483.732 297.347 484.937 296.648C486.142 295.948 487.478 295.504 488.862 295.344C490.246 295.184 491.647 295.312 492.98 295.718C494.313 296.125 495.547 296.802 496.606 297.707C497.666 298.612 498.527 299.727 499.137 300.98C499.747 302.233 500.092 303.599 500.151 304.992C500.209 306.385 499.981 307.775 499.479 309.075C500.078 309.491 500.631 309.968 501.13 310.501L495.339 316.218L501.931 311.475C502.918 312.842 503.55 314.435 503.767 316.108C503.985 317.782 503.782 319.483 503.177 321.058C505.002 322.32 506.362 324.146 507.05 326.256C507.738 328.366 507.716 330.644 506.987 332.74Z" fill="#3A7BB8"/>
    <path opacity="0.1" d="M506.987 332.744H487.85C487.806 332.633 487.768 332.517 487.734 332.404C487.059 330.232 487.138 327.896 487.958 325.775C486.155 324.524 503.067 313.348 503.412 314.433C504.084 316.607 504.005 318.943 503.188 321.065C505.01 322.329 506.368 324.155 507.054 326.264C507.741 328.373 507.717 330.65 506.987 332.744Z" fill="#3A7BB8"/>
    <path opacity="0.1" d="M593.646 319.003C592.484 320.957 590.696 322.461 588.572 323.271C588.663 323.996 588.678 324.727 588.616 325.455L580.497 324.967L588.425 326.702C587.901 329.126 586.51 331.275 584.513 332.744H573.463V333.03H562.215C562.239 332.932 562.262 332.837 562.287 332.744C562.701 331.189 563.477 329.754 564.551 328.558C565.626 327.361 566.968 326.436 568.469 325.859C568.182 323.603 568.66 321.315 569.828 319.363C570.996 317.411 572.785 315.908 574.908 315.095C574.848 314.631 574.819 314.164 574.823 313.696L580.065 315.758L574.883 312.711C575.031 311.338 575.457 310.01 576.135 308.807C576.813 307.605 577.728 306.553 578.826 305.716L583.601 313.448L580.024 304.943C581.973 303.858 584.225 303.447 586.431 303.773C588.637 304.1 590.674 305.145 592.226 306.748C593.778 308.351 594.758 310.422 595.014 312.639C595.271 314.856 594.789 317.096 593.644 319.011L593.646 319.003Z" fill="#3A7BB8"/>
    <path opacity="0.1" d="M587.215 329.768C586.525 330.933 585.606 331.946 584.513 332.745H573.463V333.031H562.215C562.239 332.933 562.262 332.838 562.287 332.745C562.701 331.19 563.477 329.755 564.551 328.559C565.626 327.362 566.968 326.437 568.469 325.86C568.374 325.12 570.558 325.221 573.466 325.711C579.15 326.664 587.601 329.121 587.215 329.768Z" fill="#3A7BB8"/>
    <path d="M539.327 302.702C539.327 302.702 540.705 310.221 537.614 312.672C534.524 315.124 540.226 329.834 549.699 328.12C559.173 326.405 563.011 314.062 563.011 314.062C563.011 314.062 553.537 312.103 557.048 302.133L539.327 302.702Z" fill="#EFB7B9"/>
    <path opacity="0.1" d="M539.327 302.702C539.327 302.702 540.705 310.221 537.614 312.672C534.524 315.124 540.226 329.834 549.699 328.12C559.173 326.405 563.011 314.062 563.011 314.062C563.011 314.062 553.537 312.103 557.048 302.133L539.327 302.702Z" fill="black"/>
    <path d="M547.698 308.219C556.357 308.219 563.376 301.194 563.376 292.529C563.376 283.864 556.357 276.84 547.698 276.84C539.039 276.84 532.02 283.864 532.02 292.529C532.02 301.194 539.039 308.219 547.698 308.219Z" fill="#EFB7B9"/>
    <path d="M573.463 322.358V333.024H521.692V322.845C521.692 321.554 522.073 320.291 522.785 319.215C523.498 318.139 524.512 317.296 525.7 316.793L527.186 316.161C530.941 314.561 535.503 312.573 536.994 311.746C537.157 311.665 537.311 311.565 537.452 311.45C538.269 310.633 538.107 311.694 538.107 311.694C538.107 311.694 538.084 311.896 538.068 312.246C537.98 314.646 538.326 324.085 549.375 323.299C560.157 322.525 560.631 315.246 560.533 313.104C560.527 312.906 560.51 312.708 560.482 312.512C560.482 312.455 561.409 312.769 562.666 313.223C564.925 314.055 568.245 315.396 569.138 316.027C569.417 316.221 569.754 316.427 570.12 316.63C571.138 317.199 571.985 318.03 572.574 319.037C573.163 320.044 573.472 321.191 573.468 322.358H573.463Z" fill="#3A7BB8"/>
    <path opacity="0.1" d="M562.663 313.219C561.752 317.451 558.887 325.38 548.556 325.591C537.556 325.808 536.922 314.858 536.989 311.752C537.154 311.671 537.308 311.571 537.45 311.454C538.266 310.636 538.104 311.698 538.104 311.698C538.104 311.698 536.716 324.202 549.373 323.297C562.03 322.393 560.479 312.51 560.479 312.51C560.479 312.451 561.406 312.755 562.663 313.219Z" fill="black"/>
    <path d="M529.141 293.305C530.171 292.97 531.4 293.537 531.974 294.336C532.548 295.135 532.628 296.101 532.698 297.027C533.38 297.171 533.764 296.398 533.826 295.818C534.083 293.444 534.096 291.026 534.892 288.737C535.688 286.448 537.427 284.232 540.1 283.35C541.009 283.035 541.981 282.942 542.933 283.08C543.498 283.175 544.031 283.371 544.595 283.464C546.545 283.786 548.67 282.86 550.501 283.505C551.647 283.91 552.386 284.845 552.912 285.783C553.146 286.287 553.463 286.748 553.849 287.147C554.622 287.843 555.848 288.026 556.961 288.245C558.073 288.464 559.294 288.84 559.771 289.701C560.201 290.475 559.884 291.377 559.74 292.222C559.52 293.554 559.743 294.922 560.376 296.114C560.582 296.506 560.999 296.949 561.491 296.823C561.715 296.747 561.904 296.594 562.024 296.39C563.312 294.586 563.271 292.245 564.876 290.634C565.414 290.096 566.107 289.673 566.63 289.124C567.025 288.724 567.316 288.232 567.474 287.692C567.633 287.152 567.655 286.581 567.539 286.031C567.25 284.791 566.251 283.757 565.46 282.68C564.421 281.299 563.664 279.727 563.232 278.053C563.156 277.86 563.156 277.644 563.232 277.45C563.384 277.253 563.579 277.093 563.802 276.984C564.239 276.694 564.555 276.254 564.691 275.747C564.827 275.24 564.774 274.701 564.541 274.231C564.093 273.295 563.086 272.602 561.981 272.184C560.876 271.767 559.663 271.589 558.462 271.411C557.674 271.527 556.749 271.076 556.505 270.444C556.397 270.164 556.397 269.859 556.286 269.578C556.072 269.04 555.456 268.658 554.795 268.527C554.121 268.416 553.432 268.465 552.78 268.669C552.039 268.877 551.178 269.184 550.532 268.828C550.192 268.635 550.001 268.285 549.635 268.127C548.894 267.81 548.111 268.449 547.575 268.978C547.055 269.528 546.419 269.955 545.713 270.228C544.968 270.486 544.051 270.486 543.41 270.076C542.895 269.749 542.637 269.223 542.228 268.805C541.555 268.117 540.492 267.743 539.431 267.658C538.366 267.602 537.3 267.719 536.273 268.004C534.312 268.479 532.439 269.262 530.722 270.323C529.864 270.862 529.043 271.491 528.595 272.303C528.276 272.936 528.112 273.636 528.116 274.344C528.036 276.564 528.772 278.904 530.691 280.458C529.522 280.948 529.125 282.146 528.852 283.211C528.414 284.907 527.974 286.634 528.139 288.366C528.221 289.26 528.466 290.155 528.335 291.044C528.273 291.475 528.123 291.897 528.159 292.333C528.207 292.574 528.326 292.796 528.501 292.969C528.676 293.143 528.899 293.259 529.141 293.305Z" fill="#454B69"/>
    <g opacity="0.1">
    <path opacity="0.1" d="M403.34 186.613C402.896 187.574 402.298 188.454 401.569 189.221C400.223 190.656 398.391 191.761 396.984 193.175C392.79 197.379 392.878 203.517 389.532 208.22C389.218 208.751 388.723 209.15 388.138 209.345C386.852 209.675 385.761 208.516 385.223 207.492C384.569 206.247 384.078 204.922 383.762 203.551C383.69 203.892 383.623 204.236 383.56 204.582C382.984 208.063 383.569 211.638 385.223 214.755C385.761 215.779 386.852 216.938 388.138 216.608C388.723 216.41 389.218 216.008 389.532 215.476C392.898 210.76 392.79 204.642 396.984 200.431C398.391 199.023 400.203 197.918 401.569 196.483C402.603 195.438 403.362 194.152 403.777 192.741C404.192 191.33 404.25 189.838 403.946 188.399C403.802 187.785 403.599 187.187 403.34 186.613Z" fill="black"/>
    <path opacity="0.1" d="M394.191 157.524C393.607 157.806 393.097 158.222 392.703 158.737C392.504 159.244 392.504 159.807 392.703 160.314C393.091 161.841 393.588 163.338 394.191 164.794C395.347 164.029 396.181 162.865 396.532 161.524C396.884 160.182 396.728 158.758 396.096 157.524C395.906 157.123 395.681 156.74 395.423 156.379C395.072 156.82 394.657 157.207 394.191 157.524Z" fill="black"/>
    <path opacity="0.1" d="M307.612 166.605C304.139 163.732 301.85 159.677 301.182 155.219C301.008 156.107 300.909 157.009 300.886 157.914C300.67 162.195 301.8 166.436 304.117 170.041C304.822 168.506 306.065 167.283 307.612 166.605Z" fill="black"/>
    <path opacity="0.1" d="M383.56 197.319C383.937 195.109 384.765 192.758 383.641 190.73C382.395 188.48 379.211 187.49 376.296 186.924C373.381 186.358 370.196 185.873 368.163 184.054C367.153 183.011 366.324 181.806 365.712 180.49C364.366 178.037 362.407 175.591 359.411 174.534C354.624 172.849 349.07 175.268 343.973 174.426C342.499 174.183 341.105 173.671 339.631 173.422C337.144 173.051 334.604 173.282 332.225 174.096C325.237 176.4 320.693 182.181 318.612 188.177C316.532 194.173 316.485 200.479 315.825 206.684C315.663 208.2 314.66 210.221 312.876 209.844C312.694 207.425 312.472 204.899 310.984 202.81C309.497 200.722 306.319 199.233 303.579 200.115C302.749 199.928 302.014 199.45 301.505 198.768C301.599 199.664 301.585 200.569 301.465 201.463C301.303 202.588 300.913 203.693 301.007 204.831C301.13 205.463 301.44 206.043 301.896 206.497C302.352 206.951 302.933 207.258 303.565 207.378C306.258 206.502 309.47 207.984 310.971 210.073C312.472 212.162 312.681 214.688 312.863 217.107C314.647 217.484 315.65 215.463 315.812 213.947C316.485 207.742 316.518 201.422 318.599 195.44C320.679 189.457 325.223 183.663 332.212 181.359C334.588 180.534 337.128 180.291 339.617 180.651C341.092 180.9 342.485 181.413 343.96 181.655C349.056 182.497 354.611 180.079 359.397 181.763C362.393 182.821 364.325 185.266 365.699 187.719C366.311 189.035 367.139 190.24 368.149 191.283C370.169 193.102 373.374 193.58 376.282 194.153C379.191 194.725 382.146 195.642 383.479 197.73C383.513 197.616 383.533 197.467 383.56 197.319Z" fill="black"/>
    <path opacity="0.1" d="M301.478 194.264C301.636 192.434 301.527 190.591 301.155 188.793C300.867 190.69 300.804 192.614 300.967 194.526C301.007 195.018 301.074 195.503 301.142 195.995C301.222 195.416 301.371 194.843 301.478 194.264Z" fill="black"/>
    </g>
    <path d="M471.637 99.3711H167.962V314.924H471.637V99.3711Z" fill="white"/>
    <path opacity="0.1" d="M444.574 262.007C440.243 269.459 433.57 275.19 425.645 278.264C425.988 281.023 426.044 283.812 425.814 286.583L395.446 284.719L425.004 291.346C423.032 300.563 417.851 308.733 410.428 314.334H369.33V315.438H327.423C327.423 315.058 327.423 314.713 327.693 314.334C328.593 310.824 329.979 307.465 331.81 304.359C336.139 296.918 342.797 291.189 350.705 288.101C349.626 279.504 351.405 270.785 355.757 263.348C360.108 255.91 366.779 250.186 374.695 247.096C374.461 245.335 374.359 243.558 374.392 241.781L393.928 249.651L374.594 238.053C375.14 232.811 376.73 227.74 379.266 223.151C381.802 218.562 385.23 214.554 389.339 211.372L407.121 240.849L393.793 208.404C401.056 204.36 409.415 202.864 417.588 204.146C425.762 205.428 433.298 209.416 439.043 215.5C444.788 221.585 448.423 229.428 449.392 237.829C450.36 246.229 448.609 254.723 444.406 262.007H444.574Z" fill="#EB6565"/>
    <path opacity="0.1" d="M420.584 303.146C417.998 307.585 414.554 311.437 410.462 314.467H369.33V315.572H327.423C327.423 315.192 327.423 314.847 327.693 314.467C328.593 310.958 329.979 307.599 331.81 304.492C336.139 297.051 342.797 291.323 350.705 288.235C350.368 285.439 358.499 285.819 369.33 287.683C390.52 291.341 422.035 300.695 420.584 303.146Z" fill="#EB6565"/>
    <path opacity="0.1" d="M179.499 262.007C183.831 269.459 190.504 275.19 198.429 278.264C198.086 281.023 198.029 283.812 198.26 286.583L228.627 284.719L199.07 291.346C201.042 300.563 206.223 308.733 213.646 314.334H254.845V315.438H296.786C296.786 315.058 296.584 314.713 296.516 314.334C295.587 310.835 294.203 307.48 292.399 304.359C288.049 296.922 281.383 291.197 273.47 288.101C274.549 279.504 272.77 270.785 268.419 263.348C264.067 255.91 257.397 250.186 249.48 247.096C249.71 245.334 249.823 243.559 249.817 241.781L230.281 249.651L249.581 238.053C249.035 232.811 247.445 227.74 244.909 223.151C242.373 218.562 238.945 214.554 234.836 211.372L217.054 240.849L230.382 208.404C223.119 204.36 214.761 202.864 206.587 204.146C198.414 205.428 190.877 209.416 185.132 215.5C179.387 221.585 175.752 229.428 174.783 237.829C173.815 246.229 175.566 254.723 179.769 262.007H179.499Z" fill="#EB6565"/>
    <path opacity="0.1" d="M203.491 303.146C206.077 307.585 209.522 311.437 213.614 314.467H254.812V315.572H296.753C296.753 315.192 296.551 314.847 296.484 314.467C295.555 310.968 294.17 307.613 292.367 304.492C288.017 297.056 281.351 291.331 273.438 288.235C273.775 285.439 265.643 285.819 254.812 287.683C233.555 291.341 201.939 300.695 203.491 303.146Z" fill="#EB6565"/>
    <path d="M349.798 146.887H281.944V224.203H349.798V146.887Z" fill="#3D0C02"/>
    <path opacity="0.1" d="M349.798 146.887H281.944V224.203H349.798V146.887Z" fill="#EFB7B9"/>
    <path d="M253.022 294.935L251.638 315.023H271.006L272.221 288.48L253.022 294.935Z" fill="#EFB7B9"/>
    <path d="M355.06 294.935L352.124 315.023H369.872L370.986 288.48L355.06 294.935Z" fill="#EFB7B9"/>
    <path d="M298.88 185.549C298.88 185.549 298.205 195.593 295.843 198.216C293.481 200.84 316.932 224.069 335.389 201.116C335.389 201.116 327.459 194.212 329.315 186.481C331.171 178.749 298.88 185.549 298.88 185.549Z" fill="#EFB7B9"/>
    <path opacity="0.1" d="M298.88 185.549C298.88 185.549 298.205 195.593 295.843 198.216C293.481 200.84 316.932 224.069 335.389 201.116C335.389 201.116 327.459 194.212 329.315 186.481C331.171 178.749 298.88 185.549 298.88 185.549Z" fill="black"/>
    <path d="M315.851 194.536C334.598 194.536 349.796 178.99 349.796 159.813C349.796 140.636 334.598 125.09 315.851 125.09C297.105 125.09 281.907 140.636 281.907 159.813C281.907 178.99 297.105 194.536 315.851 194.536Z" fill="#EFB7B9"/>
    <path d="M314.096 207.097C314.096 207.097 299.857 206.855 297.731 193.566C294.91 196.061 291.934 198.367 288.823 200.47C287.44 200.953 273.842 208.823 271.277 209.306C268.769 209.826 266.441 211.017 264.529 212.757C261.175 215.453 258.433 218.861 256.494 222.747C254.554 226.632 253.461 230.902 253.293 235.262C252.821 250.829 250.965 281.237 250.965 281.237L251.673 292.248V299.427C251.673 299.427 264.293 302.879 271.918 295.976C271.918 295.976 271.918 293.353 273.336 292.524C274.753 291.696 274.955 288.209 274.719 286.76C274.598 284.61 274.598 282.455 274.719 280.305C274.963 281.474 275.641 282.501 276.609 283.17C277.169 285.118 277.33 287.162 277.081 289.176C276.372 290.591 275.664 293.939 276.372 294.664C276.73 295.305 276.877 296.047 276.792 296.78C276.707 297.513 276.394 298.199 275.9 298.737C274.613 300.58 273.59 302.603 272.863 304.743C272.863 304.743 272.155 309.023 271.446 309.506C270.647 311.257 270.102 313.117 269.826 315.028H354.181C352.692 310.657 351.564 306.166 350.807 301.602C351.043 299.462 348.715 290.591 350.334 288.21C352.719 285.053 354.034 281.188 354.08 277.199L355.024 286.518L352.46 307.228C352.46 307.228 368.116 312.267 369.769 309.126C371.52 303.661 372.851 298.063 373.751 292.386C373.751 292.386 377.496 275.128 378.441 272.746C379.386 270.365 381.478 222.491 368.825 215.553C356.172 208.615 332.316 196.673 331.709 197.26C330.359 200.746 327.858 203.638 324.641 205.435C321.423 207.232 317.692 207.82 314.096 207.097Z" fill="#EB6565"/>
    <path opacity="0.1" d="M273.44 253.891C271.029 257.418 269.994 261.738 270.538 266.006C271.105 270.232 272.457 274.309 274.519 278.018" stroke="black" stroke-miterlimit="10"/>
    <path opacity="0.1" d="M355.396 257.184C356.002 258.939 356.476 260.739 356.814 262.568C357.42 264.854 357.535 267.247 357.151 269.583C356.766 271.919 355.891 274.142 354.587 276.099" stroke="black" stroke-miterlimit="10"/>
    <path d="M300.666 136.066C303.32 135.342 306.14 135.636 308.596 136.895C311.011 138.169 313.542 139.198 316.154 139.967C317.908 140.346 319.528 140.346 321.485 140.622C324.744 141.228 327.751 142.817 330.121 145.185C332.49 147.553 334.112 150.592 334.779 153.911C336.298 162.402 331.405 170.755 331.405 179.418C331.424 184.376 333.13 189.172 336.23 192.983C338.832 195.41 341.102 198.185 342.978 201.232C343.957 203.441 344.159 205.961 345.104 208.136C347.168 212.045 350.586 215.024 354.687 216.488C358.753 217.886 362.675 219.689 366.395 221.873C373.144 226.464 377.125 235.265 384.953 237.163C385.342 237.335 385.761 237.424 386.185 237.424C386.608 237.424 387.027 237.335 387.416 237.163C387.772 236.874 388.06 236.507 388.258 236.089C388.457 235.671 388.561 235.212 388.564 234.747C388.758 233.058 388.577 231.345 388.034 229.737C387.49 228.13 386.599 226.668 385.426 225.463C383.502 223.495 380.702 222.011 380.094 219.353C379.487 216.696 381.107 214.418 381.984 212.001C384.784 204.166 380.128 195.641 374.831 189.29C369.533 182.939 363.19 176.657 361.908 168.58C361.604 165.854 361.503 163.108 361.604 160.365C361.506 154.714 360.55 149.113 358.77 143.763C357.914 140.872 356.541 138.168 354.721 135.79C353.034 133.719 350.874 132.131 349.119 130.129C346.789 126.835 344.691 123.375 342.844 119.775C340.162 115.508 336.499 111.978 332.176 109.493C327.853 107.008 323.001 105.644 318.043 105.52C308.562 105.52 299.587 109.8 291.556 114.942C288.603 116.591 286.044 118.89 284.066 121.673C280.691 127.161 281.704 134.409 279.746 140.622C277.789 146.835 273.167 151.426 271.547 157.501C271.049 159.286 270.968 161.166 271.311 162.989C271.913 164.912 272.717 166.764 273.707 168.511C275.499 172.955 276.515 177.687 276.71 182.49C277.216 188.289 277.452 194.536 274.483 199.472C272.178 202.464 269.31 204.953 266.047 206.789C269.356 209.536 273.578 210.86 277.823 210.483C284.234 210.759 291.657 210.483 295.639 205.305C298.022 201.588 298.982 197.103 298.338 192.707C298.023 187.903 297.07 183.165 295.504 178.624C293.311 172.239 289.936 166.199 288.958 159.502C288.574 157.087 288.676 154.618 289.256 152.244C289.836 149.87 290.883 147.642 292.332 145.696C293.547 144.143 295.706 143.349 296.719 141.692C298.001 139.483 297.63 137.171 300.666 136.066Z" fill="#3D0C02"/>
    <g opacity="0.1">
    <path opacity="0.1" d="M273.707 168.057C275.499 172.501 276.515 177.232 276.71 182.036C276.71 183.555 276.946 185.108 276.98 186.661C277.334 183.288 277.334 179.886 276.98 176.513C276.773 171.767 275.756 167.095 273.976 162.707C273.006 160.961 272.204 159.123 271.581 157.219C271.082 158.992 271.001 160.861 271.345 162.672C271.945 164.547 272.737 166.352 273.707 168.057Z" fill="#3D0C02"/>
    <path opacity="0.1" d="M295.943 199.892C291.961 205.035 284.538 205.345 278.127 205.104C275.415 205.113 272.718 204.694 270.13 203.861C268.848 204.931 267.465 205.932 266.115 206.899C269.424 209.645 273.646 210.969 277.891 210.592C284.302 210.868 291.725 210.592 295.706 205.414C297.988 201.962 298.971 197.781 298.473 193.645C298.174 195.916 297.302 198.069 295.943 199.892Z" fill="#3D0C02"/>
    <path opacity="0.1" d="M380.33 213.674C380.424 214.068 380.56 214.45 380.735 214.813C381.14 213.847 381.612 212.845 381.983 211.845C382.793 209.571 383.025 207.125 382.658 204.734C382.543 205.284 382.397 205.825 382.22 206.357C381.342 208.773 379.756 211.189 380.33 213.674Z" fill="#3D0C02"/>
    <path opacity="0.1" d="M334.98 155.569C335.368 153.204 335.368 150.789 334.98 148.424C334.317 145.103 332.696 142.062 330.326 139.693C327.956 137.324 324.947 135.736 321.686 135.135C319.897 134.825 318.109 134.825 316.354 134.48C313.748 133.696 311.218 132.668 308.796 131.408C306.345 130.138 303.525 129.831 300.867 130.545C297.83 131.649 298.202 133.996 296.852 136.274C295.873 137.931 293.68 138.76 292.466 140.278C289.791 143.927 288.584 148.484 289.091 153.015C289.514 150.374 290.595 147.89 292.229 145.801C293.444 144.248 295.604 143.454 296.616 141.797C297.965 139.484 297.594 137.172 300.631 136.067C303.284 135.343 306.105 135.638 308.56 136.896C310.975 138.17 313.507 139.199 316.118 139.968C317.873 140.347 319.492 140.347 321.449 140.623C324.709 141.229 327.716 142.818 330.085 145.186C332.454 147.554 334.077 150.593 334.744 153.912C334.856 154.459 334.935 155.012 334.98 155.569Z" fill="#3D0C02"/>
    <path opacity="0.1" d="M387.52 231.527C386.728 231.844 385.849 231.844 385.057 231.527C377.229 229.628 373.18 220.827 366.499 216.236C362.764 214.08 358.845 212.278 354.79 210.852C350.692 209.402 347.273 206.434 345.208 202.533C344.263 200.29 344.061 197.805 343.082 195.63C341.204 192.584 338.934 189.809 336.334 187.381C333.522 183.957 331.824 179.723 331.475 175.266C331.273 176.602 331.172 177.952 331.171 179.304C331.232 184.328 333.024 189.168 336.232 192.972C338.834 195.399 341.104 198.174 342.981 201.222C343.959 203.431 344.162 205.95 345.107 208.125C347.17 212.034 350.588 215.014 354.689 216.478C358.755 217.875 362.677 219.679 366.398 221.862C373.146 226.453 377.127 235.254 384.956 237.153C385.344 237.325 385.763 237.413 386.187 237.413C386.611 237.413 387.03 237.325 387.419 237.153C387.773 236.862 388.059 236.494 388.258 236.076C388.456 235.659 388.561 235.201 388.566 234.737C388.718 233.434 388.65 232.115 388.363 230.836C388.147 231.139 387.856 231.378 387.52 231.527Z" fill="#3D0C02"/>
    </g>
    <path opacity="0.1" d="M242.328 115.23H198.935V178.636H242.328V115.23Z" fill="#EB6565"/>
    <path opacity="0.1" d="M236.121 124.277H205.146V169.563H236.121V124.277Z" fill="#EB6565"/>
    <path opacity="0.1" d="M456.114 124.746H384.852V162.782H456.114V124.746Z" fill="#EB6565"/>
    <path opacity="0.1" d="M446.836 129.711H394.165V157.842H446.836V129.711Z" fill="#EB6565"/>
    </g>
    <defs>
    <clipPath id="clip0">
    <rect width="778" height="470" fill="white"/>
    </clipPath>
    </defs>
</svg>