<svg width="389" height="244" viewBox="0 0 389 244" fill="none" xmlns="http://www.w3.org/2000/svg">
<g clip-path="url(#clip0)">
<path d="M328.444 169.447C328.041 169.048 327.741 168.574 327.564 168.059C327.388 167.545 327.339 167.001 327.422 166.468C327.504 165.934 327.716 165.424 328.043 164.972C328.369 164.52 328.802 164.137 329.311 163.852L326.055 151.09L333.158 153.474L335.161 165.227C335.639 166.026 335.774 166.954 335.54 167.837C335.306 168.719 334.72 169.493 333.892 170.013C333.064 170.534 332.052 170.763 331.048 170.659C330.044 170.554 329.118 170.123 328.444 169.447Z" fill="#FFB8B8"/>
<path d="M327.953 159.318L321.709 148.488L322.553 121.219L322.954 121.977C323.422 122.861 334.377 143.667 333.596 150.633L334.848 156.998L327.953 159.318Z" fill="#3F3D56"/>
<path d="M323.882 239.352H328.889L331.27 222.027L323.881 222.028L323.882 239.352Z" fill="#FFB8B8"/>
<path d="M322.604 237.887L332.465 237.887H332.465C334.132 237.887 335.73 238.481 336.908 239.538C338.087 240.595 338.749 242.029 338.749 243.523V243.707L322.605 243.707L322.604 237.887Z" fill="#2F2E41"/>
<path d="M274.411 235.937L279.235 237.141L286.704 221.022L279.585 219.246L274.411 235.937Z" fill="#FFB8B8"/>
<path d="M273.619 234.219L283.119 236.588L283.119 236.589C284.725 236.989 286.087 237.945 286.907 239.247C287.726 240.549 287.936 242.089 287.49 243.529L287.435 243.706L271.881 239.826L273.619 234.219Z" fill="#2F2E41"/>
<path d="M318.889 232.596L308.785 167.692L286.96 232.229L269.8 226.972L294.395 140.555L294.557 140.545L320.322 138.938L338.937 227.35L318.889 232.596Z" fill="#2F2E41"/>
<path d="M316.217 109.976C316.217 109.976 306.824 105.58 294.164 107.411C294.164 107.411 287.426 121.995 294.164 127.801L296.002 142.399C296.002 142.399 313.154 151.558 318.872 140.934L318.055 128.844C318.055 128.844 322.139 123.045 318.872 118.8C316.913 116.207 315.979 113.101 316.217 109.976Z" fill="#EB6565"/>
<path d="M317.407 176.376L319.056 145.687L314.39 109.178L314.604 109.149C320.725 108.321 322.688 117.78 322.768 118.183L333.422 172.218L317.407 176.376Z" fill="#3F3D56"/>
<path d="M296.637 176.694L277.803 174.817L277.808 174.632C277.875 172.131 279.496 113.322 284.038 109.157C288.607 104.968 297.229 106.78 297.594 106.86L297.776 106.899L296.226 131.784L296.637 176.694Z" fill="#3F3D56"/>
<path d="M300.106 141.546C299.535 141.714 298.931 141.768 298.335 141.704C297.739 141.639 297.166 141.459 296.656 141.174C296.146 140.889 295.712 140.508 295.384 140.057C295.057 139.606 294.843 139.095 294.759 138.562L280.438 136.045L285.752 131.191L298.537 134.326C299.545 134.258 300.546 134.525 301.349 135.075C302.153 135.626 302.703 136.421 302.897 137.311C303.09 138.201 302.913 139.124 302.398 139.904C301.884 140.685 301.068 141.269 300.106 141.546Z" fill="#FFB8B8"/>
<path d="M292.463 138.6L287.797 137.7C280.908 139.559 268.883 133.016 264.023 130.109C263.109 129.562 262.812 128.479 263.141 126.889C263.628 124.666 264.994 122.675 266.988 121.284L284.105 109.109L288.425 108.461L289.708 114.984L278.803 125.492L294.856 133.331L292.463 138.6Z" fill="#3F3D56"/>
<path d="M290.618 101.887V93.4278C290.618 89.8489 292.202 86.4166 295.023 83.886C297.844 81.3553 301.67 79.9336 305.66 79.9336C309.649 79.9336 313.475 81.3553 316.296 83.886C319.117 86.4166 320.702 89.8489 320.702 93.4278V101.887C320.701 102.367 320.488 102.828 320.11 103.168C319.731 103.508 319.217 103.699 318.681 103.7H292.638C292.103 103.699 291.589 103.508 291.21 103.168C290.831 102.828 290.618 102.367 290.618 101.887Z" fill="#2F2E41"/>
<path d="M305.055 103.615C311.146 103.615 316.084 99.1857 316.084 93.7216C316.084 88.2576 311.146 83.8281 305.055 83.8281C298.964 83.8281 294.027 88.2576 294.027 93.7216C294.027 99.1857 298.964 103.615 305.055 103.615Z" fill="#FFB8B8"/>
<path d="M293.724 93.6868C293.619 93.5777 293.541 93.4495 293.495 93.311C293.45 93.1725 293.438 93.0268 293.461 92.8839L294.768 84.723C294.794 84.557 294.865 84.3993 294.976 84.2644C295.087 84.1294 295.234 84.0214 295.403 83.95C302.071 81.1504 308.833 81.1469 315.501 83.9394C315.678 84.0146 315.83 84.1298 315.943 84.2735C316.055 84.4173 316.124 84.5848 316.143 84.7596L317.015 92.9311C317.03 93.0708 317.012 93.2118 316.962 93.345C316.913 93.4782 316.833 93.6006 316.728 93.7045C316.623 93.8083 316.494 93.8913 316.351 93.9481C316.208 94.0049 316.054 94.0342 315.897 94.0341H313.685C313.472 94.0337 313.263 93.9788 313.083 93.876C312.903 93.7731 312.759 93.6265 312.668 93.4531L311.714 91.6184C311.652 91.4996 311.549 91.4021 311.42 91.3405C311.291 91.2789 311.143 91.2566 310.999 91.277C310.854 91.2974 310.721 91.3593 310.62 91.4535C310.518 91.5476 310.453 91.6689 310.435 91.799L310.247 93.1518C310.212 93.3953 310.08 93.6192 309.875 93.7816C309.67 93.944 309.406 94.0338 309.133 94.0341H294.573C294.412 94.0342 294.253 94.0032 294.106 93.9432C293.96 93.8833 293.83 93.7958 293.724 93.6868Z" fill="#2F2E41"/>
<path d="M247.41 16.2578H0V154.468H247.41V16.2578Z" fill="#E6E6E6"/>
<path d="M61.904 42.8867H16.5908V69.3094H61.904V42.8867Z" fill="white"/>
<path d="M118.209 42.8867H72.896V69.3094H118.209V42.8867Z" fill="white"/>
<path d="M174.514 42.8867H129.201V69.3094H174.514V42.8867Z" fill="white"/>
<path d="M230.819 42.8867H185.506V69.3094H230.819V42.8867Z" fill="white"/>
<path d="M61.904 80.2852H16.5908V106.708H61.904V80.2852Z" fill="white"/>
<path d="M118.209 80.2852H72.896V106.708H118.209V80.2852Z" fill="white"/>
<path d="M174.514 80.2852H129.201V106.708H174.514V80.2852Z" fill="white"/>
<path d="M230.819 80.2852H185.506V106.708H230.819V80.2852Z" fill="white"/>
<path d="M61.904 117.68H16.5908V144.102H61.904V117.68Z" fill="white"/>
<path d="M118.209 117.68H72.896V144.102H118.209V117.68Z" fill="white"/>
<path d="M174.514 117.68H129.201V144.102H174.514V117.68Z" fill="white"/>
<path d="M230.819 117.68H185.506V144.102H230.819V117.68Z" fill="white"/>
<path d="M64.798 32.5193C68.5518 32.5193 71.5949 29.7893 71.5949 26.4217C71.5949 23.0542 68.5518 20.3242 64.798 20.3242C61.0441 20.3242 58.001 23.0542 58.001 26.4217C58.001 29.7893 61.0441 32.5193 64.798 32.5193Z" fill="white"/>
<path d="M177.175 32.5193C180.929 32.5193 183.972 29.7893 183.972 26.4217C183.972 23.0542 180.929 20.3242 177.175 20.3242C173.421 20.3242 170.378 23.0542 170.378 26.4217C170.378 29.7893 173.421 32.5193 177.175 32.5193Z" fill="white"/>
<path d="M67.5167 0H62.0791V28.0486H67.5167V0Z" fill="#E6E6E6"/>
<path d="M179.893 0H174.456V28.0486H179.893V0Z" fill="#E6E6E6"/>
<path d="M218.41 56.0972C218.407 58.3047 217.517 60.4374 215.902 62.1032C214.288 63.7691 212.057 64.8563 209.621 65.1651C207.184 65.4738 204.705 64.9835 202.64 63.784C200.574 62.5846 199.06 60.7566 198.376 58.6361C197.692 56.5155 197.884 54.2448 198.917 52.2412C199.95 50.2375 201.754 48.6355 203.998 47.7295C206.242 46.8235 208.775 46.6743 211.131 47.3095C213.488 47.9446 215.51 49.3214 216.826 51.1868C217.862 52.6558 218.412 54.3588 218.41 56.0972Z" fill="#EB6565"/>
<path d="M216.826 51.1852L206.739 60.2323C206.105 59.3518 202.573 55.26 202.573 55.26C203.026 54.8496 203.509 54.4671 204.019 54.1151L206.948 57.6183L215.645 49.8164C216.086 50.2382 216.481 50.6965 216.826 51.1852Z" fill="white"/>
<path d="M105.799 93.4957C105.797 95.7032 104.907 97.8358 103.292 99.5016C101.678 101.167 99.4471 102.255 97.0106 102.563C94.574 102.872 92.0951 102.382 90.0293 101.182C87.9635 99.983 86.4496 98.155 85.7657 96.0345C85.0818 93.914 85.2739 91.6432 86.3067 89.6396C87.3396 87.6359 89.1437 86.0339 91.3876 85.1279C93.6316 84.2219 96.1646 84.0728 98.5213 84.7079C100.878 85.3431 102.9 86.7198 104.216 88.5852C105.252 90.0542 105.801 91.7572 105.799 93.4957Z" fill="#EB6565"/>
<path d="M104.216 88.5837L94.1291 97.6308C93.4951 96.7503 89.9633 92.6585 89.9633 92.6585C90.4159 92.2481 90.8989 91.8656 91.409 91.5136L94.3378 95.0168L103.035 87.2148C103.476 87.6366 103.871 88.095 104.216 88.5837Z" fill="white"/>
<path d="M49.4944 93.4957C49.4921 95.7032 48.6018 97.8358 46.9872 99.5017C45.3726 101.168 43.142 102.255 40.7055 102.564C38.2689 102.872 35.79 102.382 33.7242 101.182C31.6584 99.9831 30.1444 98.1551 29.4605 96.0346C28.7767 93.914 28.9688 91.6433 30.0016 89.6396C31.0344 87.6359 32.8385 86.0339 35.0825 85.1279C37.3264 84.2219 39.8595 84.0728 42.2162 84.7079C44.5729 85.3431 46.5949 86.7198 47.9108 88.5852C48.947 90.0542 49.4962 91.7573 49.4944 93.4957Z" fill="#EB6565"/>
<path d="M47.9108 88.5837L37.8241 97.6308C37.1901 96.7503 33.6582 92.6585 33.6582 92.6585C34.1108 92.2481 34.5939 91.8656 35.104 91.5136L38.0327 95.0168L46.7296 87.2148C47.1707 87.6366 47.5661 88.095 47.9108 88.5837Z" fill="white"/>
<path d="M388.551 244.001H217.474C217.355 244.001 217.241 243.958 217.157 243.883C217.073 243.807 217.025 243.705 217.025 243.598C217.025 243.491 217.073 243.389 217.157 243.313C217.241 243.238 217.355 243.195 217.474 243.195H388.551C388.67 243.195 388.784 243.238 388.868 243.313C388.953 243.389 389 243.491 389 243.598C389 243.705 388.953 243.807 388.868 243.883C388.784 243.958 388.67 244.001 388.551 244.001Z" fill="#3F3D56"/>
</g>
<defs>
<clipPath id="clip0">
<rect width="389" height="244" fill="white"/>
</clipPath>
</defs>
</svg>
