<svg width="190" height="142" viewBox="0 0 190 142" fill="none" xmlns="http://www.w3.org/2000/svg">
<g clip-path="url(#clip0)">
<path opacity="0.1" d="M19.1124 14.2217C17.9299 14.7144 16.7162 15.3469 16.0664 16.4557C15.3781 17.6269 15.4605 19.0813 15.5886 20.4364C16.7053 32.1893 19.6469 44.6887 14.5672 55.3347C12.1014 60.4996 7.9772 64.6385 4.69686 69.329C1.41651 74.0195 -1.06022 79.8757 0.462798 85.3936C2.32264 92.1361 9.26408 95.8741 13.943 101.063C17.0055 104.455 19.1527 108.578 22.0102 112.146C24.8677 115.715 28.7832 118.86 33.3449 119.069C39.9056 119.373 45.2435 113.682 51.6761 112.363C58.266 111.014 64.9018 114.449 70.2451 118.56C75.5885 122.671 80.4486 127.652 86.6743 130.219C93.5499 133.056 101.3 132.622 108.538 134.327C115.128 135.88 121.195 139.184 127.737 140.946C134.28 142.707 141.948 142.601 147.017 138.101C153.623 132.218 153.103 121.737 157.323 113.954C161.242 106.722 168.914 102.405 174.078 96.012C183.369 84.5055 183.066 66.9185 175.176 54.4043C167.286 41.8902 152.995 34.313 138.382 32.3401C131.792 31.452 125.006 31.5734 118.67 29.5526C101.712 24.1469 91.6205 4.77816 74.3071 0.747751C63.3019 -1.80986 52.5987 2.61953 43.2244 8.07124C35.0876 12.804 27.5805 10.6932 19.1124 14.2217Z" fill="#EB6565"/>
<path d="M35.6371 52.1875C35.6371 52.1875 29.3894 58.1099 22.6841 58.2864C19.8684 58.3427 17.1468 59.315 14.9281 61.0573C13.8793 61.8901 12.9088 62.8176 12.0285 63.8282" stroke="#535461" stroke-width="2" stroke-miterlimit="10"/>
<path d="M7.80005 63.9725C8.70068 63.5128 12.1385 63.8181 12.1385 63.8181C12.1385 63.8181 10.3555 66.7876 9.45487 67.2472C9.23917 67.3757 8.99951 67.4582 8.75074 67.4898C8.50197 67.5213 8.2494 67.5012 8.00869 67.4307C7.76798 67.3601 7.54426 67.2407 7.35141 67.0797C7.15857 66.9187 7.00071 66.7196 6.88762 66.4949C6.77452 66.2701 6.70861 66.0243 6.69398 65.7729C6.67934 65.5215 6.71629 65.2697 6.80253 65.0332C6.88877 64.7967 7.02246 64.5805 7.19531 64.3981C7.36816 64.2156 7.57649 64.0708 7.80738 63.9725H7.80005Z" fill="#EB6565"/>
<path d="M11.4189 58.7259C12.4239 58.8326 15.1441 60.9655 15.1441 60.9655C15.1441 60.9655 12.0322 62.4842 11.0363 62.3794C10.5704 62.3087 10.1496 62.0603 9.86146 61.6858C9.57331 61.3113 9.44001 60.8397 9.4893 60.369C9.53859 59.8983 9.76667 59.4649 10.1261 59.1588C10.4855 58.8528 10.9486 58.6977 11.4189 58.7259Z" fill="#EB6565"/>
<path d="M20.0005 54.4922C20.8133 55.0935 22.091 58.3148 22.091 58.3148C22.091 58.3148 18.6478 58.0519 17.835 57.4525C17.4687 57.1552 17.2305 56.7275 17.17 56.2584C17.1095 55.7893 17.2314 55.3148 17.5103 54.9336C17.7891 54.5523 18.2035 54.2938 18.6673 54.2116C19.1311 54.1294 19.6086 54.2299 20.0005 54.4922Z" fill="#EB6565"/>
<path d="M27.2111 52.7633C28.1136 53.2174 29.9149 56.1759 29.9149 56.1759C29.9149 56.1759 26.4771 56.5013 25.5746 56.0472C25.3469 55.9473 25.1419 55.8019 24.9719 55.6199C24.8019 55.4378 24.6707 55.2229 24.586 54.9883C24.5014 54.7536 24.4653 54.5041 24.4797 54.255C24.4942 54.0059 24.559 53.7623 24.6702 53.5391C24.7815 53.3159 24.9367 53.1178 25.1266 52.9569C25.3165 52.7959 25.537 52.6755 25.7748 52.6029C26.0125 52.5303 26.2624 52.5071 26.5094 52.5347C26.7563 52.5623 26.9951 52.64 27.2111 52.7633Z" fill="#EB6565"/>
<path d="M17.0571 64.311C17.3573 63.3421 16.4786 59.9883 16.4786 59.9883C16.4786 59.9883 13.8646 62.2535 13.5644 63.2225C13.4798 63.4564 13.4433 63.7051 13.4572 63.9536C13.4711 64.202 13.5351 64.445 13.6452 64.6679C13.7554 64.8908 13.9094 65.0889 14.098 65.2502C14.2866 65.4116 14.5058 65.5328 14.7424 65.6065C14.979 65.6803 15.2281 65.705 15.4745 65.6792C15.7209 65.6535 15.9595 65.5777 16.1759 65.4566C16.3923 65.3355 16.582 65.1715 16.7335 64.9746C16.8849 64.7777 16.995 64.5519 17.0571 64.311Z" fill="#EB6565"/>
<path d="M25.4648 62.1722C25.4648 61.1572 23.6251 58.2227 23.6251 58.2227C23.6251 58.2227 21.8055 61.1646 21.8074 62.1832C21.8088 62.6709 22.0031 63.138 22.3474 63.4818C22.6917 63.8256 23.1579 64.0179 23.6434 64.0164C24.1289 64.0149 24.5939 63.8198 24.9362 63.474C25.2785 63.1281 25.4699 62.6598 25.4685 62.1722H25.4648Z" fill="#EB6565"/>
<path d="M33.3526 58.9824C33.521 57.9822 32.203 54.7773 32.203 54.7773C32.203 54.7773 29.913 57.3736 29.7464 58.3738C29.6902 58.8431 29.816 59.3161 30.0977 59.6946C30.3795 60.0732 30.7956 60.3282 31.2596 60.4068C31.7236 60.4853 32.2 60.3814 32.5897 60.1165C32.9794 59.8516 33.2526 59.4461 33.3526 58.9843V58.9824Z" fill="#EB6565"/>
<path d="M43.7555 36.5058C43.7555 36.5058 36.2301 32.3541 33.9932 25.994C33.0742 23.3196 31.3161 21.0169 28.983 19.4318C27.8696 18.6876 26.6907 18.0475 25.461 17.5195" stroke="#535461" stroke-width="2" stroke-miterlimit="10"/>
<path d="M24.0333 13.5154C24.7454 14.2343 25.5124 17.6156 25.5124 17.6156C25.5124 17.6156 22.1515 16.825 21.4394 16.1042C21.125 15.7535 20.9568 15.2947 20.9699 14.8228C20.9829 14.351 21.1761 13.9023 21.5095 13.5696C21.8428 13.2369 22.2908 13.0457 22.7606 13.0356C23.2304 13.0255 23.6861 13.1973 24.0333 13.5154Z" fill="#EB6565"/>
<path d="M30.1199 15.3637C30.3286 16.3566 29.1442 19.6129 29.1442 19.6129C29.1442 19.6129 26.7517 17.1141 26.543 16.1194C26.4811 15.8788 26.4683 15.6281 26.5055 15.3825C26.5427 15.1368 26.6291 14.9013 26.7595 14.6901C26.8898 14.4789 27.0614 14.2965 27.2639 14.1538C27.4665 14.0111 27.6957 13.9111 27.9377 13.8598C28.1798 13.8086 28.4297 13.8072 28.6723 13.8556C28.915 13.9041 29.1453 14.0015 29.3494 14.1419C29.5535 14.2822 29.7272 14.4627 29.8599 14.6724C29.9927 14.8821 30.0817 15.1166 30.1217 15.3618L30.1199 15.3637Z" fill="#EB6565"/>
<path d="M36.7647 22.2722C36.4462 23.2339 33.7864 25.4458 33.7864 25.4458C33.7864 25.4458 32.9773 22.0755 33.2958 21.112C33.449 20.6488 33.7791 20.2656 34.2136 20.0468C34.648 19.828 35.1512 19.7915 35.6124 19.9454C36.0736 20.0992 36.4551 20.4308 36.6729 20.8672C36.8907 21.3036 36.9271 21.809 36.7739 22.2722H36.7647Z" fill="#EB6565"/>
<path d="M40.6236 28.6262C40.4717 29.6283 38.2219 32.2595 38.2219 32.2595C38.2219 32.2595 36.8563 29.0748 37.0083 28.0728C37.0336 27.8251 37.1087 27.5852 37.2291 27.3676C37.3494 27.15 37.5126 26.9592 37.7085 26.8067C37.9045 26.6543 38.1293 26.5435 38.3692 26.4809C38.6091 26.4183 38.8591 26.4053 39.1041 26.4427C39.3492 26.4801 39.5841 26.5671 39.7947 26.6984C40.0053 26.8297 40.1871 27.0026 40.3292 27.2066C40.4713 27.4106 40.5706 27.6414 40.6212 27.8851C40.6718 28.1288 40.6726 28.3803 40.6236 28.6244V28.6262Z" fill="#EB6565"/>
<path d="M26.5576 22.4706C27.5681 22.4596 30.475 20.5878 30.475 20.5878C30.475 20.5878 27.526 18.7859 26.5155 18.7969C26.03 18.8025 25.5666 19.0016 25.2273 19.3504C24.8879 19.6992 24.7004 20.1691 24.706 20.6568C24.7116 21.1444 24.9098 21.6099 25.257 21.9507C25.6043 22.2916 26.0721 22.4799 26.5576 22.4743V22.4706Z" fill="#EB6565"/>
<path d="M31.1633 29.8517C32.1225 29.5372 34.3393 26.8785 34.3393 26.8785C34.3393 26.8785 30.9876 26.0456 30.0284 26.36C29.7917 26.4278 29.571 26.5429 29.3796 26.6984C29.1882 26.8539 29.03 27.0466 28.9145 27.2649C28.7989 27.4832 28.7284 27.7227 28.7071 27.969C28.6858 28.2153 28.7141 28.4634 28.7905 28.6985C28.8669 28.9335 28.9896 29.1507 29.1515 29.337C29.3133 29.5233 29.5109 29.6749 29.7324 29.7827C29.954 29.8905 30.1948 29.9524 30.4407 29.9645C30.6866 29.9767 30.9323 29.9389 31.1633 29.8535V29.8517Z" fill="#EB6565"/>
<path d="M36.6182 36.4059C37.6177 36.2588 40.2501 34.0156 40.2501 34.0156C40.2501 34.0156 37.0869 32.6255 36.0892 32.7726C35.8435 32.7981 35.6055 32.8732 35.3894 32.9935C35.1734 33.1137 34.9838 33.2767 34.8321 33.4725C34.6805 33.6683 34.5698 33.893 34.5068 34.1329C34.4439 34.3728 34.4299 34.623 34.4657 34.8685C34.5016 35.114 34.5865 35.3496 34.7154 35.5612C34.8443 35.7729 35.0146 35.9561 35.2159 36.0999C35.4171 36.2437 35.6453 36.3451 35.8866 36.398C36.128 36.4509 36.3775 36.4542 36.6201 36.4077L36.6182 36.4059Z" fill="#EB6565"/>
<path d="M95.5437 137.242C132.141 137.242 161.81 107.442 161.81 70.6816C161.81 33.9212 132.141 4.12109 95.5437 4.12109C58.9461 4.12109 29.2778 33.9212 29.2778 70.6816C29.2778 107.442 58.9461 137.242 95.5437 137.242Z" fill="url(#paint0_linear)"/>
<path d="M95.5437 136.137C131.535 136.137 160.711 106.831 160.711 70.6799C160.711 34.5289 131.535 5.22266 95.5437 5.22266C59.5527 5.22266 30.3762 34.5289 30.3762 70.6799C30.3762 106.831 59.5527 136.137 95.5437 136.137Z" fill="#EB6565"/>
<path d="M95.5437 122.714C124.155 122.714 147.348 99.4174 147.348 70.6794C147.348 41.9413 124.155 18.6445 95.5437 18.6445C66.9329 18.6445 43.7392 41.9413 43.7392 70.6794C43.7392 99.4174 66.9329 122.714 95.5437 122.714Z" fill="#DDE1EC"/>
<path opacity="0.3" d="M97.0082 27.8398H94.0793V73.807H97.0082V27.8398Z" fill="#535461"/>
<g opacity="0.1">
<path opacity="0.1" d="M140.026 69.5742H98.6557V73.2516H140.026V69.5742Z" fill="black"/>
<path opacity="0.1" d="M69.4477 55.8165L67.7493 59.0742L93.78 72.7665L95.4784 69.5088L69.4477 55.8165Z" fill="black"/>
<path opacity="0.1" d="M95.5438 76.9305C98.5768 76.9305 101.035 74.4609 101.035 71.4145C101.035 68.3681 98.5768 65.8984 95.5438 65.8984C92.5109 65.8984 90.0522 68.3681 90.0522 71.4145C90.0522 74.4609 92.5109 76.9305 95.5438 76.9305Z" fill="black"/>
</g>
<path d="M140.026 68.8438H98.6556V72.5211H140.026V68.8438Z" fill="#535461"/>
<path d="M95.4905 68.7821L69.4598 55.0898L67.7613 58.3476L93.7921 72.0398L95.4905 68.7821Z" fill="#535461"/>
<path d="M95.5437 76.1962C98.5767 76.1962 101.035 73.7266 101.035 70.6801C101.035 67.6337 98.5767 65.1641 95.5437 65.1641C92.5108 65.1641 90.0521 67.6337 90.0521 70.6801C90.0521 73.7266 92.5108 76.1962 95.5437 76.1962Z" fill="#535461"/>
<g opacity="0.1">
<path opacity="0.1" d="M47.7627 76.9309C47.7627 48.1922 70.9557 24.8961 99.5672 24.8961C107.598 24.8889 115.52 26.7601 122.705 30.3613C129.891 33.9624 136.143 39.1948 140.967 45.6438C132.151 29.5516 115.127 18.6445 95.54 18.6445C66.9285 18.6445 43.7355 41.9407 43.7355 70.6794C43.7186 81.9692 47.3742 92.9555 54.1458 101.966C49.9464 94.297 47.7503 85.6838 47.7627 76.9309Z" fill="black"/>
</g>
<path d="M143.409 32.4034C142.794 31.8095 137.617 35.7131 137.617 35.7131C137.617 35.7131 135.774 36.0514 136.213 37.3219C136.652 38.5924 134.282 45.7082 134.282 45.7082L133.317 44.3531C133.41 42.7626 132.975 41.6355 132.55 40.9331C132.515 40.8761 132.48 40.8209 132.446 40.7695L132.614 40.7106C132.55 39.8428 131.168 38.5207 130.434 37.8735C130.434 37.7797 130.434 37.6897 130.434 37.594C130.48 36.557 130.893 35.463 130.434 34.5234C129.914 33.4515 128.393 32.9127 128.265 31.736C128.188 31.0336 128.66 30.3993 128.869 29.7226C129.367 28.1046 128.332 26.4534 127.344 25.0597C127.009 24.5372 126.602 24.0654 126.134 23.6586C125.688 23.3314 125.199 23.069 124.681 22.879C123.233 22.2906 121.752 21.9946 120.258 21.5919C118.825 21.2095 117.503 21.0275 116.048 21.5074C115.702 21.6009 115.387 21.7827 115.132 22.0351C114.786 22.4249 114.741 22.9802 114.514 23.4453C114.148 24.1937 113.359 24.6405 112.661 25.1204C111.964 25.6003 111.264 26.2585 111.261 27.0859C111.261 28.2609 112.597 29 113.044 30.094C113.461 31.1127 113.044 32.2471 112.811 33.3209C112.714 33.668 112.705 34.0339 112.784 34.3855C112.876 34.6476 113.015 34.8906 113.194 35.1026C113.47 35.4704 113.767 35.8124 114.061 36.1617L113.926 36.215C111.469 35.9613 109.89 39.0944 109.89 39.0944C110.003 39.1183 110.111 39.1459 110.217 39.1771L110.113 39.3132C109.371 40.2815 108.764 41.3475 108.31 42.4813L106.296 45.1915C106.296 45.1915 105.857 38.4141 106.911 36.8898C107.966 35.3655 105.947 34.4333 105.947 34.4333C105.947 34.4333 101.553 29.5204 100.944 29.9433C100.334 30.3662 102.436 35.7039 104.279 36.5515C104.279 36.5515 104.462 38.2449 104.096 39.3463C103.874 40.0432 102.692 47.3942 102.692 47.3942C102.692 47.3942 101.639 53.5777 106.467 50.52C109.602 48.5379 111.629 45.1253 112.661 42.9814C112.733 42.8306 112.801 42.6866 112.864 42.5493C112.912 42.7767 112.944 43.007 112.961 43.2388L113.144 50.3233C113.191 52.0756 112.81 53.8127 112.035 55.3833L109.884 59.7649L110.124 59.8385L109.979 60.0481C108.563 62.1423 106.154 66.8512 111.112 69.2507L117.702 70.0984L117.351 71.7918C117.351 71.7918 114.631 76.9585 113.84 80.5163C113.349 82.6951 112.582 84.8016 111.557 86.7844L111.76 86.8929C111.718 86.9407 111.674 86.9904 111.632 87.0418C111.233 87.4933 110.969 88.0492 110.871 88.6452L109.978 89.9176C109.978 89.9176 109.626 95.1688 110.329 96.4412C110.713 97.1362 111.989 97.5775 113.075 97.8349C114.686 98.2192 115.985 96.5479 115.131 95.1707L115.12 95.1523H115.103C114.92 94.2973 114.36 91.6441 114.543 90.6365C114.594 90.3496 114.642 90.0647 114.666 89.7741C114.71 89.3924 114.825 89.0224 115.006 88.6838C115.035 88.6268 115.066 88.5716 115.098 88.5165L115.193 88.5569C115.487 88.6838 115.779 88.8033 116.055 88.9081C115.627 89.2998 115.323 90.1106 115.689 91.7783C115.689 91.7783 115.724 95.9503 116.04 96.6067C116.357 97.2631 119.901 98.131 120.516 97.4543C121.131 96.7777 120.121 94.4462 120.121 94.4462L120.089 94.4683C119.886 93.1169 119.636 90.6972 120.252 89.7447C120.501 89.3604 120.743 88.9633 120.959 88.5919L121.093 88.362C122.239 88.9357 123.45 89.3678 124.113 89.0681C124.113 89.0681 127.009 82.2907 126.833 81.4449C126.657 80.5991 131.309 71.0251 131.309 71.0251C131.309 71.0251 135.257 66.6122 130.432 63.571C128.9 62.602 127.783 61.9511 126.972 61.5117L126.293 57.9446C125.944 56.0746 126.007 54.1504 126.476 52.3072L127.208 49.5014L127.269 49.2623C127.269 49.2623 129.112 45.4507 129.024 43.6709C129.018 43.5326 129.033 43.3942 129.07 43.2609C129.09 43.3455 129.112 43.4337 129.136 43.5256C129.62 45.3755 130.258 47.1814 131.043 48.924C132.444 52.0976 134.522 51.8457 135.66 51.3952C135.904 51.3005 136.12 51.1464 136.29 50.9467C136.46 50.7471 136.577 50.5082 136.632 50.2516C137.042 48.2768 138.168 42.7442 138.239 41.2163C138.303 40.0215 138.45 38.8326 138.679 37.6584C141.567 35.9613 144.024 32.9973 143.409 32.4034Z" fill="url(#paint1_linear)"/>
<path d="M121.92 86.6827C121.92 86.6827 121.534 87.4604 121.005 88.3945C120.798 88.7622 120.567 89.1575 120.331 89.5381C119.495 90.8822 120.331 95.1645 120.331 95.1645L118.501 95.4164L116.67 94.4971L116.335 91.3897V89.1171L118.422 86.7728L119.337 85.7578L121.92 86.6827Z" fill="#F8BDC5"/>
<g opacity="0.1">
<path opacity="0.1" d="M121.92 86.6827C121.92 86.6827 121.534 87.4604 121.005 88.3945C120.197 87.9607 119.415 87.4781 118.665 86.9493L118.504 86.8353L118.418 86.7728L119.334 85.7578L121.92 86.6827Z" fill="black"/>
</g>
<path d="M130.87 70.9781C130.87 70.9781 126.438 80.4676 126.606 81.3079C126.775 82.1481 124.014 88.8667 124.014 88.8667C123.384 89.1646 122.228 88.7362 121.137 88.168C120.314 87.7276 119.519 87.2363 118.757 86.6971L118.596 86.5831L118.499 86.5132L125.773 66.2729L119.337 61.5309L118.861 61.1798L115.984 59.0469L124.77 60.6429C124.77 60.6429 125.076 60.6042 126.692 61.5126C127.468 61.9483 128.547 62.6011 130.037 63.5829C134.629 66.6112 130.87 70.9781 130.87 70.9781Z" fill="#5E52AD"/>
<g opacity="0.03">
<path opacity="0.03" d="M130.87 70.9781C130.87 70.9781 126.438 80.4676 126.606 81.3079C126.775 82.1481 124.014 88.8667 124.014 88.8667C123.384 89.1646 122.228 88.7362 121.137 88.168C120.314 87.7276 119.519 87.2363 118.757 86.6971L118.596 86.5831L118.499 86.5132L125.773 66.2729L119.337 61.5309L118.861 61.1798L115.984 59.0469L124.77 60.6429C124.77 60.6429 125.076 60.6042 126.692 61.5126C127.468 61.9483 128.547 62.6011 130.037 63.5829C134.629 66.6112 130.87 70.9781 130.87 70.9781Z" fill="black"/>
</g>
<path d="M117.406 88.3641C117.406 88.3641 115.231 88.0276 115.985 91.5561C115.985 91.5561 116.018 95.6931 116.32 96.3367C116.622 96.9802 120 97.8481 120.584 97.1769C121.168 96.5058 120.207 94.1964 120.207 94.1964C120.207 94.1964 117.741 96.002 117.071 94.0695C116.401 92.1371 117.406 88.3641 117.406 88.3641Z" fill="#5D3E53"/>
<path d="M115.899 87.6925C115.662 87.9194 115.469 88.1888 115.33 88.4868C115.157 88.8243 115.048 89.1908 115.006 89.568C114.984 89.8548 114.938 90.1398 114.891 90.423C114.682 91.6199 115.482 95.1668 115.482 95.1668L112.304 95.6706L111.135 94.4111L110.884 91.6402C111.196 90.6901 111.365 89.6985 111.385 88.6983C111.385 87.9757 111.751 87.3303 112.118 86.8596C112.366 86.5455 112.65 86.2622 112.965 86.0156C112.965 86.0156 116.569 87.1041 115.899 87.6925Z" fill="#F8BDC5"/>
<g opacity="0.1">
<path opacity="0.1" d="M115.899 87.6923C115.662 87.9192 115.469 88.1886 115.33 88.4866C114.029 87.8964 112.661 87.1517 112.163 86.8759L112.125 86.8557C112.373 86.5416 112.657 86.2583 112.972 86.0117C112.972 86.0117 116.569 87.1039 115.899 87.6923Z" fill="black"/>
</g>
<path d="M126.185 68.4591C126.185 68.4591 124.097 72.4068 122.757 75.6815C121.878 77.8328 120.062 82.9553 118.913 86.2172L118.744 86.6989C118.239 88.1423 117.902 89.1186 117.902 89.1186C117.679 89.1201 117.458 89.0872 117.245 89.0212C117.047 88.9679 116.826 88.8961 116.59 88.8079L116.324 88.7068C116.061 88.6038 115.775 88.4843 115.502 88.3592C114.173 87.7635 112.756 86.9876 112.242 86.7044L112.048 86.5959C113.029 84.6215 113.761 82.532 114.228 80.3757C114.98 76.8491 117.573 71.7338 117.573 71.7338L117.908 70.0533L111.636 69.213C106.911 66.8411 109.207 62.1653 110.556 60.0894C110.786 59.7291 111.035 59.3811 111.301 59.0469L116.319 60.1501C116.319 60.1501 117.109 60.4038 118.867 61.1853L119.674 61.553C120.659 62.0072 121.871 62.5919 123.335 63.342C128.274 65.85 126.185 68.4591 126.185 68.4591Z" fill="#5E52AD"/>
<path d="M115.451 94.9131C115.63 95.2159 115.715 95.5652 115.697 95.9168C115.679 96.2685 115.557 96.6068 115.348 96.8892C115.138 97.1715 114.85 97.3853 114.52 97.5035C114.19 97.6217 113.832 97.6391 113.492 97.5535C112.465 97.2979 111.248 96.8603 110.882 96.1708C110.214 94.9113 110.547 89.7041 110.547 89.7041L111.425 88.4023C111.425 88.4023 110.966 94.1556 112.053 94.6539C113.141 95.1522 115.44 94.8874 115.44 94.8874L115.451 94.9131Z" fill="#5D3E53"/>
<path d="M116.34 21.8802C116.007 21.9735 115.703 22.1544 115.462 22.4042C115.132 22.7903 115.096 23.3419 114.872 23.8034C114.525 24.5389 113.774 24.9894 113.108 25.4583C112.441 25.9271 111.777 26.5872 111.773 27.4073C111.773 28.573 113.055 29.3048 113.472 30.3878C113.869 31.3991 113.472 32.5225 113.251 33.5871C113.158 33.9318 113.149 34.2937 113.225 34.6425C113.312 34.9012 113.445 35.1422 113.617 35.3541C114.424 36.4573 115.427 37.4355 115.967 38.6913C116.377 39.6456 116.491 40.6991 116.599 41.7343C116.754 43.2237 116.91 44.7406 116.628 46.2115C116.6 46.2995 116.6 46.3938 116.628 46.4818C116.676 46.5662 116.752 46.6312 116.842 46.6657C117.375 46.9256 117.954 47.0747 118.546 47.104C119.137 47.1333 119.729 47.0421 120.284 46.836C120.84 46.6299 121.348 46.3131 121.778 45.9047C122.209 45.4962 122.553 45.0046 122.789 44.4593C123.156 43.6263 123.297 42.6206 124.021 42.08C124.106 42.0097 124.208 41.9634 124.316 41.9458C124.487 41.9505 124.653 42.0062 124.792 42.1057C125.733 42.6169 126.873 42.6316 127.922 42.422C128.556 42.2951 129.204 42.069 129.623 41.5725C130.449 40.587 129.989 39.1142 130.044 37.8289C130.088 36.8011 130.481 35.7163 130.044 34.7859C129.55 33.7232 128.098 33.1899 127.977 32.0279C127.904 31.3329 128.354 30.7022 128.554 30.0329C129.028 28.4277 128.043 26.7913 127.102 25.4105C126.786 24.8954 126.398 24.428 125.951 24.0222C125.529 23.6995 125.063 23.4394 124.567 23.25C123.189 22.6671 121.783 22.3729 120.357 21.9758C118.991 21.5841 117.734 21.4021 116.34 21.8802Z" fill="#85555C"/>
<path d="M123.342 45.8666H118.491V37.9712C118.635 37.213 118.72 36.4445 118.744 35.6729C118.744 35.4136 118.744 35.1488 118.744 34.8822C118.698 33.9408 118.504 33.0013 117.995 32.4276C116.657 30.9162 122.343 31.1681 122.343 31.1681C122.517 31.8621 122.744 32.5419 123.02 33.2017C123.432 34.2312 123.98 35.2003 124.649 36.0829C125.238 36.8683 125.993 37.5131 126.859 37.9712C130.198 39.6518 123.342 45.8666 123.342 45.8666Z" fill="#F8BDC5"/>
<g opacity="0.1">
<path opacity="0.1" d="M123.015 33.2017C122.522 33.8467 121.863 34.3443 121.11 34.6405C120.356 34.9367 119.536 35.0203 118.739 34.8822C118.693 33.9408 118.499 33.0013 117.99 32.4276C116.652 30.9162 122.337 31.1681 122.337 31.1681C122.512 31.8621 122.738 32.5419 123.015 33.2017Z" fill="black"/>
</g>
<path d="M119.495 34.6998C121.942 34.6998 123.926 32.7068 123.926 30.2483C123.926 27.7899 121.942 25.7969 119.495 25.7969C117.047 25.7969 115.063 27.7899 115.063 30.2483C115.063 32.7068 117.047 34.6998 119.495 34.6998Z" fill="#F8BDC5"/>
<path d="M137.89 37.8889C137.672 39.0537 137.533 40.2319 137.472 41.4155C137.405 42.9287 136.332 48.4154 135.94 50.3736C135.891 50.6247 135.78 50.8597 135.619 51.0576C135.457 51.2555 135.249 51.4102 135.014 51.5081C133.927 51.9549 131.95 52.2049 130.621 49.0589C129.871 47.3278 129.263 45.5384 128.803 43.7084C128.64 43.0932 128.518 42.4679 128.437 41.8366L131.366 40.2406C131.641 40.4997 131.875 40.8006 132.058 41.1324C132.462 41.8292 132.878 42.9471 132.79 44.5229L133.705 45.867C133.705 45.867 135.962 38.8119 135.536 37.5524C135.109 36.2929 136.874 35.9564 136.874 35.9564C136.874 35.9564 141.807 32.0952 142.393 32.6817C142.979 33.2683 140.648 36.2083 137.89 37.8889Z" fill="#F8BDC5"/>
<path d="M113.893 41.2493C113.665 41.9063 113.402 42.5507 113.106 43.1799C112.121 45.3073 110.192 48.696 107.204 50.656C102.606 53.6788 103.609 47.5487 103.609 47.5487C103.609 47.5487 104.735 40.2601 104.947 39.5706C105.282 38.4784 105.114 36.7997 105.114 36.7997C103.358 35.9594 101.352 30.6695 101.936 30.2485C102.52 29.8274 106.695 34.6999 106.695 34.6999C106.695 34.6999 108.619 35.6193 107.611 37.1362C106.602 38.6531 107.025 45.3661 107.025 45.3661L108.96 42.6835C109.39 41.5641 109.968 40.5078 110.679 39.543C111.045 39.0411 111.301 38.7377 111.301 38.7377L113.893 41.2493Z" fill="#F8BDC5"/>
<g opacity="0.1">
<path opacity="0.1" d="M132.06 41.1319C131.444 41.3599 129.063 42.3252 128.799 43.706C128.636 43.0909 128.514 42.4656 128.433 41.8343L131.362 40.2383C131.64 40.4975 131.875 40.7991 132.06 41.1319Z" fill="black"/>
</g>
<g opacity="0.1">
<path opacity="0.1" d="M113.893 41.2515C113.665 41.9085 113.402 42.5529 113.106 43.1821C112.992 42.3511 112.526 40.2255 110.679 39.5397C111.045 39.0378 111.301 38.7344 111.301 38.7344L113.893 41.2515Z" fill="black"/>
</g>
<g opacity="0.1">
<path opacity="0.1" d="M123.342 45.8695H118.491V37.9741C118.636 37.2159 118.72 36.4474 118.744 35.6758C119.742 36.6429 119.495 38.1415 119.495 38.1415L122.087 44.0253L123.342 38.8236L122.925 38.1525L124.646 36.0968C125.235 36.8822 125.989 37.5271 126.855 37.9852C130.198 39.6547 123.342 45.8695 123.342 45.8695Z" fill="black"/>
</g>
<g opacity="0.1">
<path opacity="0.1" d="M126.769 61.9888C126.769 61.9888 122.969 61.6854 119.672 61.542L119.341 61.5273C118.872 61.5089 118.426 61.4942 117.988 61.4831C114.788 61.4059 111.169 60.2825 110.554 60.0857C110.785 59.7266 111.034 59.3798 111.301 59.0469L116.319 60.1501C116.319 60.1501 117.109 60.4038 118.867 61.1853L115.984 59.0469L124.77 60.6429C124.77 60.6429 125.076 60.6043 126.692 61.5126L126.769 61.9888Z" fill="black"/>
</g>
<path d="M123.342 39.1468L122.925 38.4756L124.781 36.2453C124.781 36.2453 128.609 38.13 129.612 37.7163C129.612 37.7163 132.038 39.7388 132.12 40.9082C132.12 40.9082 128.609 42.0831 128.691 43.8501C128.774 45.6171 127.026 49.3919 127.026 49.3919L126.293 52.4111C125.843 54.2408 125.78 56.1452 126.11 58.0007L126.778 61.7387C126.778 61.7387 121.51 61.3195 117.992 61.2349C114.473 61.1503 110.466 59.8081 110.466 59.8081L112.518 55.4706C113.258 53.9053 113.621 52.1869 113.576 50.4547L113.393 43.4327C113.393 43.4327 113.227 39.9061 110.465 39.3178C110.465 39.3178 111.969 36.2104 114.309 36.4623C114.309 36.4623 117.717 35.0336 118.729 35.9989C119.742 36.9642 119.493 38.4775 119.493 38.4775L122.085 44.3613L123.342 39.1468Z" fill="#ED677B"/>
<g opacity="0.1">
<path opacity="0.1" d="M116.297 29.3298C116.968 29.3298 117.496 28.6146 118.167 28.6514C118.515 28.6698 118.814 28.8922 119.101 29.0927C120.187 29.848 121.395 30.408 122.672 30.7475C123.168 30.8799 123.694 30.9791 124.192 30.8578C124.69 30.7364 125.156 30.343 125.213 29.83C125.227 29.6039 125.197 29.3772 125.125 29.1625C124.562 27.1901 123.286 25.4994 121.548 24.4206C120.853 23.9921 120.003 23.6649 119.233 23.9333C118.537 24.1742 118.089 24.8287 117.585 25.3675C117.206 25.7709 116.775 26.122 116.304 26.4119C115.938 26.6343 115.389 26.7796 115.178 27.1878C114.781 27.949 115.405 29.3225 116.297 29.3298Z" fill="black"/>
</g>
<path d="M116.297 29.1619C116.968 29.1619 117.496 28.4466 118.167 28.4834C118.515 28.5018 118.814 28.7243 119.101 28.9247C120.187 29.68 121.395 30.24 122.672 30.5795C123.168 30.7119 123.694 30.8112 124.192 30.6898C124.69 30.5685 125.156 30.175 125.213 29.662C125.227 29.4359 125.197 29.2092 125.125 28.9946C124.562 27.0221 123.286 25.3314 121.548 24.2526C120.853 23.8242 120.003 23.4969 119.233 23.7653C118.537 24.0062 118.089 24.6608 117.585 25.1995C117.206 25.6029 116.775 25.9541 116.304 26.2439C115.938 26.4664 115.389 26.6116 115.178 27.0198C114.781 27.7884 115.405 29.1527 116.297 29.1619Z" fill="#85555C"/>
<path opacity="0.05" d="M114.27 48.3438C114.27 48.3438 118.367 49.8552 121.043 48.6802L122.381 48.7648C122.381 48.7648 124.605 50.3314 126.958 49.6308" fill="black"/>
<path opacity="0.05" d="M133.668 45.8242C133.668 45.8242 133 47.4202 133.334 47.924L133.668 45.8242Z" fill="black"/>
<path opacity="0.05" d="M106.996 45.3242C106.996 45.3242 107.331 46.9202 106.996 47.424V45.3242Z" fill="black"/>
<path d="M176.34 81.6875C176.34 81.6875 168.681 89.3806 173.005 100.795C177.329 112.21 165.595 131.192 165.595 131.192C165.595 131.192 165.721 131.174 165.961 131.134C181.691 128.344 189.506 110.275 180.759 96.8512C177.499 91.8591 174.83 86.0047 176.34 81.6875Z" fill="#EB6565"/>
<path opacity="0.1" d="M176.34 81.8164C176.34 81.8164 168.681 89.5095 173.005 100.924C177.329 112.339 165.595 131.319 165.595 131.319C165.595 131.319 165.721 131.301 165.961 131.261C181.691 128.471 189.506 110.402 180.759 96.9782C177.499 91.988 174.83 86.1336 176.34 81.8164Z" fill="black"/>
<path d="M176.34 81.6875C176.34 81.6875 172.017 91.1163 176.34 98.8094C180.664 106.502 177.073 128.09 165.593 131.192" stroke="#535461" stroke-miterlimit="10"/>
<path d="M189.982 112.803C189.982 112.803 181.243 111.406 180.446 119.272C179.65 127.137 163.636 128.228 163.636 128.228L163.937 128.428C177.153 137.144 189.79 133.979 187.884 122.407C187.181 118.106 187.24 113.785 189.982 112.803Z" fill="#EB6565"/>
<path d="M189.982 112.805C189.982 112.805 183.198 114.3 183.758 120.496C184.318 126.692 173.69 134.119 163.644 128.231" stroke="#535461" stroke-miterlimit="10"/>
<path d="M182.293 128.515C182.293 128.515 175.41 127.132 173.574 125.288C171.738 123.444 163.479 120.219 162.562 122.53C161.645 124.841 150.173 132.67 157.973 134.053C165.773 135.436 176.328 135.892 178.621 134.973C180.915 134.053 182.293 128.515 182.293 128.515Z" fill="#A8A8A8"/>
<path opacity="0.2" d="M157.973 133.19C165.775 134.573 176.328 135.029 178.621 134.11C180.37 133.407 181.583 130.035 182.063 128.465L182.292 128.513C182.292 128.513 180.915 134.043 178.621 134.965C176.328 135.886 165.773 135.426 157.973 134.045C155.721 133.646 155.077 132.709 155.32 131.523C155.511 132.297 156.296 132.892 157.973 133.19Z" fill="black"/>
</g>
<defs>
<linearGradient id="paint0_linear" x1="95.5437" y1="137.242" x2="95.5437" y2="4.12109" gradientUnits="userSpaceOnUse">
<stop stop-color="#808080" stop-opacity="0.25"/>
<stop offset="0.54" stop-color="#808080" stop-opacity="0.12"/>
<stop offset="1" stop-color="#808080" stop-opacity="0.1"/>
</linearGradient>
<linearGradient id="paint1_linear" x1="32035.1" y1="45739.3" x2="32035.1" y2="13765.5" gradientUnits="userSpaceOnUse">
<stop stop-color="#808080" stop-opacity="0.25"/>
<stop offset="0.54" stop-color="#808080" stop-opacity="0.12"/>
<stop offset="1" stop-color="#808080" stop-opacity="0.1"/>
</linearGradient>
<clipPath id="clip0">
<rect width="190" height="142" fill="white"/>
</clipPath>
</defs>
</svg>
