<svg width="352" height="227" viewBox="0 0 352 227" fill="none" xmlns="http://www.w3.org/2000/svg">
<g opacity="0.5">
<g opacity="0.5">
<path opacity="0.5" d="M93.4057 60.5439L93.2866 70L104.166 70.0864L104.285 60.6302L93.4057 60.5439Z" fill="url(#paint0_linear)"/>
</g>
<path opacity="0.5" d="M93.2956 69.7157L103.809 69.7852L103.922 60.7155L93.4086 60.646L93.2956 69.7157Z" fill="#E6E6E6"/>
<path opacity="0.5" d="M100.525 64.9926C100.535 64.2129 99.6746 63.575 98.604 63.5679C97.5335 63.5608 96.6578 64.1872 96.6481 64.967C96.6384 65.7468 97.4983 66.3846 98.5689 66.3917C99.6394 66.3988 100.515 65.7724 100.525 64.9926Z" fill="white"/>
<path opacity="0.5" d="M100.348 65.4549C100.357 64.7461 99.5754 64.1664 98.6024 64.1599C97.6294 64.1535 96.8334 64.7228 96.8246 65.4316C96.8158 66.1403 97.5974 66.7201 98.5704 66.7265C99.5434 66.7329 100.339 66.1636 100.348 65.4549Z" fill="white"/>
<path opacity="0.5" d="M98.1486 67.225L98.97 67.2305L98.9828 66.2045L98.1614 66.199L98.1486 67.225Z" fill="white"/>
<path opacity="0.5" d="M100.466 69.7617L96.4122 69.7349L96.4291 68.3858C96.4339 67.9947 96.6519 67.621 97.035 67.347C97.4182 67.0729 97.9351 66.9209 98.472 66.9245C99.009 66.928 99.522 67.0868 99.8983 67.3659C100.275 67.645 100.483 68.0215 100.478 68.4126L100.461 69.7617L100.466 69.7617Z" fill="white"/>
<path opacity="0.5" d="M99.3095 63.5651C99.313 63.281 98.9997 63.0485 98.6096 63.046C98.2194 63.0434 97.9003 63.2716 97.8968 63.5558C97.8933 63.84 98.2066 64.0724 98.5967 64.075C98.9868 64.0776 99.306 63.8493 99.3095 63.5651Z" fill="white"/>
<path opacity="0.5" d="M98.3801 62.7236C98.0023 62.6941 97.6206 62.7396 97.2754 62.8552C96.963 62.9245 96.6726 63.0384 96.4211 63.1902C96.0147 63.5367 95.8125 63.9861 95.8585 64.4407C95.9055 64.8909 95.8173 65.3431 95.5998 65.7659C95.4427 65.987 95.2026 66.1711 94.9073 66.2966C94.6121 66.4222 94.274 66.484 93.9324 66.4748C94.1386 66.5627 94.3717 66.6117 94.6104 66.6174C94.8492 66.6232 95.0862 66.5855 95.3 66.5078C95.685 66.3822 96.0077 66.1733 96.224 65.9095C96.3556 65.7251 96.4655 65.533 96.5526 65.3351C96.85 64.7497 97.2474 64.1939 97.7353 63.6808C97.8082 63.5975 97.8967 63.522 97.9982 63.4565C98.1446 63.3744 98.3195 63.3236 98.5033 63.3099C98.6553 63.3099 98.914 63.3458 99.0044 63.2381C99.2015 63.0018 98.5814 62.7565 98.3801 62.7236Z" fill="white"/>
</g>
<g opacity="0.5">
<g opacity="0.5">
<path opacity="0.5" d="M248.332 58.8086L233.704 58.9062L233.861 71.6194L248.489 71.5218L248.332 58.8086Z" fill="url(#paint1_linear)"/>
</g>
<path opacity="0.5" d="M248.114 59.0631L233.975 59.1562L234.127 71.3519L248.267 71.2587L248.114 59.0631Z" fill="#E6E6E6"/>
<path opacity="0.5" d="M241.178 66.7622C242.618 66.7527 243.775 65.8945 243.762 64.8455C243.749 63.7964 242.571 62.9537 241.131 62.9632C239.691 62.9728 238.534 63.8309 238.547 64.88C238.56 65.929 239.738 66.7717 241.178 66.7622Z" fill="white"/>
<path opacity="0.5" d="M241.184 67.2215C242.493 67.2128 243.544 66.4331 243.532 65.4798C243.52 64.5266 242.45 63.7608 241.141 63.7695C239.832 63.7781 238.781 64.5579 238.793 65.5111C238.805 66.4644 239.875 67.2301 241.184 67.2215Z" fill="white"/>
<path opacity="0.5" d="M241.726 66.5279L240.621 66.5352L240.638 67.9172L241.743 67.9099L241.726 66.5279Z" fill="white"/>
<path opacity="0.5" d="M241.286 67.5095C242.009 67.5047 242.706 67.7093 243.222 68.0785C243.738 68.4476 244.031 68.9509 244.038 69.4777L244.06 71.2844L238.627 71.3203L238.605 69.5255C238.598 68.9988 238.879 68.4917 239.386 68.1158C239.893 67.7399 240.584 67.5261 241.307 67.5213L241.286 67.5095Z" fill="white"/>
<path opacity="0.5" d="M241.135 63.657C241.659 63.6535 242.08 63.3413 242.075 62.9597C242.071 62.5781 241.642 62.2715 241.118 62.275C240.594 62.2784 240.173 62.5906 240.178 62.9723C240.183 63.3539 240.612 63.6604 241.135 63.657Z" fill="white"/>
<path opacity="0.5" d="M241.427 61.8593C241.934 61.8199 242.446 61.8809 242.909 62.0358C243.329 62.1291 243.718 62.2827 244.055 62.4875C244.663 62.9003 244.79 63.5614 244.811 64.1657C244.831 64.77 244.786 65.4072 245.156 65.9606C245.367 66.2572 245.689 66.5041 246.086 66.6725C246.482 66.8409 246.935 66.9239 247.394 66.9119C247.117 67.0291 246.804 67.0943 246.483 67.1016C246.163 67.1089 245.845 67.0581 245.558 66.9537C245.041 66.7813 244.61 66.4959 244.326 66.1371C244.149 65.8894 244 65.6312 243.883 65.3653C243.483 64.5778 242.949 63.83 242.293 63.1396C242.195 63.0285 242.076 62.9278 241.94 62.8405C241.744 62.7301 241.509 62.6617 241.262 62.6431C241.061 62.6221 240.716 62.6909 240.589 62.5473C240.318 62.2302 241.131 61.9012 241.427 61.8593Z" fill="white"/>
</g>
<g opacity="0.5">
<g opacity="0.5">
<path opacity="0.5" d="M236.253 5.60881L213.054 5.76172L213.306 25.9232L236.505 25.7703L236.253 5.60881Z" fill="url(#paint2_linear)"/>
</g>
<path opacity="0.5" d="M235.905 6.01192L213.482 6.16016L213.723 25.5021L236.146 25.3538L235.905 6.01192Z" fill="#E6E6E6"/>
<path opacity="0.5" d="M224.906 18.2238C227.19 18.2087 229.025 16.8478 229.004 15.1841C228.984 13.5205 227.115 12.1841 224.831 12.1992C222.547 12.2143 220.713 13.5752 220.733 15.2388C220.754 16.9025 222.622 18.2389 224.906 18.2238Z" fill="white"/>
<path opacity="0.5" d="M224.916 18.9493C226.991 18.9356 228.658 17.699 228.639 16.1874C228.62 14.6757 226.923 13.4614 224.847 13.4752C222.772 13.4889 221.105 14.7254 221.124 16.2371C221.143 17.7487 222.84 18.963 224.916 18.9493Z" fill="white"/>
<path opacity="0.5" d="M225.781 17.8478L224.027 17.8594L224.054 20.049L225.808 20.0374L225.781 17.8478Z" fill="white"/>
<path opacity="0.5" d="M225.174 19.2108C226.316 19.2025 227.416 19.524 228.234 20.1051C229.052 20.6861 229.52 21.4794 229.537 22.3114L229.577 25.1862L220.952 25.249L220.913 22.3742C220.907 21.5442 221.351 20.7461 222.149 20.1536C222.947 19.5611 224.034 19.2223 225.174 19.2108Z" fill="white"/>
<path opacity="0.5" d="M224.845 13.293C225.675 13.2875 226.342 12.7929 226.334 12.1882C226.327 11.5836 225.648 11.0979 224.818 11.1033C223.988 11.1088 223.321 11.6035 223.328 12.2081C223.336 12.8128 224.015 13.2985 224.845 13.293Z" fill="white"/>
<path opacity="0.5" d="M225.319 10.4363C226.124 10.374 226.937 10.4711 227.673 10.7175C228.339 10.8662 228.957 11.1103 229.492 11.4355C230.453 12.0936 230.658 13.1376 230.691 14.0979C230.724 15.0581 230.65 16.0662 231.237 16.9248C231.575 17.3931 232.088 17.7821 232.717 18.0468C233.345 18.3115 234.064 18.4411 234.79 18.4205C234.35 18.6064 233.854 18.7097 233.345 18.7212C232.837 18.7327 232.333 18.652 231.878 18.4863C231.052 18.2148 230.362 17.7619 229.907 17.191C229.626 16.7993 229.391 16.391 229.204 15.9705C228.571 14.7214 227.724 13.5354 226.683 12.4406C226.528 12.2629 226.34 12.1018 226.124 11.962C225.81 11.7918 225.438 11.6883 225.048 11.6628C224.728 11.6299 224.178 11.7406 223.976 11.5103C223.557 11.0257 224.847 10.5022 225.319 10.4363Z" fill="white"/>
</g>
<g opacity="0.5">
<g opacity="0.5">
<path opacity="0.5" d="M138.364 4.83866L114.479 4.99609L114.732 25.2324L138.617 25.075L138.364 4.83866Z" fill="url(#paint3_linear)"/>
</g>
<path opacity="0.5" d="M137.963 5.23859L114.965 5.39062L115.212 25.2291L138.21 25.0771L137.963 5.23859Z" fill="#E6E6E6"/>
<path opacity="0.5" d="M126.426 17.7633C128.766 17.7478 130.647 16.3531 130.625 14.6482C130.604 12.9433 128.689 11.5737 126.349 11.5892C124.008 11.6046 122.128 12.9993 122.149 14.7042C122.17 16.4092 124.085 17.7787 126.426 17.7633Z" fill="white"/>
<path opacity="0.5" d="M126.435 18.512C128.563 18.498 130.272 17.2303 130.252 15.6807C130.233 14.1311 128.493 12.8863 126.365 12.9003C124.238 12.9144 122.529 14.182 122.548 15.7316C122.567 17.2813 124.308 18.5261 126.435 18.512Z" fill="white"/>
<path opacity="0.5" d="M127.32 17.3826L125.522 17.3945L125.55 19.641L127.348 19.6291L127.32 17.3826Z" fill="white"/>
<path opacity="0.5" d="M126.634 18.9746C127.809 18.9668 128.94 19.2994 129.779 19.8993C130.618 20.4991 131.095 21.3169 131.105 22.173L131.142 25.1194L122.28 25.178L122.243 22.2345C122.237 21.8104 122.346 21.3896 122.564 20.9962C122.781 20.6028 123.103 20.2445 123.511 19.9417C123.919 19.639 124.404 19.3978 124.94 19.2318C125.476 19.0659 126.052 18.9785 126.634 18.9746Z" fill="white"/>
<path opacity="0.5" d="M123.407 12.4423C123.407 12.4423 125.962 11.3025 126.463 10.082C127.23 11.1862 128.241 12.1908 129.457 13.0555L123.407 12.4423Z" fill="white"/>
</g>
<path d="M97.3616 157.508H0V226.999H97.3616V157.508Z" fill="url(#paint4_linear)"/>
<path d="M96.873 158.043H0.48877V226.466H96.873V158.043Z" fill="white"/>
<path d="M87.0862 163.727H10.2754V207.162H87.0862V163.727Z" fill="#EB6565"/>
<path d="M82.774 211.801H14.949V214.077H82.774V211.801Z" fill="#E0E0E0"/>
<path d="M71.9524 216.352H25.7706V218.628H71.9524V216.352Z" fill="#E0E0E0"/>
<g opacity="0.5">
<path opacity="0.5" d="M191.623 47.1367H157.26V75.6093H191.623V47.1367Z" fill="url(#paint5_linear)"/>
</g>
<path d="M190.896 47.5352H158.349V75.6129H190.896V47.5352Z" fill="#E6E6E6"/>
<path d="M174.259 65.1473C177.573 65.1473 180.259 63.1905 180.259 60.7768C180.259 58.363 177.573 56.4062 174.259 56.4062C170.945 56.4062 168.259 58.363 168.259 60.7768C168.259 63.1905 170.945 65.1473 174.259 65.1473Z" fill="white"/>
<path d="M174.259 66.207C177.271 66.207 179.713 64.4284 179.713 62.2344C179.713 60.0403 177.271 58.2617 174.259 58.2617C171.247 58.2617 168.805 60.0403 168.805 62.2344C168.805 64.4284 171.247 66.207 174.259 66.207Z" fill="white"/>
<path d="M175.532 64.6172H172.986V67.7971H175.532V64.6172Z" fill="white"/>
<path d="M173.63 66.8711H175.429C176.854 66.8711 178.22 67.2833 179.228 68.0171C180.235 68.7509 180.801 69.7462 180.801 70.7839V75.6121H168.259V70.7839C168.259 69.7462 168.825 68.7509 169.832 68.0171C170.839 67.2833 172.206 66.8711 173.63 66.8711Z" fill="white"/>
<path d="M171.441 56.1151C171.055 56.2627 170.677 56.4192 170.308 56.5848C169.967 56.7058 169.682 56.8959 169.486 57.1322C169.441 57.2271 169.378 57.3168 169.298 57.3984C169.125 57.536 168.838 57.5331 168.591 57.5749C167.77 57.7125 167.359 58.3557 167.158 58.936C167.027 59.2806 166.923 59.6301 166.846 59.9831C166.77 60.2111 166.78 60.4498 166.875 60.6741C166.928 60.7698 167.006 60.8536 167.047 60.9523C167.195 61.3113 166.776 61.6523 166.673 62.0172C166.622 62.3503 166.701 62.6871 166.899 62.9895C166.941 63.0864 167.001 63.1789 167.076 63.2647C167.144 63.3289 167.218 63.3899 167.298 63.4471C167.473 63.5861 167.612 63.7473 167.708 63.9228C168.576 64.0368 169.427 64.2101 170.25 64.4403C171.585 64.8202 172.908 65.3557 174.357 65.3078C174.746 65.2942 175.13 65.2367 175.495 65.1373C176.209 64.9429 176.834 64.5899 177.548 64.4194C178.226 64.3068 178.911 64.2229 179.602 64.1681C179.926 64.1202 180.329 63.9407 180.205 63.7164C180.37 63.7606 180.549 63.7708 180.721 63.746C180.894 63.7212 181.053 63.6623 181.183 63.5758C181.44 63.4001 181.645 63.1885 181.787 62.9536C182.077 62.5631 182.304 62.1496 182.464 61.7211C182.739 60.8906 182.585 60.0157 182.033 59.2621C181.937 59.1138 181.797 58.983 181.622 58.8792C181.491 58.8104 181.335 58.7685 181.212 58.6937C181.083 58.608 180.976 58.5068 180.895 58.3946C180.441 57.8502 179.96 57.3187 179.454 56.8001C178.953 56.2856 178.382 55.7591 177.573 55.5348C176.374 55.2027 175.499 55.7322 174.357 55.7651C173.848 55.7651 173.421 55.6305 172.883 55.7083C172.378 55.7926 171.892 55.9296 171.441 56.1151Z" fill="white"/>
<g opacity="0.5">
<path opacity="0.5" d="M124.253 15.1523H94.8729V39.4997H124.253V15.1523Z" fill="url(#paint6_linear)"/>
</g>
<path d="M123.633 15.4922H95.8051V39.4986H123.633V15.4922Z" fill="#E6E6E6"/>
<path d="M109.407 30.5508C112.24 30.5508 114.537 28.878 114.537 26.8144C114.537 24.7509 112.24 23.0781 109.407 23.0781C106.574 23.0781 104.278 24.7509 104.278 26.8144C104.278 28.878 106.574 30.5508 109.407 30.5508Z" fill="white"/>
<path d="M109.407 31.4606C111.984 31.4606 114.072 29.9392 114.072 28.0623C114.072 26.1855 111.984 24.6641 109.407 24.6641C106.83 24.6641 104.742 26.1855 104.742 28.0623C104.742 29.9392 106.83 31.4606 109.407 31.4606Z" fill="white"/>
<path d="M110.495 30.0977H108.319V32.8139H110.495V30.0977Z" fill="white"/>
<path d="M109.653 32.0234C111.072 32.0282 112.43 32.4419 113.43 33.1741C114.431 33.9062 114.992 34.8972 114.992 35.9303V39.4871H104.278V35.9303C104.278 35.4165 104.417 34.9077 104.687 34.4331C104.957 33.9585 105.354 33.5275 105.853 33.1646C106.352 32.8017 106.945 32.5141 107.597 32.3183C108.249 32.1224 108.948 32.0223 109.653 32.0234Z" fill="white"/>
<path d="M107.005 22.8316C106.676 22.9572 106.353 23.0918 106.035 23.2354C105.751 23.3405 105.513 23.5023 105.35 23.7021C105.311 23.783 105.257 23.8596 105.189 23.9294C105.041 24.0461 104.779 24.0431 104.586 24.079C103.9 24.1957 103.547 24.7461 103.354 25.2427C103.242 25.538 103.153 25.8376 103.087 26.1401C103.02 26.3375 103.029 26.5443 103.111 26.7384C103.156 26.8192 103.222 26.894 103.259 26.9747C103.386 27.2739 103.029 27.573 102.939 27.8722C102.896 28.1571 102.963 28.445 103.132 28.7038C103.168 28.7871 103.219 28.8665 103.284 28.9401C103.342 28.9949 103.405 29.0469 103.473 29.0957C103.622 29.2146 103.74 29.3525 103.822 29.5025C104.562 29.6023 105.288 29.7525 105.99 29.9512C107.132 30.2743 108.261 30.735 109.485 30.6931C109.818 30.6813 110.146 30.6318 110.458 30.5465C111.07 30.379 111.604 30.0799 112.224 29.9482C112.8 29.8521 113.383 29.7802 113.97 29.7328C114.249 29.694 114.59 29.5384 114.487 29.3469C114.626 29.3825 114.776 29.3902 114.92 29.3691C115.065 29.3481 115.199 29.2991 115.309 29.2273C115.527 29.0768 115.702 28.8957 115.822 28.6948C116.07 28.3612 116.264 28.0079 116.401 27.6418C116.631 26.9343 116.5 26.1899 116.031 25.5478C115.948 25.4199 115.826 25.3074 115.674 25.2188C115.563 25.1589 115.428 25.123 115.321 25.0602C115.211 24.9873 115.12 24.9013 115.05 24.8059C114.661 24.3413 114.25 23.8876 113.818 23.4448C113.438 22.9779 112.878 22.6025 112.208 22.3649C111.181 22.0658 110.434 22.5354 109.46 22.5623C109.025 22.5623 108.66 22.4457 108.2 22.5145C107.783 22.5793 107.381 22.686 107.005 22.8316Z" fill="white"/>
<g opacity="0.5">
<path opacity="0.5" d="M334.893 48.624L302.481 48.8594L302.869 77.0298L335.281 76.7944L334.893 48.624Z" fill="url(#paint7_linear)"/>
</g>
<path d="M334.301 49.457L302.975 49.6641L303.312 76.6877L334.638 76.4806L334.301 49.457Z" fill="#E6E6E6"/>
<path d="M318.936 66.5141C322.125 66.493 324.686 64.5929 324.657 62.2701C324.628 59.9473 322.02 58.0814 318.831 58.1025C315.642 58.1235 313.08 60.0236 313.109 62.3464C313.138 64.6692 315.747 66.5351 318.936 66.5141Z" fill="white"/>
<path d="M318.948 67.533C321.847 67.5138 324.175 65.7867 324.149 63.6754C324.123 61.5641 321.752 59.868 318.853 59.8872C315.954 59.9063 313.626 61.6335 313.652 63.7448C313.679 65.8561 316.05 67.5522 318.948 67.533Z" fill="white"/>
<path d="M320.153 65.9955L317.701 66.0117L317.74 69.0719L320.191 69.0556L320.153 65.9955Z" fill="white"/>
<path d="M318.554 68.1754L319.884 68.1666C321.309 68.1572 322.68 68.5604 323.697 69.2875C324.713 70.0146 325.292 71.0061 325.305 72.0438L325.361 76.5307L313.287 76.6106L313.231 72.1236C313.218 71.0859 313.772 70.0869 314.77 69.3465C315.768 68.6061 317.129 68.1848 318.554 68.1754Z" fill="white"/>
<path d="M318.85 59.6292C320.009 59.6215 320.94 58.931 320.929 58.0868C320.919 57.2426 319.971 56.5644 318.812 56.5721C317.653 56.5797 316.722 57.2703 316.732 58.1145C316.743 58.9587 317.691 59.6369 318.85 59.6292Z" fill="white"/>
<path d="M319.506 55.6428C320.611 55.4902 321.741 55.7505 322.792 56.0347C323.721 56.2424 324.584 56.5831 325.33 57.0368C326.673 57.9552 326.973 59.43 327.006 60.7582C327.038 62.0864 326.948 63.5073 327.77 64.7069C328.238 65.3648 328.953 65.9124 329.832 66.2857C330.711 66.6591 331.718 66.8429 332.735 66.8158C331.556 67.3902 329.958 67.3334 328.665 66.9086C327.51 66.5281 326.548 65.8943 325.913 65.0958C325.52 64.5476 325.192 63.9762 324.932 63.3876C324.047 61.6444 322.864 59.9891 321.412 58.4607C321.196 58.2131 320.933 57.9885 320.632 57.7936C320.196 57.5492 319.676 57.398 319.129 57.3569C318.681 57.312 317.897 57.4646 317.634 57.1415C317.046 56.4654 318.849 55.7325 319.506 55.6428Z" fill="white"/>
<g opacity="0.5">
<path opacity="0.5" d="M78.3514 27.7792L50.6382 27.9805L50.9698 52.0676L78.683 51.8663L78.3514 27.7792Z" fill="url(#paint8_linear)"/>
</g>
<path d="M77.8618 28.3542L51.0779 28.5312L51.3658 51.6362L78.1497 51.4592L77.8618 28.3542Z" fill="#E6E6E6"/>
<path d="M64.7244 42.9398C67.4506 42.9217 69.6405 41.2973 69.6158 39.3116C69.5911 37.3258 67.361 35.7306 64.6348 35.7486C61.9085 35.7666 59.7185 37.391 59.7433 39.3768C59.768 41.3626 61.9981 42.9578 64.7244 42.9398Z" fill="white"/>
<path d="M64.7353 43.814C67.2143 43.7977 69.2057 42.3206 69.1832 40.5148C69.1607 38.7091 67.1328 37.2586 64.6538 37.275C62.1748 37.2914 60.1834 38.7685 60.2059 40.5742C60.2284 42.3799 62.2563 43.8304 64.7353 43.814Z" fill="white"/>
<path d="M65.766 42.494L63.6716 42.5078L63.7042 45.1222L65.7986 45.1084L65.766 42.494Z" fill="white"/>
<path d="M64.9678 44.3526C66.3369 44.3435 67.6548 44.731 68.6317 45.4298C69.6085 46.1285 70.1643 47.0813 70.1767 48.0786L70.2195 51.5126L59.8953 51.5808L59.8525 48.1468C59.8401 47.1496 60.372 46.1896 61.3313 45.478C62.2906 44.7665 63.5987 44.3616 64.9678 44.3526Z" fill="white"/>
<path d="M64.6509 37.0557C65.6421 37.0491 66.4383 36.4586 66.4293 35.7366C66.4203 35.0147 65.6095 34.4347 64.6184 34.4413C63.6272 34.4478 62.831 35.0384 62.84 35.7603C62.849 36.4823 63.6598 37.0622 64.6509 37.0557Z" fill="white"/>
<path d="M65.213 33.6327C66.1576 33.5011 67.1227 33.7255 68.0262 33.9678C68.8213 34.1448 69.5599 34.4357 70.1987 34.8233C71.3487 35.6071 71.5951 36.8575 71.632 38.0062C71.669 39.1549 71.5827 40.3575 72.285 41.3836C72.6868 41.9443 73.2986 42.4106 74.0495 42.7283C74.8004 43.046 75.6596 43.2021 76.5274 43.1784C75.5212 43.669 74.1537 43.6212 73.0489 43.2592C72.0619 42.934 71.2391 42.3922 70.6957 41.7096C70.366 41.2407 70.0913 40.7524 69.8743 40.2498C69.1165 38.7572 68.1038 37.3401 66.8598 36.0319C66.6757 35.8198 66.4518 35.6274 66.1945 35.4605C65.8221 35.2512 65.377 35.1217 64.9091 35.0866C64.5271 35.0477 63.87 35.1793 63.6319 34.9011C63.1103 34.3357 64.6545 33.7105 65.213 33.6327Z" fill="white"/>
<g opacity="0.5">
<path opacity="0.5" d="M35.131 51.0574L1.76404 51.2773L2.11734 79.5483L35.4843 79.3284L35.131 51.0574Z" fill="url(#paint9_linear)"/>
</g>
<path d="M34.5755 51.6157L2.44873 51.8281L2.79406 79.5427L34.9208 79.3303L34.5755 51.6157Z" fill="#E6E6E6"/>
<path d="M18.4598 69.1073C21.7303 69.0857 24.3576 67.137 24.3279 64.7547C24.2982 62.3724 21.6228 60.4588 18.3523 60.4804C15.0817 60.502 12.4545 62.4507 12.4842 64.833C12.5138 67.2153 15.1892 69.129 18.4598 69.1073Z" fill="white"/>
<path d="M18.4727 70.1553C21.4461 70.1357 23.8347 68.364 23.8077 66.1981C23.7807 64.0322 21.3484 62.2924 18.375 62.3121C15.4015 62.3317 13.013 64.1034 13.04 66.2693C13.0669 68.4351 15.4993 70.175 18.4727 70.1553Z" fill="white"/>
<path d="M19.7098 68.5771L17.1965 68.5938L17.2356 71.7316L19.7489 71.715L19.7098 68.5771Z" fill="white"/>
<path d="M17.9305 70.8121L19.5732 70.8013C20.9978 70.7919 22.3693 71.1951 23.3858 71.9222C24.4023 72.6493 24.9806 73.6407 24.9935 74.6784L25.0523 79.3927L12.6665 79.4746L12.6077 74.7633C12.5948 73.7256 13.1484 72.7267 14.1466 71.9862C15.1448 71.2458 16.5059 70.8246 17.9306 70.8151L17.9305 70.8121Z" fill="white"/>
<path d="M14.2467 61.6851C14.2467 61.6851 17.8156 60.0937 18.5137 58.3945C18.5137 58.3945 20.1565 60.8685 22.6945 62.5497L14.2467 61.6851Z" fill="white"/>
<path d="M48.2502 189.46C53.9 189.423 58.4384 186.056 58.3872 181.941C58.3359 177.826 53.7143 174.52 48.0645 174.557C42.4148 174.595 37.8763 177.961 37.9276 182.076C37.9788 186.192 42.6004 189.497 48.2502 189.46Z" fill="white"/>
<path d="M48.2726 191.267C53.4098 191.233 57.5365 188.172 57.4899 184.43C57.4433 180.688 53.241 177.682 48.1038 177.716C42.9666 177.75 38.8399 180.811 38.8865 184.553C38.9332 188.295 43.1355 191.301 48.2726 191.267Z" fill="white"/>
<path d="M50.4113 188.542L46.0706 188.57L46.1381 193.991L50.4789 193.962L50.4113 188.542Z" fill="white"/>
<path d="M48.4263 192.396L49.0793 192.392C50.4424 192.383 51.7946 192.57 53.0585 192.942C54.3224 193.314 55.4731 193.864 56.445 194.56C57.4169 195.256 58.1907 196.085 58.7223 197C59.2539 197.914 59.5328 198.896 59.543 199.889L59.6346 207.241L38.2428 207.383L38.1512 200.03C38.1366 199.037 38.391 198.052 38.8997 197.131C39.4084 196.209 40.1615 195.37 41.1158 194.661C42.0702 193.952 43.2071 193.387 44.4615 192.999C45.7159 192.61 47.0632 192.405 48.4263 192.396Z" fill="white"/>
<path d="M40.9742 176.621C40.9742 176.621 47.1346 173.869 48.342 170.938C48.342 170.938 51.1839 175.209 55.5619 178.117L40.9742 176.621Z" fill="white"/>
<g opacity="0.5">
<path opacity="0.5" d="M254.967 16.1447L227.14 16.3281L227.429 39.484L255.256 39.3005L254.967 16.1447Z" fill="url(#paint10_linear)"/>
</g>
<path d="M254.5 16.6002L227.708 16.7773L227.991 39.4755L254.783 39.2984L254.5 16.6002Z" fill="#E6E6E6"/>
<path d="M241.056 30.9352C243.784 30.9171 245.977 29.3209 245.952 27.3698C245.928 25.4187 243.696 23.8516 240.968 23.8697C238.239 23.8877 236.047 25.484 236.071 27.4351C236.096 29.3862 238.327 30.9532 241.056 30.9352Z" fill="white"/>
<path d="M241.071 31.7902C243.55 31.7738 245.541 30.3222 245.519 28.5479C245.497 26.7736 243.47 25.3485 240.991 25.3649C238.512 25.3812 236.52 26.8329 236.542 28.6072C236.564 30.3815 238.592 31.8066 241.071 31.7902Z" fill="white"/>
<path d="M242.18 30.2894L240.086 30.3047L240.121 32.8743L242.216 32.8591L242.18 30.2894Z" fill="white"/>
<path d="M241.299 32.3252C242.668 32.3162 243.986 32.7036 244.963 33.4024C245.94 34.1011 246.496 35.0539 246.508 36.0512L246.549 39.3566L236.221 39.4249L236.18 36.1195C236.174 35.6254 236.301 35.1354 236.555 34.6772C236.809 34.2191 237.185 33.802 237.66 33.4496C238.135 33.0973 238.701 32.8166 239.326 32.6236C239.95 32.4307 240.621 32.3293 241.299 32.3252Z" fill="white"/>
<path d="M237.542 24.8407C237.542 24.8407 240.519 23.5365 241.098 22.1484C241.994 23.4158 243.172 24.5662 244.585 25.5527L237.542 24.8407Z" fill="white"/>
<g opacity="0.5">
<path opacity="0.5" d="M147.449 111.648V112.193L163.646 132.648V144.83L175.544 149.466V149.194V132.648L191.618 112.193V111.648H147.449Z" fill="url(#paint11_linear)"/>
</g>
<path d="M190.879 111.914H147.942V112.453H190.879V111.914Z" fill="#CFD8DC"/>
<path opacity="0.1" d="M190.879 111.914H147.942V112.453H190.879V111.914Z" fill="black"/>
<path d="M147.942 112.453L163.688 132.618V144.626L175.257 148.928V132.618L190.879 112.453H147.942Z" fill="#CFD8DC"/>
<path opacity="0.2" d="M164.427 144.626V132.618L148.677 112.453H147.942L163.688 132.618V144.626H164.427Z" fill="white"/>
<path d="M163.688 144.629L175.257 149.2V148.931L164.427 144.629H163.688Z" fill="#CFD8DC"/>
<path opacity="0.1" d="M163.688 144.629L175.257 149.2V148.931L164.427 144.629H163.688Z" fill="black"/>
<path d="M352 156.52H254.638V226.011H352V156.52Z" fill="url(#paint12_linear)"/>
<path d="M351.515 157.059H255.131V225.482H351.515V157.059Z" fill="white"/>
<path d="M341.725 162.738H264.914V206.174H341.725V162.738Z" fill="#EB6565"/>
<path d="M338.168 212.277H270.343V214.554H338.168V212.277Z" fill="#E0E0E0"/>
<path d="M327.346 216.824H281.165V219.101H327.346V216.824Z" fill="#E0E0E0"/>
<path d="M224.716 156.289H126.652V226.283H224.716V156.289Z" fill="url(#paint13_linear)"/>
<path d="M224.223 156.828H127.145V225.745H224.223V156.828Z" fill="white"/>
<path d="M214.366 162.551H137.001V206.301H214.366V162.551Z" fill="#EB6565"/>
<path d="M208.214 211.543H139.901V213.834H208.214V211.543Z" fill="#E0E0E0"/>
<path d="M197.315 216.125H150.796V218.416H197.315V216.125Z" fill="#E0E0E0"/>
<path d="M17.3023 84.7812C17.3023 84.7812 16.8916 117.986 57.1389 111.704C97.3863 105.422 98.6184 95.2513 144.615 108.414" stroke="#3AD29F" stroke-width="2" stroke-miterlimit="10" stroke-dasharray="12 12"/>
<path d="M318.747 81.793C318.747 81.793 319.157 114.998 278.91 108.716C238.663 102.434 237.431 92.263 191.434 105.425" stroke="#3AD29F" stroke-width="2" stroke-miterlimit="10" stroke-dasharray="12 12"/>
<path d="M174.185 81.793C174.185 81.793 168.846 91.0665 176.649 95.5536C184.452 100.041 175.827 109.613 175.827 109.613" stroke="#3AD29F" stroke-width="2" stroke-miterlimit="10" stroke-dasharray="12 12"/>
<path d="M64.7037 58.2305C64.7037 58.2305 70.864 80.068 100.844 80.068C130.824 80.068 157.108 104.598 151.359 107.589" stroke="#3AD29F" stroke-width="2" stroke-miterlimit="10" stroke-dasharray="12 12"/>
<path d="M108.237 45.9688C108.237 45.9688 100.343 56.5435 109.021 67.3187C113.193 72.401 119.922 76.0972 127.777 77.6213C146.385 81.3366 154.533 79.6106 166.558 101.906" stroke="#3AD29F" stroke-width="2" stroke-miterlimit="10" stroke-dasharray="12 12"/>
<path d="M240.889 46.5664C240.889 46.5664 247.193 52.1574 235.398 63.9886C230.699 68.6255 224.224 72.1473 216.785 74.1117C204.875 77.3335 193.249 86.6518 193.249 100.412" stroke="#3AD29F" stroke-width="2" stroke-miterlimit="10" stroke-dasharray="12 12"/>
<g opacity="0.5">
<g opacity="0.5">
<path opacity="0.5" d="M187.503 0H162.907V20.3807H187.503V0Z" fill="url(#paint14_linear)"/>
</g>
<path opacity="0.5" d="M186.982 0.285156H163.688V20.3817H186.982V0.285156Z" fill="#E6E6E6"/>
<path opacity="0.5" d="M175.072 12.8909C177.444 12.8909 179.368 11.49 179.368 9.76187C179.368 8.03374 177.444 6.63281 175.072 6.63281C172.699 6.63281 170.776 8.03374 170.776 9.76187C170.776 11.49 172.699 12.8909 175.072 12.8909Z" fill="white"/>
<path opacity="0.5" d="M175.072 13.6507C177.229 13.6507 178.977 12.377 178.977 10.8058C178.977 9.23463 177.229 7.96094 175.072 7.96094C172.915 7.96094 171.166 9.23463 171.166 10.8058C171.166 12.377 172.915 13.6507 175.072 13.6507Z" fill="white"/>
<path opacity="0.5" d="M175.988 12.5117H174.164V14.7882H175.988V12.5117Z" fill="white"/>
<path opacity="0.5" d="M175.269 14.125C176.459 14.125 177.601 14.4695 178.443 15.0827C179.285 15.6958 179.758 16.5275 179.758 17.3947V20.3861H170.78V17.3947C170.78 16.9653 170.896 16.5401 171.122 16.1434C171.347 15.7467 171.678 15.3863 172.095 15.0827C172.512 14.779 173.006 14.5382 173.551 14.3739C174.096 14.2096 174.679 14.125 175.269 14.125Z" fill="white"/>
<path opacity="0.5" d="M173.059 6.42703C172.786 6.53273 172.512 6.64541 172.238 6.76507C171.999 6.85323 171.8 6.98917 171.663 7.15695C171.631 7.22521 171.585 7.2897 171.528 7.3484C171.404 7.44712 171.199 7.44413 171.022 7.47404C170.447 7.57276 170.152 8.03344 169.996 8.44626C169.901 8.69331 169.826 8.94398 169.77 9.19712C169.716 9.36002 169.723 9.53048 169.79 9.6907C169.827 9.75951 169.885 9.81934 169.913 9.88814C170.02 10.1454 169.72 10.3877 169.647 10.651C169.61 10.8896 169.665 11.131 169.807 11.348C169.837 11.4176 169.88 11.4839 169.934 11.5454C169.984 11.5908 170.037 11.6337 170.094 11.674C170.219 11.7729 170.318 11.8874 170.386 12.0121C171.006 12.096 171.614 12.2222 172.201 12.389C173.158 12.6612 174.103 13.0441 175.129 13.0082C175.41 12.9988 175.687 12.9574 175.951 12.8856C176.464 12.745 176.908 12.4937 177.429 12.374C177.911 12.2938 178.399 12.2339 178.891 12.1945C179.125 12.1616 179.413 12.033 179.322 11.8715C179.441 11.9037 179.569 11.9115 179.693 11.8941C179.816 11.8767 179.931 11.8347 180.025 11.7728C180.201 11.6455 180.34 11.494 180.435 11.327C180.646 11.0477 180.811 10.7516 180.928 10.4445C181.126 9.84959 181.016 9.2225 180.62 8.68259C180.55 8.57556 180.448 8.48148 180.32 8.40737C180.226 8.35652 180.115 8.3266 180.025 8.27276C179.933 8.21094 179.857 8.13808 179.799 8.05737C179.473 7.65851 179.129 7.2786 178.768 6.91763C178.449 6.52921 177.98 6.21726 177.421 6.0202C176.563 5.78088 175.934 6.1608 175.121 6.18473C174.772 6.14765 174.418 6.13364 174.066 6.14285C173.713 6.20264 173.375 6.29831 173.059 6.42703Z" fill="white"/>
</g>
<g opacity="0.5">
<g opacity="0.5">
<path opacity="0.5" d="M305.371 21.2383H280.775V41.619H305.371V21.2383Z" fill="url(#paint15_linear)"/>
</g>
<path opacity="0.5" d="M304.849 21.5234H281.555V41.62H304.849V21.5234Z" fill="#E6E6E6"/>
<path opacity="0.5" d="M292.939 34.1292C295.312 34.1292 297.235 32.7283 297.235 31.0001C297.235 29.272 295.312 27.8711 292.939 27.8711C290.567 27.8711 288.643 29.272 288.643 31.0001C288.643 32.7283 290.567 34.1292 292.939 34.1292Z" fill="white"/>
<path opacity="0.5" d="M292.939 34.889C295.096 34.889 296.845 33.6153 296.845 32.0441C296.845 30.4729 295.096 29.1992 292.939 29.1992C290.782 29.1992 289.033 30.4729 289.033 32.0441C289.033 33.6153 290.782 34.889 292.939 34.889Z" fill="white"/>
<path opacity="0.5" d="M293.855 33.75H292.031V36.0265H293.855V33.75Z" fill="white"/>
<path opacity="0.5" d="M293.136 35.3633C294.327 35.3633 295.468 35.7078 296.31 36.3209C297.152 36.9341 297.625 37.7658 297.625 38.6329V41.6244H288.647V38.6329C288.647 37.7658 289.12 36.9341 289.962 36.3209C290.804 35.7078 291.946 35.3633 293.136 35.3633Z" fill="white"/>
<path opacity="0.5" d="M290.927 27.6653C290.653 27.771 290.379 27.8837 290.105 28.0033C289.866 28.0915 289.667 28.2274 289.53 28.3952C289.498 28.4635 289.452 28.528 289.395 28.5867C289.272 28.6854 289.066 28.6824 288.89 28.7123C288.315 28.811 288.019 29.2717 287.863 29.6845C287.769 29.9316 287.693 30.1823 287.637 30.4354C287.583 30.5983 287.59 30.7688 287.658 30.929C287.695 30.9978 287.752 31.0576 287.781 31.1264C287.888 31.3837 287.588 31.626 287.514 31.8892C287.477 32.1279 287.533 32.3693 287.674 32.5862C287.704 32.6558 287.747 32.7222 287.801 32.7837C287.851 32.829 287.904 32.872 287.962 32.9123C288.086 33.0112 288.185 33.1257 288.253 33.2503C288.873 33.3343 289.481 33.4605 290.068 33.6273C291.025 33.8995 291.97 34.2824 292.997 34.2465C293.277 34.2371 293.555 34.1957 293.818 34.1239C294.331 33.9833 294.775 33.732 295.296 33.6123C295.779 33.5321 296.267 33.4722 296.758 33.4328C296.993 33.3999 297.28 33.2713 297.19 33.1098C297.308 33.1419 297.436 33.1498 297.56 33.1324C297.684 33.1149 297.799 33.073 297.892 33.011C298.068 32.8838 298.208 32.7323 298.303 32.5653C298.513 32.286 298.679 31.9899 298.795 31.6828C298.993 31.0879 298.883 30.4608 298.487 29.9209C298.417 29.8138 298.315 29.7198 298.188 29.6457C298.093 29.5948 297.982 29.5649 297.892 29.511C297.8 29.4492 297.724 29.3764 297.666 29.2957C297.34 28.8968 296.997 28.5169 296.635 28.1559C296.316 27.7675 295.848 27.4555 295.288 27.2585C294.43 27.0192 293.802 27.3991 292.988 27.423C292.639 27.3859 292.286 27.3719 291.933 27.3811C291.581 27.4409 291.242 27.5366 290.927 27.6653Z" fill="white"/>
</g>
<path d="M174.398 189.602C179.764 189.567 184.075 186.369 184.026 182.461C183.977 178.552 179.588 175.412 174.221 175.447C168.855 175.483 164.544 178.68 164.593 182.589C164.642 186.498 169.031 189.638 174.398 189.602Z" fill="white"/>
<path d="M174.415 191.318C179.294 191.286 183.213 188.379 183.168 184.825C183.124 181.272 179.133 178.417 174.255 178.449C169.376 178.482 165.457 181.389 165.501 184.942C165.546 188.496 169.537 191.35 174.415 191.318Z" fill="white"/>
<path d="M176.445 188.731L172.321 188.758L172.386 193.906L176.509 193.879L176.445 188.731Z" fill="white"/>
<path d="M174.872 192.39C177.567 192.372 180.16 193.135 182.083 194.51C184.006 195.885 185.1 197.76 185.124 199.723L185.208 206.478L164.892 206.612L164.808 199.858C164.784 197.895 165.83 196.006 167.717 194.606C169.605 193.206 172.178 192.408 174.872 192.39Z" fill="white"/>
<path d="M174.512 177.862C176.463 177.848 178.028 176.684 178.009 175.263C177.989 173.843 176.392 172.702 174.442 172.716C172.491 172.731 170.925 173.894 170.945 175.315C170.964 176.736 172.562 177.876 174.512 177.862Z" fill="white"/>
<path d="M175.347 171.279C177.207 171.022 179.105 171.462 180.879 171.937C182.411 172.35 183.963 172.811 185.15 173.624C187.409 175.168 187.894 177.63 187.972 179.886C188.05 182.141 187.877 184.51 189.261 186.533C190.048 187.64 191.251 188.561 192.729 189.19C194.207 189.819 195.9 190.128 197.61 190.083C195.627 191.05 192.937 190.954 190.76 190.242C188.819 189.602 187.2 188.536 186.132 187.194C185.474 186.272 184.925 185.311 184.489 184.322C182.997 181.385 181.003 178.597 178.555 176.024C178.19 175.606 177.748 175.227 177.24 174.899C176.507 174.487 175.631 174.232 174.71 174.163C173.955 174.088 172.657 174.345 172.197 173.801C171.211 172.664 174.246 171.432 175.347 171.279Z" fill="white"/>
<path d="M305.486 190.022C310.689 190.022 314.907 186.949 314.907 183.159C314.907 179.369 310.689 176.297 305.486 176.297C300.282 176.297 296.064 179.369 296.064 183.159C296.064 186.949 300.282 190.022 305.486 190.022Z" fill="white"/>
<path d="M307.687 187.277H303.288V192.767H307.687V187.277Z" fill="white"/>
<path d="M305.494 191.152H306.426C309.176 191.152 311.814 191.948 313.759 193.365C315.703 194.781 316.796 196.702 316.796 198.706V206.25H295.124V198.721C295.121 197.728 295.387 196.744 295.907 195.826C296.427 194.907 297.191 194.073 298.154 193.37C299.117 192.667 300.261 192.109 301.521 191.729C302.78 191.348 304.13 191.152 305.494 191.152Z" fill="white"/>
<path d="M316.044 190.081C315.634 190.381 296.331 190.979 295.099 190.081C295.921 187.09 295.099 179.761 295.099 179.761C295.099 177.738 296.203 175.798 298.167 174.367C300.131 172.936 302.794 172.133 305.572 172.133C308.349 172.133 311.013 172.936 312.977 174.367C314.941 175.798 316.044 177.738 316.044 179.761C316.044 179.761 314.812 188.885 316.044 190.081Z" fill="white"/>
<defs>
<linearGradient id="paint0_linear" x1="93.6419" y1="69.5159" x2="99.1838" y2="57.5923" gradientUnits="userSpaceOnUse">
<stop stop-color="#808080" stop-opacity="0.25"/>
<stop offset="0.54" stop-color="#808080" stop-opacity="0.12"/>
<stop offset="1" stop-color="#808080" stop-opacity="0.1"/>
</linearGradient>
<linearGradient id="paint1_linear" x1="13722" y1="1328.66" x2="13409" y2="647.578" gradientUnits="userSpaceOnUse">
<stop stop-color="#808080" stop-opacity="0.25"/>
<stop offset="0.54" stop-color="#808080" stop-opacity="0.12"/>
<stop offset="1" stop-color="#808080" stop-opacity="0.1"/>
</linearGradient>
<linearGradient id="paint2_linear" x1="20546.9" y1="-954.833" x2="19752" y2="-2670.06" gradientUnits="userSpaceOnUse">
<stop stop-color="#808080" stop-opacity="0.25"/>
<stop offset="0.54" stop-color="#808080" stop-opacity="0.12"/>
<stop offset="1" stop-color="#808080" stop-opacity="0.1"/>
</linearGradient>
<linearGradient id="paint3_linear" x1="8061.04" y1="4726.19" x2="8597.51" y2="3013.64" gradientUnits="userSpaceOnUse">
<stop stop-color="#808080" stop-opacity="0.25"/>
<stop offset="0.54" stop-color="#808080" stop-opacity="0.12"/>
<stop offset="1" stop-color="#808080" stop-opacity="0.1"/>
</linearGradient>
<linearGradient id="paint4_linear" x1="11540.3" y1="52889.6" x2="11540.3" y2="36746.8" gradientUnits="userSpaceOnUse">
<stop stop-color="#808080" stop-opacity="0.25"/>
<stop offset="0.54" stop-color="#808080" stop-opacity="0.12"/>
<stop offset="1" stop-color="#808080" stop-opacity="0.1"/>
</linearGradient>
<linearGradient id="paint5_linear" x1="14753" y1="7243.87" x2="14753" y2="4533.57" gradientUnits="userSpaceOnUse">
<stop stop-color="#808080" stop-opacity="0.25"/>
<stop offset="0.54" stop-color="#808080" stop-opacity="0.12"/>
<stop offset="1" stop-color="#808080" stop-opacity="0.1"/>
</linearGradient>
<linearGradient id="paint6_linear" x1="7933.31" y1="3229.98" x2="7933.31" y2="1248.35" gradientUnits="userSpaceOnUse">
<stop stop-color="#808080" stop-opacity="0.25"/>
<stop offset="0.54" stop-color="#808080" stop-opacity="0.12"/>
<stop offset="1" stop-color="#808080" stop-opacity="0.1"/>
</linearGradient>
<linearGradient id="paint7_linear" x1="37347.7" y1="3869.7" x2="35807.8" y2="525.817" gradientUnits="userSpaceOnUse">
<stop stop-color="#808080" stop-opacity="0.25"/>
<stop offset="0.54" stop-color="#808080" stop-opacity="0.12"/>
<stop offset="1" stop-color="#808080" stop-opacity="0.1"/>
</linearGradient>
<linearGradient id="paint8_linear" x1="13323.9" y1="318.339" x2="12187.4" y2="-2129.14" gradientUnits="userSpaceOnUse">
<stop stop-color="#808080" stop-opacity="0.25"/>
<stop offset="0.54" stop-color="#808080" stop-opacity="0.12"/>
<stop offset="1" stop-color="#808080" stop-opacity="0.1"/>
</linearGradient>
<linearGradient id="paint9_linear" x1="1494.77" y1="12066.1" x2="2541.78" y2="8723.78" gradientUnits="userSpaceOnUse">
<stop stop-color="#808080" stop-opacity="0.25"/>
<stop offset="0.54" stop-color="#808080" stop-opacity="0.12"/>
<stop offset="1" stop-color="#808080" stop-opacity="0.1"/>
</linearGradient>
<linearGradient id="paint10_linear" x1="16781.1" y1="6195.2" x2="17482.7" y2="3941.91" gradientUnits="userSpaceOnUse">
<stop stop-color="#808080" stop-opacity="0.25"/>
<stop offset="0.54" stop-color="#808080" stop-opacity="0.12"/>
<stop offset="1" stop-color="#808080" stop-opacity="0.1"/>
</linearGradient>
<linearGradient id="paint11_linear" x1="18380.6" y1="19007.3" x2="18380.6" y2="14226.4" gradientUnits="userSpaceOnUse">
<stop stop-color="#808080" stop-opacity="0.25"/>
<stop offset="0.54" stop-color="#808080" stop-opacity="0.12"/>
<stop offset="1" stop-color="#808080" stop-opacity="0.1"/>
</linearGradient>
<linearGradient id="paint12_linear" x1="72163" y1="52660" x2="72163" y2="36516.5" gradientUnits="userSpaceOnUse">
<stop stop-color="#808080" stop-opacity="0.25"/>
<stop offset="0.54" stop-color="#808080" stop-opacity="0.12"/>
<stop offset="1" stop-color="#808080" stop-opacity="0.1"/>
</linearGradient>
<linearGradient id="paint13_linear" x1="42076.4" y1="53101.8" x2="42076.4" y2="36724.6" gradientUnits="userSpaceOnUse">
<stop stop-color="#808080" stop-opacity="0.25"/>
<stop offset="0.54" stop-color="#808080" stop-opacity="0.12"/>
<stop offset="1" stop-color="#808080" stop-opacity="0.1"/>
</linearGradient>
<linearGradient id="paint14_linear" x1="10655.8" y1="1388.54" x2="10655.8" y2="0" gradientUnits="userSpaceOnUse">
<stop stop-color="#808080" stop-opacity="0.25"/>
<stop offset="0.54" stop-color="#808080" stop-opacity="0.12"/>
<stop offset="1" stop-color="#808080" stop-opacity="0.1"/>
</linearGradient>
<linearGradient id="paint15_linear" x1="17832.8" y1="2856.81" x2="17832.8" y2="1468.27" gradientUnits="userSpaceOnUse">
<stop stop-color="#808080" stop-opacity="0.25"/>
<stop offset="0.54" stop-color="#808080" stop-opacity="0.12"/>
<stop offset="1" stop-color="#808080" stop-opacity="0.1"/>
</linearGradient>
</defs>
</svg>
