<svg width="205" height="129" viewBox="0 0 205 129" fill="none" xmlns="http://www.w3.org/2000/svg">
<g clip-path="url(#clip0)">
<path opacity="0.1" d="M203.716 88.8607C201.659 93.8171 197.355 98.294 192.736 102.534C188.675 106.261 184.331 109.864 179.704 113.34C178.422 114.306 177.119 115.259 175.796 116.2L174.877 116.849C174.062 117.427 173.233 117.999 172.39 118.566L172.289 118.635C171.472 119.193 170.647 119.745 169.815 120.291C167.094 122.082 164.217 123.861 161.036 125.334C159.953 125.837 158.835 126.306 157.677 126.726C157.051 126.954 156.412 127.167 155.76 127.366C154.69 127.692 153.592 127.976 152.446 128.21C152.254 128.249 152.061 128.287 151.868 128.324C150.694 128.544 149.506 128.705 148.305 128.816C143.904 129.219 139.358 128.924 134.95 128.233C132.747 127.888 130.578 127.442 128.479 126.936C128.221 126.874 127.964 126.811 127.706 126.755C120.56 124.963 113.851 122.531 106.655 120.821C104.174 120.231 101.646 119.731 99.0696 119.319C97.8127 119.119 96.5485 118.938 95.2772 118.776C92.2847 118.404 89.2544 118.154 86.2114 118.027C82.1083 117.846 77.8716 117.924 73.9672 118.642C73.4471 118.738 72.9336 118.845 72.4267 118.965C71.7838 119.115 71.153 119.287 70.5341 119.48C68.8659 120.02 67.2422 120.69 65.678 121.483C65.3692 121.636 65.064 121.789 64.7588 121.945C63.8016 122.434 62.8571 122.933 61.8982 123.418C60.1723 124.323 58.3762 125.087 56.5273 125.702C55.5147 126.022 54.4849 126.285 53.4428 126.491C50.6852 127.044 47.7505 127.263 44.8033 127.278C43.382 127.278 41.9589 127.247 40.5521 127.173H40.5088C40.0284 127.147 39.5462 127.118 39.064 127.082C36.868 126.932 34.6792 126.7 32.5229 126.384C25.1349 125.298 18.1279 123.246 12.4916 120.115C4.83625 115.867 -0.0253143 109.531 0.704281 103.202C1.228 98.6414 4.48048 94.407 7.56681 90.2613C13.3079 82.5417 18.6859 74.6466 21.5158 66.3245C23.8111 59.5694 24.4956 52.427 29.7779 46.356C31.4701 44.4125 33.6336 42.6391 36.1529 41.0847C38.0359 39.9295 40.0097 38.9297 42.0546 38.0953C44.3658 37.1468 46.7434 36.3696 49.1682 35.77C51.2697 35.2476 53.3994 34.8464 55.5467 34.5685C56.7134 34.4165 57.8944 34.2989 59.0827 34.2192C59.9977 34.1553 60.917 34.1149 61.8404 34.098H61.9831C62.5477 34.0871 63.1124 34.0871 63.677 34.098C67.7943 34.1619 71.9003 34.5485 75.9573 35.2543C78.4965 35.6795 81.0139 36.2007 83.479 36.7743C84.9503 37.1157 86.4082 37.4734 87.853 37.8474C88.2936 37.9614 88.7343 38.0772 89.1695 38.1948C99.4489 40.9544 108.493 44.7654 118.397 47.8923C118.447 47.9086 118.496 47.9248 118.547 47.9375C120.579 48.5639 122.643 49.0833 124.73 49.4937C126.263 49.8014 127.831 50.0674 129.425 50.3008C131.867 50.6627 134.361 50.9486 136.873 51.1947L137.428 51.249C141.113 51.6109 144.832 51.8805 148.444 52.1954C149.726 52.3076 150.997 52.4234 152.251 52.5573C153.045 52.6369 153.833 52.7214 154.613 52.8107C155.173 52.8758 155.734 52.9409 156.296 53.0097C156.858 53.0785 157.452 53.1509 158.03 53.225C158.405 53.2721 158.779 53.321 159.155 53.3734C161.43 53.6756 163.7 54.014 165.945 54.4013C167.31 54.6365 168.668 54.8898 170.01 55.1631C170.982 55.3609 171.945 55.5696 172.9 55.7892C173.608 55.9496 174.309 56.1185 175.005 56.2959C180.66 57.72 185.951 59.5875 190.511 62.1082C202.352 68.6389 207.651 79.3823 203.716 88.8607Z" fill="#EB6565"/>
<path opacity="0.1" d="M44.9658 16.3594C47.1231 16.3594 48.872 14.607 48.872 12.4453C48.872 10.2836 47.1231 8.53125 44.9658 8.53125C42.8084 8.53125 41.0596 10.2836 41.0596 12.4453C41.0596 14.607 42.8084 16.3594 44.9658 16.3594Z" fill="#EB6565"/>
<path opacity="0.1" d="M124.808 7.82816C126.965 7.82816 128.714 6.07577 128.714 3.91408C128.714 1.75239 126.965 0 124.808 0C122.65 0 120.901 1.75239 120.901 3.91408C120.901 6.07577 122.65 7.82816 124.808 7.82816Z" fill="#EB6565"/>
<path opacity="0.1" d="M172.15 16.5938C174.307 16.5938 176.056 14.8414 176.056 12.6797C176.056 10.518 174.307 8.76562 172.15 8.76562C169.993 8.76562 168.244 10.518 168.244 12.6797C168.244 14.8414 169.993 16.5938 172.15 16.5938Z" fill="#EB6565"/>
<path opacity="0.1" d="M6.54649 28.4709C10.162 28.4709 13.093 25.534 13.093 21.9112C13.093 18.2884 10.162 15.3516 6.54649 15.3516C2.93096 15.3516 0 18.2884 0 21.9112C0 25.534 2.93096 28.4709 6.54649 28.4709Z" fill="#EB6565"/>
<path opacity="0.1" d="M12.8221 60.8654C16.4377 60.8654 19.3686 57.9286 19.3686 54.3058C19.3686 50.683 16.4377 47.7461 12.8221 47.7461C9.2066 47.7461 6.27563 50.683 6.27563 54.3058C6.27563 57.9286 9.2066 60.8654 12.8221 60.8654Z" fill="#EB6565"/>
<path opacity="0.1" d="M188.525 48.9396C192.14 48.9396 195.071 46.0028 195.071 42.38C195.071 38.7572 192.14 35.8203 188.525 35.8203C184.909 35.8203 181.978 38.7572 181.978 42.38C181.978 46.0028 184.909 48.9396 188.525 48.9396Z" fill="#EB6565"/>
<path d="M63.9931 43.3125C64.0255 43.8633 63.9934 44.416 63.8974 44.9592C63.5362 46.6403 62.0084 47.7948 60.5293 48.6706C59.0503 49.5465 57.4249 50.3752 56.5455 51.8536C55.4854 53.6397 55.8231 56.041 57.0674 57.7094C58.3117 59.3778 60.2837 60.3713 62.3136 60.7856C66.0157 61.5511 70.07 60.4762 72.8457 57.9066C75.6215 55.3371 77.0138 51.3216 76.333 47.5921C74.8269 47.8039 73.485 46.472 72.9974 45.028C72.5098 43.584 72.611 42.0187 72.4214 40.5041C72.4075 40.248 72.3306 39.9993 72.1974 39.7803C71.9861 39.4871 71.6123 39.3677 71.2638 39.2718C69.5228 38.7922 66.5936 37.7427 64.7895 38.1444C63.1642 38.5172 63.966 41.9445 63.9931 43.3125Z" fill="#BE6F72"/>
<path opacity="0.1" d="M63.9931 43.3125C64.0255 43.8633 63.9934 44.416 63.8974 44.9592C63.5362 46.6403 62.0084 47.7948 60.5293 48.6706C59.0503 49.5465 57.4249 50.3752 56.5455 51.8536C55.4854 53.6397 55.8231 56.041 57.0674 57.7094C58.3117 59.3778 60.2837 60.3713 62.3136 60.7856C66.0157 61.5511 70.07 60.4762 72.8457 57.9066C75.6215 55.3371 77.0138 51.3216 76.333 47.5921C74.8269 47.8039 73.485 46.472 72.9974 45.028C72.5098 43.584 72.611 42.0187 72.4214 40.5041C72.4075 40.248 72.3306 39.9993 72.1974 39.7803C71.9861 39.4871 71.6123 39.3677 71.2638 39.2718C69.5228 38.7922 66.5936 37.7427 64.7895 38.1444C63.1642 38.5172 63.966 41.9445 63.9931 43.3125Z" fill="black"/>
<path d="M61.8892 123.422C60.1634 124.327 58.3672 125.09 56.5184 125.705C55.5057 126.026 54.476 126.289 53.4339 126.494C53.3601 125.103 53.4358 123.707 53.6596 122.332C53.8005 121.541 54.0082 120.758 54.0623 119.956C54.139 118.799 53.892 117.644 53.349 116.619C55.3608 116.344 57.2715 115.896 59.2923 116.028L59.4205 116.037C59.6608 116.043 59.8986 116.087 60.1249 116.169C60.4358 116.32 60.6999 116.552 60.8888 116.842C60.9928 116.984 61.0887 117.132 61.1759 117.285C61.7466 118.273 61.9633 119.413 62.0084 120.588C62.0297 121.534 61.9899 122.481 61.8892 123.422Z" fill="#BE6F72"/>
<path d="M72.4195 118.966C71.7766 119.117 71.1458 119.289 70.5269 119.482C68.8587 120.022 67.235 120.692 65.6708 121.485C65.5692 120.992 65.5196 120.49 65.5227 119.987C66.4445 119.35 67.4846 118.905 68.5813 118.679C69.678 118.453 70.8089 118.451 71.9067 118.671C72.0534 118.689 72.1929 118.745 72.3112 118.834C72.354 118.872 72.3906 118.917 72.4195 118.966Z" fill="#BE6F72"/>
<path d="M75.5239 109.831C75.4011 111.015 75.2205 112.202 74.8016 113.315C74.3483 114.509 73.6115 115.667 73.7054 116.943C73.7469 117.497 73.9347 118.097 73.9618 118.646C73.4417 118.741 72.9282 118.848 72.4214 118.968C71.7784 119.119 71.1476 119.29 70.5287 119.483C68.8605 120.024 67.2368 120.693 65.6726 121.487C65.3638 121.639 65.0586 121.792 64.7534 121.948C64.627 121.932 64.5024 121.912 64.376 121.888C63.473 121.724 62.5231 121.318 62.012 120.595C61.895 120.428 61.8031 120.245 61.7393 120.052C61.4449 119.17 61.7519 118.072 61.1397 117.374L61.1108 117.399L61.0892 117.413C60.7538 117.718 60.3855 117.984 59.9912 118.206C59.0935 118.715 58.0991 119.029 57.0724 119.128C56.0457 119.228 55.0097 119.109 54.0316 118.781C53.6441 118.649 53.2698 118.481 52.9137 118.278C52.0866 117.806 51.2884 117.012 51.3534 116.063C51.3895 115.535 51.6911 115.028 51.6098 114.505C51.5502 114.131 51.3046 113.82 51.1204 113.488C49.9123 111.317 51.3534 108.525 50.5949 106.165C50.5768 106.109 50.557 106.053 50.5371 105.999C50.4811 105.845 50.4179 105.696 50.3565 105.548C50.2012 105.202 50.0278 104.862 49.8906 104.508C49.7763 104.209 49.6857 103.903 49.6197 103.59C49.4492 102.683 49.3886 101.758 49.4391 100.836C49.4391 98.4057 49.8725 95.9176 50.4902 93.576C50.6003 93.1598 50.7231 92.5717 50.8857 91.9311C51.0441 91.2559 51.2579 90.595 51.525 89.9551C51.8862 89.1227 52.3774 88.4585 53.0492 88.3011C54.0605 88.0641 55.6064 88.5653 56.6321 88.6884L60.6864 89.1733L68.7932 90.1451C70.1928 90.3133 71.6629 90.507 72.8169 91.2959C72.8927 91.3484 72.9667 91.4027 73.0408 91.4606C73.3457 91.7012 73.6187 91.9797 73.8535 92.2894C73.9365 92.3962 74.016 92.5083 74.0918 92.6223C74.3549 93.0258 74.5786 93.4536 74.76 93.8999C75.7659 96.3211 75.7894 99.0228 75.7966 101.645C75.7966 104.381 75.8057 107.115 75.5239 109.831Z" fill="#3F3D56"/>
<path opacity="0.1" d="M59.9822 118.218C59.7384 117.277 59.2237 115.915 59.1478 115.544C58.8934 114.299 58.7089 113.041 58.5952 111.776C58.3948 109.521 58.0336 106.347 58.8282 104.203C59.574 104.601 60.2296 105.729 60.5745 106.498C61.8242 109.286 60.4174 112.71 61.5912 115.531C61.679 115.7 61.7336 115.884 61.752 116.074C61.7316 116.315 61.6454 116.545 61.5028 116.74L61.1073 117.398L59.9822 118.218Z" fill="black"/>
<path d="M85.9912 32.1316C87.3203 29.9601 89.1407 27.8248 89.027 25.286C88.9854 24.3813 88.6892 23.4964 88.4635 22.6097C87.8166 20.0435 87.7739 17.3617 88.3389 14.7761C90.5721 14.4166 92.8579 14.9296 94.7247 16.2093C95.3152 16.6182 95.875 17.1267 96.1351 17.7981C96.3753 18.4169 96.3355 19.1064 96.2922 19.7687C96.1929 21.2905 96.0574 22.9137 95.122 24.1116C94.8312 24.4862 94.4736 24.8029 94.1901 25.1811C93.7765 25.7239 93.5345 26.3862 93.298 27.0323L90.2279 35.4015C88.6784 39.6196 86.9989 44.0313 83.5857 46.9501C83.5026 47.0207 81.0574 43.5409 80.8551 43.1916C80.037 41.7603 80.3946 41.1559 81.3843 39.958C83.3365 37.5892 84.3966 34.7319 85.9912 32.1316Z" fill="#BE6F72"/>
<path d="M50.808 103.465C50.7976 104.09 50.7451 104.713 50.6509 105.331C50.6184 105.559 50.5805 105.785 50.5353 106.011C49.9195 109.232 48.3863 112.295 47.3136 115.433C45.8995 119.575 45.2783 123.169 44.7853 127.282C43.364 127.282 41.9409 127.252 40.5341 127.177H40.4908C40.0104 127.152 39.5282 127.123 39.046 127.087C39.4812 123.251 38.6848 119.226 39.4632 115.386C39.7774 113.841 40.3138 112.341 40.637 110.803C40.7367 110.35 40.8121 109.892 40.8628 109.431C40.9079 108.993 40.9314 108.539 41.1283 108.144C41.1463 108.106 41.1668 108.069 41.1897 108.034C41.3626 107.761 41.5771 107.517 41.8253 107.31C44.0258 105.377 46.7172 104.091 49.6017 103.595C50.0116 103.539 50.4107 103.492 50.808 103.465Z" fill="#FBBEBE"/>
<path opacity="0.1" d="M50.808 103.465C50.7976 104.09 50.7451 104.713 50.6509 105.331C50.6184 105.559 50.5805 105.785 50.5353 106.011C49.9195 109.232 48.3863 112.295 47.3136 115.433C45.8995 119.575 45.2783 123.169 44.7853 127.282C43.364 127.282 41.9409 127.252 40.5341 127.177H40.4908C40.0104 127.152 39.5282 127.123 39.046 127.087C39.4812 123.251 38.6848 119.226 39.4632 115.386C39.7774 113.841 40.3138 112.341 40.637 110.803C40.7367 110.35 40.8121 109.892 40.8628 109.431C40.9079 108.993 40.9314 108.539 41.1283 108.144C41.1463 108.106 41.1668 108.069 41.1897 108.034C41.3626 107.761 41.5771 107.517 41.8253 107.31C44.0258 105.377 46.7172 104.091 49.6017 103.595C50.0116 103.539 50.4107 103.492 50.808 103.465Z" fill="black"/>
<path d="M41.6519 111.711C41.6227 112.717 41.5401 113.72 41.4045 114.717C40.9223 118.79 40.832 123.041 40.5016 127.176C40.0212 127.15 39.539 127.121 39.0568 127.085C36.8608 126.935 34.672 126.703 32.5157 126.387C32.6819 125.455 32.8492 124.524 33.0178 123.593C33.2237 122.451 33.4295 121.298 33.3699 120.14C33.314 119.045 33.0214 117.979 32.7884 116.906C32.2918 114.608 32.0137 112.129 31.1956 109.961C30.7689 108.745 30.088 107.635 29.1982 106.704C32.5826 105.372 35.835 105.296 39.4704 105.437C39.7285 105.423 39.9849 105.486 40.2072 105.618C40.3795 105.768 40.5075 105.962 40.5774 106.179C41.1237 107.496 41.4665 108.888 41.5941 110.309C41.6376 110.775 41.6569 111.243 41.6519 111.711Z" fill="#FBBEBE"/>
<path d="M68.9124 42.3763C72.8022 42.3763 75.9555 39.2166 75.9555 35.319C75.9555 31.4214 72.8022 28.2617 68.9124 28.2617C65.0226 28.2617 61.8693 31.4214 61.8693 35.319C61.8693 39.2166 65.0226 42.3763 68.9124 42.3763Z" fill="#BE6F72"/>
<path d="M70.377 51.8158C71.28 50.2723 72.071 48.3451 73.8083 47.9162C74.7889 47.6719 75.8093 48.0049 76.7646 48.3324C77.0414 48.3981 77.2927 48.5441 77.487 48.7522C77.6281 48.9767 77.7038 49.2361 77.7055 49.5014C78.008 52.6916 77.9977 55.9039 77.6748 59.0921C77.4454 61.3486 77.059 63.5943 76.9903 65.8616C76.8946 69.0049 77.4111 72.1481 77.2414 75.2877C77.1132 77.6672 76.593 80.0052 76.0765 82.3305L73.9094 92.0659C73.8706 92.3672 73.7501 92.652 73.5609 92.8893C73.3781 93.0572 73.1595 93.181 72.9216 93.2512C69.7848 94.3623 66.4503 94.8019 63.1334 94.5416C59.8165 94.2814 56.5909 93.327 53.665 91.7402C52.883 91.3095 52.1028 90.8119 51.5936 90.0772C50.8712 89.0349 50.8044 87.656 51.0392 86.4074C51.2739 85.1588 51.7814 83.9808 52.1227 82.7557C52.65 80.8557 52.7747 78.8724 52.8938 76.9036C53.0528 74.3123 53.2117 71.7047 52.9354 69.1225C52.7458 67.3437 52.3503 65.592 52.0523 63.8277C51.6134 61.1686 51.3588 58.4822 51.2902 55.7878C51.245 54.1791 51.3191 52.3931 52.4297 51.2332C52.9715 50.6686 53.6939 50.3284 54.4289 50.0533C55.6623 49.5973 57.0403 49.3295 58.2863 49.7457C59.5324 50.1619 60.5365 51.472 60.2422 52.755C60.1067 53.3503 59.7221 53.8715 59.6282 54.4759C59.5035 55.2757 59.9261 56.081 60.5311 56.622C63.7854 59.568 68.7535 54.6098 70.377 51.8158Z" fill="#E3E8F4"/>
<path d="M70.6353 44.6033C71.6236 44.2385 72.6977 44.1755 73.7217 44.4223C74.3736 44.5779 75.0779 44.853 75.6793 44.5616C75.8978 44.4567 76.0784 44.2848 76.2987 44.1871C76.8947 43.9247 77.6676 44.2468 78.1949 43.865C78.5272 43.6243 78.6356 43.1864 78.7476 42.7883C79.2899 40.888 80.4012 39.2003 81.9314 37.9531C81.7418 39.3411 81.6045 40.9208 82.5201 41.9812C82.9373 42.4626 83.5224 42.7648 84.1148 43C84.9654 43.3384 85.899 43.5628 86.7966 43.3782C87.6941 43.1936 88.5339 42.5132 88.6766 41.6066C88.6459 42.9692 87.351 43.9211 86.988 45.2366C86.8508 45.7288 86.8634 46.2518 86.7677 46.7548C86.5239 48.0396 85.6083 49.0711 84.8083 50.1061C82.253 53.4354 80.6208 57.3818 80.0767 61.5462C80.0397 62.0404 79.9364 62.5273 79.7697 62.9938C79.5927 63.3517 79.3924 63.6974 79.1701 64.0289C77.8464 66.2691 78.2545 69.0957 78.7042 71.6544C79.4067 75.6626 80.1074 79.5893 81.2451 83.4962C81.4402 84.1639 81.6605 84.8606 82.1571 85.3474C82 86.9271 80.409 87.6473 78.9787 88.3295C77.5665 89.0043 76.2637 89.8882 75.114 90.9516C74.7023 91.3316 74.2959 91.7586 74.146 92.2997C74.0052 92.8082 74.1063 93.3673 73.9257 93.8613C73.7451 94.3553 73.0228 94.71 72.7049 94.2938C72.3076 92.8046 72.9866 91.2465 72.9559 89.7048C72.9343 88.6643 72.5948 87.6527 72.546 86.6122C72.499 85.4342 72.8458 84.2779 73.2142 83.1596C74.24 80.0453 75.4788 76.96 75.8346 73.701C76.1904 70.442 75.5258 66.8826 73.2178 64.5573C70.4782 61.785 68.9576 58.0266 66.0212 55.4805C65.5552 55.077 65.0279 54.5758 65.1056 53.9641C65.1592 53.6948 65.2776 53.4426 65.4505 53.2294C66.4582 51.8035 67.7982 50.64 68.8818 49.2756C69.9653 47.9111 70.8322 46.3404 70.6353 44.6033Z" fill="#3F3D56"/>
<path d="M60.9935 47.5227C60.8129 47.7037 60.6883 47.9534 60.4788 48.109C60.2341 48.2603 59.9551 48.3468 59.6679 48.3605C58.6051 48.5223 57.5334 48.6184 56.4588 48.6483C55.5558 48.6483 54.6186 48.5686 53.7499 48.8165C52.5381 49.1604 51.5702 50.1194 50.9634 51.2233C50.3566 52.3271 50.0694 53.5757 49.8365 54.8189C49.3229 57.5578 49.048 60.3363 49.0148 63.1229C50.5033 61.9335 51.8299 60.5537 52.9607 59.0188C53.8276 57.8408 54.6131 56.5379 55.8502 55.7508C56.4191 55.3889 57.0584 55.15 57.6309 54.7971C58.8246 54.0606 59.6517 52.87 60.4463 51.7209C61.0314 50.8686 62.7236 49.2038 62.8572 48.1832C62.971 47.2078 61.6256 46.7319 60.9935 47.5227Z" fill="#3F3D56"/>
<path d="M67.2854 30.4867C67.5084 30.621 67.722 30.7703 67.9247 30.9337C69.1509 31.7914 70.7925 31.6322 72.2752 31.4368C72.7303 31.3788 73.198 31.3137 73.5881 31.0748C74.2147 30.6876 74.5091 29.8914 74.4477 29.1549C74.3863 28.4184 74.0161 27.7398 73.5646 27.1644C72.9665 26.4029 72.2203 25.771 71.3713 25.3069C70.5223 24.8428 69.5882 24.5562 68.6254 24.4645C68.1269 24.399 67.62 24.453 67.1463 24.6219C66.563 24.8626 66.1242 25.3584 65.586 25.6896C63.9986 26.6667 61.5534 26.2325 60.5294 27.7923C59.7799 28.9432 60.3145 30.5066 59.9605 31.8294C59.6969 32.8174 58.9366 33.7168 59.0828 34.7247C59.1641 35.2676 59.5036 35.7417 59.7745 36.2267C60.3966 37.3416 60.6844 38.6127 60.6034 39.8874C61.2987 40.3796 62.2685 39.6142 62.4617 38.7854C62.655 37.9566 62.4329 37.0735 62.5972 36.2375C62.8879 34.77 64.181 33.6933 64.7643 32.347C65.1833 31.3825 65.8659 29.7539 67.2854 30.4867Z" fill="#3F3D56"/>
<path d="M50.2084 46.5504C50.1542 46.8797 50.1199 47.2434 50.3023 47.5221C50.6635 48.065 51.4906 47.8696 52.1407 47.951C53.1539 48.0758 53.9015 49.0367 54.0984 50.0465C54.2952 51.0562 54.0604 52.084 53.804 53.0757C53.2237 55.3231 52.5326 57.5386 51.7308 59.7222C49.5745 59.467 47.3045 58.6364 46.1595 56.7925C45.1193 55.115 45.2258 52.9779 44.5649 51.1177C44.1007 49.8076 43.2682 48.6676 42.4447 47.5493C43.7684 47.7157 44.7148 46.1993 44.7924 44.8639C44.8701 43.5284 44.4511 42.1731 44.7364 40.8684C44.8032 40.5589 50.0206 41.5343 50.528 41.8871C51.9944 42.9059 50.4395 45.1353 50.2084 46.5504Z" fill="#FBBEBE"/>
<path opacity="0.1" d="M50.2084 46.5504C50.1542 46.8797 50.1199 47.2434 50.3023 47.5221C50.6635 48.065 51.4906 47.8696 52.1407 47.951C53.1539 48.0758 53.9015 49.0367 54.0984 50.0465C54.2952 51.0562 54.0604 52.084 53.804 53.0757C53.2237 55.3231 52.5326 57.5386 51.7308 59.7222C49.5745 59.467 47.3045 58.6364 46.1595 56.7925C45.1193 55.115 45.2258 52.9779 44.5649 51.1177C44.1007 49.8076 43.2682 48.6676 42.4447 47.5493C43.7684 47.7157 44.7148 46.1993 44.7924 44.8639C44.8701 43.5284 44.4511 42.1731 44.7364 40.8684C44.8032 40.5589 50.0206 41.5343 50.528 41.8871C51.9944 42.9059 50.4395 45.1353 50.2084 46.5504Z" fill="black"/>
<path d="M49.0472 44.3685C52.937 44.3685 56.0903 41.2088 56.0903 37.3112C56.0903 33.4136 52.937 30.2539 49.0472 30.2539C45.1573 30.2539 42.004 33.4136 42.004 37.3112C42.004 41.2088 45.1573 44.3685 49.0472 44.3685Z" fill="#FBBEBE"/>
<path d="M46.8783 45.5393C47.1348 45.1376 46.6977 44.5766 46.8982 44.1441C47.0174 43.8836 47.319 43.7714 47.552 43.6013C47.8441 43.363 48.0772 43.0601 48.2328 42.7164C49.3293 40.6051 49.6612 38.1781 49.1719 35.8491C49.0057 35.0674 48.8576 34.0287 49.571 33.6776C49.7687 33.5892 49.9854 33.5519 50.2013 33.569C51.4871 33.6107 52.7296 34.4738 53.9774 34.168C54.4034 34.052 54.7838 33.8084 55.0678 33.4698C55.3518 33.1312 55.5259 32.7138 55.5667 32.2734C55.6479 31.1044 54.7739 30.1019 53.9142 29.3148C52.3666 27.8888 50.008 27.5722 47.9059 27.5378L43.9961 27.4726C42.7446 27.4509 41.3414 27.4907 40.4709 28.3901C39.2176 29.6839 39.8479 31.8011 39.6673 33.5944C39.5137 35.0256 38.7992 36.3372 37.6807 37.2406C36.8699 37.8885 35.7538 38.5073 35.7683 39.5424C35.7683 39.9043 35.9236 40.2337 36.0229 40.5757C36.422 41.9292 36.041 43.4257 35.2753 44.611C34.5095 45.7963 33.3899 46.7083 32.2286 47.5063C31.6074 47.9315 30.9645 48.3405 30.4733 48.9178C29.9348 49.5845 29.615 50.4017 29.5577 51.2575C29.4804 51.9115 29.6146 52.573 29.9405 53.1449C30.7044 54.3682 32.5375 54.5473 33.7926 53.838C35.0477 53.1286 35.8134 51.7859 36.3209 50.436C36.6243 49.6343 36.9331 48.7169 37.7096 48.3568C38.6921 47.899 39.8406 48.6228 40.4799 49.5004C41.1192 50.3781 41.5129 51.4493 42.331 52.1623C43.6132 53.2806 45.7948 53.0997 46.8783 51.7859C47.6531 50.8431 47.8246 49.5384 47.7813 48.317C47.7598 47.3222 47.4456 46.3559 46.8783 45.5393Z" fill="#3F3D56"/>
<path d="M49.4067 54.7384C48.603 54.9103 47.7633 54.5303 47.1655 53.9621C46.5677 53.3939 46.165 52.661 45.746 51.9516C44.6838 50.1624 43.4661 48.4705 42.1071 46.8957C40.9224 45.5259 39.2736 44.1343 37.5146 44.5578C36.9257 44.7281 36.3792 45.021 35.911 45.4173C34.36 46.6478 33.1461 48.2524 32.3827 50.081C31.6193 51.9097 31.3314 53.9025 31.546 55.873C31.6833 57.0256 31.9957 58.153 32.1257 59.3111C32.2133 60.2657 32.2387 61.225 32.2016 62.1829C32.1528 65.0999 32.0535 68.1852 30.4841 70.6426C28.0516 74.4427 26.7495 78.9811 24.9634 83.1286C23.999 85.3706 23.4212 87.7574 22.8541 90.1316C22.5182 91.5406 22.1829 92.9491 21.8482 94.3569L19.663 103.568C19.4373 104.518 19.2115 105.513 19.4499 106.463C19.8111 107.882 21.1421 108.873 22.5453 109.277C23.9485 109.68 25.4348 109.611 26.8921 109.624C29.6805 109.651 32.4905 109.999 35.1073 110.969C35.855 111.246 36.6008 111.577 37.3972 111.642C38.1936 111.707 38.9865 111.499 39.7323 111.209C41.7676 110.42 43.5121 109.038 45.3867 107.921C46.5576 107.214 47.7908 106.617 49.0708 106.135C49.7137 105.895 50.4035 105.667 50.846 105.14C51.1801 104.744 51.33 104.226 51.4401 103.72C52.0505 100.868 51.6406 97.9127 51.4401 95.0029C51.2397 92.0931 49.5042 89.0187 50.9399 86.4817C51.2288 85.9696 51.5738 85.4774 51.7219 84.9092C51.9169 84.1673 51.7526 83.3692 51.9169 82.6201C52.0379 82.0664 52.3287 81.5687 52.5273 81.0385C52.874 80.1048 52.921 79.0878 52.9174 78.0907C52.9092 75.9016 52.6793 73.7189 52.2311 71.5763C51.6623 68.862 53.544 66.1784 54.6222 63.6143C55.0087 62.6968 55.5558 61.83 55.7166 60.8474C55.861 59.9608 55.675 59.0578 55.536 58.1693C55.3284 56.7922 55.2438 55.3994 55.2832 54.0073C55.3175 52.7587 55.4493 51.4866 55.1513 50.2724C54.8533 49.0581 54.0027 47.8801 52.7801 47.6304C52.643 47.5901 52.4988 47.5808 52.3576 47.603C52.2165 47.6252 52.082 47.6784 51.9639 47.7589C51.8227 47.8975 51.7232 48.0731 51.6767 48.2656C51.2794 49.4852 51.3571 50.7989 51.1349 52.0656C50.9128 53.3323 50.6528 54.4705 49.4067 54.7384Z" fill="#F86D70"/>
<path d="M32.3641 62.5088C32.4382 62.0076 32.2052 61.3416 31.6995 61.3597C31.2336 61.3778 31.0259 61.9623 31.0277 62.431C31.0295 62.8997 31.0928 63.4371 30.7623 63.7665C30.4697 64.0578 29.9857 64.0487 29.6462 64.2858C29.5264 64.3714 29.4289 64.4847 29.3619 64.616C29.295 64.7474 29.2605 64.8929 29.2615 65.0404C29.2615 65.2919 29.3753 65.5326 29.3825 65.7841C29.3898 66.0357 29.2218 66.327 28.9726 66.3107C28.8446 66.5259 28.7913 66.7776 28.821 67.0264C28.8507 67.2752 28.9618 67.5071 29.1369 67.686C29.267 67.8126 29.4367 67.9212 29.4801 68.0986C29.4938 68.2229 29.484 68.3488 29.4512 68.4695C29.3753 68.9671 29.7184 69.5245 30.2187 69.5788C29.9388 69.7796 29.9947 70.2501 30.2512 70.4836C30.5076 70.717 30.876 70.7622 31.221 70.7622C32.0038 70.7579 32.778 70.5973 33.4983 70.2899C33.7449 70.2084 33.963 70.0576 34.1267 69.8556C34.2027 69.7515 34.2391 69.6236 34.2295 69.4949C34.2199 69.3663 34.1649 69.2452 34.0743 69.1535C34.4247 69.2114 34.8455 69.244 35.0748 68.9726C35.3945 68.5926 35.0514 68.0298 34.7136 67.6624C34.8537 67.6416 34.9846 67.5799 35.0899 67.4852C35.1953 67.3904 35.2706 67.2667 35.3064 67.1294C35.3422 66.9922 35.3369 66.8474 35.2912 66.7131C35.2456 66.5788 35.1615 66.4609 35.0495 66.374C34.934 66.289 34.7769 66.2148 34.7606 66.0718C34.7443 65.9289 34.8653 65.8366 34.9159 65.7099C35.0315 65.4258 34.7678 65.1363 34.5132 64.9644C33.91 64.5627 33.0215 64.5699 32.4851 64.1646C31.9488 63.7592 32.2865 63.0517 32.3641 62.5088Z" fill="#BE6F72"/>
<path d="M69.6203 35.0515C69.1829 35.0957 68.7428 35.106 68.3038 35.0823C68.229 35.0741 68.1539 35.0957 68.0948 35.1424C68.0357 35.1891 67.9973 35.2572 67.9878 35.332L67.148 41.6438C67.0834 42.1019 66.8962 42.534 66.6062 42.8942C66.3672 43.1808 66.1895 43.5135 66.0842 43.8718C65.9789 44.2301 65.9482 44.6063 65.994 44.977V55.6986C65.994 55.6986 65.9399 57.1282 67.0361 57.1282C68.348 57.2934 69.6755 57.2934 70.9874 57.1282C70.9874 57.1282 71.8651 56.9617 71.8651 55.6425V45.0855C71.9321 44.7172 71.9183 44.3387 71.8247 43.9763C71.7312 43.6138 71.5601 43.2761 71.3233 42.9865C71.0431 42.625 70.8619 42.1965 70.7978 41.7433L69.9255 35.2994C69.9156 35.227 69.8786 35.161 69.8219 35.115C69.7652 35.0689 69.6931 35.0463 69.6203 35.0515Z" fill="#3F3D56"/>
<path opacity="0.1" d="M69.6203 35.0515C69.1829 35.0957 68.7428 35.106 68.3038 35.0823C68.229 35.0741 68.1539 35.0957 68.0948 35.1424C68.0357 35.1891 67.9973 35.2572 67.9878 35.332L67.148 41.6438C67.0834 42.1019 66.8962 42.534 66.6062 42.8942C66.3672 43.1808 66.1895 43.5135 66.0842 43.8718C65.9789 44.2301 65.9482 44.6063 65.994 44.977V55.6986C65.994 55.6986 65.9399 57.1282 67.0361 57.1282C68.348 57.2934 69.6755 57.2934 70.9874 57.1282C70.9874 57.1282 71.8651 56.9617 71.8651 55.6425V45.0855C71.9321 44.7172 71.9183 44.3387 71.8247 43.9763C71.7312 43.6138 71.5601 43.2761 71.3233 42.9865C71.0431 42.625 70.8619 42.1965 70.7978 41.7433L69.9255 35.2994C69.9156 35.227 69.8786 35.161 69.8219 35.115C69.7652 35.0689 69.6931 35.0463 69.6203 35.0515Z" fill="black"/>
<path d="M69.6257 45.168H68.2947C67.1926 45.168 66.2992 46.0632 66.2992 47.1675V52.1854C66.2992 53.2898 67.1926 54.185 68.2947 54.185H69.6257C70.7278 54.185 71.6213 53.2898 71.6213 52.1854V47.1675C71.6213 46.0632 70.7278 45.168 69.6257 45.168Z" fill="#EB6565"/>
<path d="M87.5118 7.77918C87.1258 7.99174 86.7236 8.17327 86.309 8.32205C86.2371 8.34353 86.1764 8.39216 86.1397 8.45767C86.103 8.52318 86.0931 8.60043 86.1122 8.6731L87.7628 14.8256C87.8808 15.2722 87.8758 15.7425 87.7483 16.1864C87.6371 16.543 87.6005 16.9189 87.6409 17.2904C87.6813 17.6618 87.7978 18.0209 87.9831 18.3452L92.1042 28.2399C92.1042 28.2399 92.6027 29.579 93.6158 29.1555C94.8912 28.801 96.1169 28.2866 97.2638 27.6246C97.2638 27.6246 98.0096 27.1324 97.504 25.9164L93.446 16.1737C93.3662 15.8079 93.2081 15.4638 92.9827 15.1652C92.7572 14.8665 92.4699 14.6204 92.1403 14.4438C91.7432 14.2186 91.4115 13.8937 91.1778 13.501L87.8964 7.89137C87.8592 7.82648 87.7984 7.77855 87.7266 7.75763C87.6549 7.73672 87.5779 7.74444 87.5118 7.77918Z" fill="#3F3D56"/>
<path d="M91.4083 17.1148L90.18 17.6284C89.1629 18.0537 88.6824 19.2246 89.1069 20.2438L91.0354 24.8747C91.4598 25.8938 92.6284 26.3753 93.6455 25.95L94.8738 25.4364C95.891 25.0111 96.3714 23.8402 95.947 22.821L94.0185 18.1901C93.594 17.171 92.4255 16.6895 91.4083 17.1148Z" fill="#EB6565"/>
<path d="M36.832 45.7235C34.8906 46.5251 34.1231 49.0187 34.5782 51.0707C35.0333 53.1228 36.404 54.8328 37.7404 56.4596L41.4859 61.0378C42.5206 62.3045 43.653 63.6381 45.2313 64.0797C47.5393 64.7257 49.8473 63.2527 51.8428 61.9209C57.7995 57.9436 64.1666 54.6213 70.834 52.0117C71.4859 51.7584 72.1541 51.5014 72.6905 51.049C73.8029 50.1117 74.1154 48.3835 73.4959 47.068C72.8765 45.7524 71.4336 44.8965 69.9798 44.8857C68.526 44.8748 67.112 45.6457 66.2379 46.811C65.8207 47.3666 65.5155 48.0017 65.1128 48.5663C64.0943 49.985 62.5051 50.8626 60.9502 51.6552C57.201 53.5719 53.3416 55.2638 49.3922 56.722C48.6698 56.9862 47.8554 57.2377 47.1745 56.8885C46.7574 56.6731 46.4756 56.266 46.2228 55.8679C45.0707 54.0507 44.1543 52.0939 43.4958 50.0447C43.0028 48.5066 42.6037 46.8309 41.419 45.738C39.7395 44.189 36.6983 44.5599 35.4396 46.4618C35.4396 46.4618 33.9642 48.6242 34.8671 49.529C35.7701 50.4338 36.832 45.7235 36.832 45.7235Z" fill="#FBBEBE"/>
<path d="M138.116 38.2375C138.379 38.9414 138.386 39.7123 138.349 40.4633C138.302 41.3789 138.072 42.4538 137.223 42.803C136.671 43.0256 135.988 42.8573 135.497 43.1939C134.901 43.5992 134.93 44.4714 135.022 45.1844C135.277 47.1442 135.564 49.1763 136.629 50.8339C137.202 51.7223 137.977 52.4625 138.762 53.17C140.328 54.5851 142.045 55.9676 144.102 56.4399C144.437 56.5345 144.79 56.5494 145.132 56.4833C145.469 56.379 145.775 56.1924 146.022 55.9404C147.214 54.8438 147.828 53.2786 148.622 51.8599C149.184 50.8447 149.854 49.8694 150.17 48.751C150.43 47.7739 150.413 46.7434 150.12 45.7756C149.827 44.8077 149.27 43.9412 148.512 43.2735C148.16 42.9713 147.77 42.718 147.429 42.4049C146.537 41.5942 146.017 40.4307 145.803 39.2436C145.59 38.0565 145.623 36.8351 145.726 35.6245C143.92 35.4852 142.127 35.7041 140.364 36.057C139.58 36.2144 138.477 36.2868 137.767 36.6614C136.969 37.0866 137.897 37.6313 138.116 38.2375Z" fill="#FBBEBE"/>
<path opacity="0.1" d="M138.116 38.2375C138.379 38.9414 138.386 39.7123 138.349 40.4633C138.302 41.3789 138.072 42.4538 137.223 42.803C136.671 43.0256 135.988 42.8573 135.497 43.1939C134.901 43.5992 134.93 44.4714 135.022 45.1844C135.277 47.1442 135.564 49.1763 136.629 50.8339C137.202 51.7223 137.977 52.4625 138.762 53.17C140.328 54.5851 142.045 55.9676 144.102 56.4399C144.437 56.5345 144.79 56.5494 145.132 56.4833C145.469 56.379 145.775 56.1924 146.022 55.9404C147.214 54.8438 147.828 53.2786 148.622 51.8599C149.184 50.8447 149.854 49.8694 150.17 48.751C150.43 47.7739 150.413 46.7434 150.12 45.7756C149.827 44.8077 149.27 43.9412 148.512 43.2735C148.16 42.9713 147.77 42.718 147.429 42.4049C146.537 41.5942 146.017 40.4307 145.803 39.2436C145.59 38.0565 145.623 36.8351 145.726 35.6245C143.92 35.4852 142.127 35.7041 140.364 36.057C139.58 36.2144 138.477 36.2868 137.767 36.6614C136.969 37.0866 137.897 37.6313 138.116 38.2375Z" fill="black"/>
<path d="M128.039 43.5648C125.106 42.5569 123.704 38.6193 120.634 38.1778C120.15 38.1072 119.654 38.1344 119.179 38.0222C117.411 37.6023 116.65 35.5539 116.139 33.8077C114.416 27.9863 112.166 22.2898 108.97 17.129C107.621 14.9575 105.488 13.1733 104.515 10.7955C104.291 10.2526 104.177 9.63377 103.774 9.2049C103.371 8.77603 102.51 8.71451 102.291 9.261C102.231 9.45458 102.217 9.66 102.252 9.85996L102.463 12.1129L98.7898 11.7817C98.45 11.7237 98.1012 11.7485 97.773 11.8541C97.4186 12.0318 97.1361 12.3264 96.973 12.6883C95.7305 15.0281 97.0542 18.0935 99.2466 19.5737C101.807 21.3018 105.464 21.5642 107.166 24.1428C108.177 25.6773 108.197 27.6516 108.863 29.3652C109.181 30.185 109.645 30.9377 110.015 31.7321C110.722 33.2467 111.083 34.8934 111.63 36.4714C112.414 38.7279 113.575 40.8306 114.732 42.9206C115.625 44.5348 116.538 46.1779 117.911 47.412C118.814 48.2227 119.876 48.8234 120.938 49.4025C123.549 50.832 126.628 52.2073 129.395 51.1107C129.554 48.6389 128.934 45.8829 128.039 43.5648Z" fill="#FBBEBE"/>
<path d="M136.944 121.46C136.721 123.822 135.291 125.961 134.957 128.234C132.754 127.888 130.585 127.443 128.486 126.936C128.228 126.875 127.972 126.811 127.714 126.755C128.902 123.498 127.867 119.85 128.181 116.381C128.212 116.048 128.255 115.715 128.313 115.386C131.035 114.456 133.492 113.214 136.346 113.576C136.402 114.155 136.46 114.736 136.516 115.315C136.63 116.472 136.743 117.628 136.855 118.782C136.97 119.67 136.999 120.567 136.944 121.46Z" fill="#FBBEBE"/>
<path d="M155.765 127.37C154.696 127.696 153.598 127.98 152.451 128.213C152.26 128.253 152.066 128.291 151.873 128.327C150.699 128.548 149.511 128.709 148.31 128.819C148.187 126.304 146.504 123.991 146.259 121.409C146.208 120.768 146.215 120.123 146.278 119.482C146.3 119.229 146.325 118.975 146.349 118.722L146.858 113.516C147.264 113.465 147.672 113.445 148.081 113.456C150.428 113.512 152.565 114.531 154.891 115.325C155.064 116.424 155.125 117.537 155.071 118.648C154.983 121.474 154.53 124.335 155.577 126.928C155.637 127.075 155.702 127.222 155.765 127.37Z" fill="#FBBEBE"/>
<path d="M125.281 87.6791C125.597 90.1474 124.338 92.5107 123.793 94.9373C123.432 96.5424 123.383 98.1945 123.334 99.8412L123.049 109.705C123.02 110.691 122.995 111.696 123.294 112.642C123.898 114.538 125.756 115.82 127.69 116.276C129.624 116.732 131.647 116.5 133.617 116.239C134.583 116.111 135.591 115.961 136.391 115.402C137.491 114.633 137.971 113.263 138.386 111.985L139.559 108.379C140.908 111.422 140.337 114.75 141.146 117.98C141.198 118.279 141.322 118.56 141.507 118.8C141.848 119.18 142.41 119.24 142.921 119.276C146.461 119.526 150.049 119.773 153.531 119.095C154.488 118.914 155.487 118.621 156.148 117.901C156.917 117.063 157.051 115.83 157.042 114.692C156.993 110.782 155.583 107.009 155.268 103.111C155.133 101.441 155.2 99.7616 155.14 98.0859C155.093 96.8257 154.976 95.5691 154.788 94.322C154.728 93.7508 154.572 93.1939 154.326 92.6753C153.784 91.662 152.659 91.1119 151.593 90.6848C143.315 87.3154 134.209 87.348 125.281 87.6791Z" fill="#F86D70"/>
<path d="M140.608 39.1208C144.897 39.1208 148.373 35.6371 148.373 31.3397C148.373 27.0423 144.897 23.5586 140.608 23.5586C136.319 23.5586 132.842 27.0423 132.842 31.3397C132.842 35.6371 136.319 39.1208 140.608 39.1208Z" fill="#FBBEBE"/>
<path d="M147.376 45.044C146.8 46.3107 145.894 47.5774 144.545 47.8995C143.304 48.1981 141.989 47.5991 141.076 46.707C140.162 45.8149 139.564 44.6568 138.93 43.5475C138.468 42.7368 137.953 41.9189 137.171 41.4086C136.102 40.7137 134.722 40.7318 133.462 40.9363C132.201 41.1408 130.95 41.5063 129.669 41.4231C128.075 41.3163 126.449 40.5183 124.945 41.0503C125.433 43.2363 125.257 45.6394 125.201 47.8796C125.211 48.2255 125.162 48.5706 125.057 48.9002C124.926 49.2075 124.748 49.4931 124.531 49.7471L123.087 51.6127C124.636 52.7745 125.976 54.2909 126.518 56.1529C126.823 57.2133 126.729 58.3389 126.718 59.4427C126.684 62.6836 127.387 65.9119 127.164 69.1456C126.904 72.933 125.395 76.5123 124.616 80.2273C123.95 83.4165 123.824 86.6955 124.244 89.9266C132.338 92.7332 140.678 94.17 149.235 94.6405C150.746 94.7237 152.379 94.7364 153.62 93.866C154.651 93.1421 155.229 91.9026 155.425 90.654C155.622 89.4054 155.487 88.1351 155.35 86.8793C154.978 83.4833 154.606 80.0874 154.235 76.6914C154.024 74.7588 153.813 72.8153 153.95 70.8773C154.053 69.4297 154.349 68.0092 154.643 66.5923L156.449 57.8955C156.708 56.6596 156.968 55.4146 157.479 54.2619C157.898 53.3209 158.477 52.4524 158.94 51.5367C159.491 50.4388 159.871 49.2629 160.067 48.0497C160.145 47.6976 160.14 47.3319 160.052 46.9821C159.859 46.3885 159.268 46.032 158.718 45.7407C155.359 43.972 151.759 42.7069 148.034 41.9859C147.781 43.0517 147.83 44.0506 147.376 45.044Z" fill="#E3E8F4"/>
<path d="M146.627 39.8333C147.53 38.0998 149.218 36.8837 150.199 35.19C150.741 34.2298 151.044 33.1528 151.082 32.0503C151.121 30.9478 150.893 29.8523 150.419 28.8565C150.074 28.1508 149.607 27.503 149.336 26.7647C149.034 25.925 149.005 25.0004 148.657 24.1788C148.178 23.0533 147.142 22.2426 146.013 21.7757C144.884 21.3088 143.665 21.1406 142.45 20.9777L138.347 20.424C137.753 20.3443 137.137 20.2647 136.559 20.424C135.981 20.5832 135.443 21.0555 135.396 21.6563C135.34 22.3674 135.963 23.0297 135.818 23.7282C135.766 23.9743 135.622 24.2241 135.705 24.4629C135.779 24.6225 135.907 24.7507 136.066 24.8248C137.039 25.3677 138.202 25.4166 139.257 25.7712C140.312 26.1259 141.37 27.0162 141.263 28.1237C141.206 28.719 140.823 29.3379 141.083 29.8717C141.332 30.3657 141.986 30.4562 142.508 30.61C144.196 31.1004 145.381 32.9353 145.135 34.6815C145.059 35.2244 144.864 35.7437 144.825 36.2884C144.693 38.1957 144.993 38.7404 146.548 39.8496L146.627 39.8333Z" fill="#3F3D56"/>
<path d="M157.175 48.0814C157.184 48.4426 157.118 48.8017 156.982 49.1364C156.419 50.3397 154.694 50.2637 153.551 50.9459C152.128 51.7964 151.814 53.6947 151.684 55.3486C151.536 57.2215 151.434 59.1215 151.817 60.9583C152.2 62.795 153.121 64.5864 154.66 65.6631C156.533 66.9678 159.079 67.0131 161.217 66.2187C163.355 65.4243 165.141 63.8879 166.691 62.2087C168.161 60.6162 169.477 58.8411 170.267 56.8198C170.406 56.4579 170.528 56.0742 170.417 55.7123C170.249 55.1695 169.658 54.9234 169.178 54.6266C168.056 53.948 167.309 52.7646 166.92 51.5141C166.532 50.2637 166.467 48.9337 166.454 47.6218C166.44 46.2592 166.436 44.7699 165.569 43.7186C164.703 42.6672 163.2 42.3722 161.831 42.3831C160.711 42.3831 157.612 42.4899 156.849 43.4688C156.222 44.2831 157.221 46.9161 157.175 48.0814Z" fill="#BE6F72"/>
<path opacity="0.1" d="M157.175 48.0814C157.184 48.4426 157.118 48.8017 156.982 49.1364C156.419 50.3397 154.694 50.2637 153.551 50.9459C152.128 51.7964 151.814 53.6947 151.684 55.3486C151.536 57.2215 151.434 59.1215 151.817 60.9583C152.2 62.795 153.121 64.5864 154.66 65.6631C156.533 66.9678 159.079 67.0131 161.217 66.2187C163.355 65.4243 165.141 63.8879 166.691 62.2087C168.161 60.6162 169.477 58.8411 170.267 56.8198C170.406 56.4579 170.528 56.0742 170.417 55.7123C170.249 55.1695 169.658 54.9234 169.178 54.6266C168.056 53.948 167.309 52.7646 166.92 51.5141C166.532 50.2637 166.467 48.9337 166.454 47.6218C166.44 46.2592 166.436 44.7699 165.569 43.7186C164.703 42.6672 163.2 42.3722 161.831 42.3831C160.711 42.3831 157.612 42.4899 156.849 43.4688C156.222 44.2831 157.221 46.9161 157.175 48.0814Z" fill="black"/>
<path d="M147.546 96.61C147.602 96.8857 147.732 97.141 147.922 97.3483C148.1 97.4894 148.308 97.5878 148.53 97.636C154.457 99.3786 160.789 98.6837 166.926 97.9726C166.086 95.4102 165.241 92.819 165.008 90.1318C164.814 87.915 165.031 85.6078 164.247 83.5287C164.016 82.9134 150.544 85.7454 149.215 85.9752C148.534 86.0928 147.75 86.053 147.268 86.5941C146.687 87.2491 146.638 88.809 146.576 89.6251C146.403 91.9829 146.889 94.3571 147.546 96.61Z" fill="#BE6F72"/>
<path d="M161.042 125.337C159.958 125.84 158.84 126.308 157.683 126.728C157.057 126.956 156.418 127.17 155.765 127.369C154.696 127.694 153.598 127.979 152.451 128.212C151.797 126.551 151.143 124.889 150.488 123.227C150.006 122.003 149.524 120.775 149.121 119.524C148.841 118.67 148.61 117.801 148.431 116.92C147.84 113.927 147.994 110.834 148.879 107.914C151.382 108.386 153.829 108.694 156.294 109.052C157.611 109.233 158.931 109.447 160.267 109.698C160.372 110.571 160.467 111.443 160.552 112.315C160.683 113.661 160.789 115.008 160.872 116.354C161.056 119.346 161.113 122.34 161.042 125.337Z" fill="#BE6F72"/>
<path opacity="0.1" d="M161.042 125.337C159.958 125.84 158.84 126.308 157.683 126.728C157.057 126.956 156.418 127.17 155.765 127.369C154.696 127.694 153.598 127.979 152.451 128.212C151.797 126.551 151.143 124.889 150.488 123.227C150.006 122.003 149.524 120.775 149.121 119.524C148.841 118.67 148.61 117.801 148.431 116.92C147.84 113.927 147.994 110.834 148.879 107.914C151.382 108.386 153.829 108.694 156.294 109.052C157.611 109.233 158.931 109.447 160.267 109.698C160.372 110.571 160.467 111.443 160.552 112.315C160.683 113.661 160.789 115.008 160.872 116.354C161.056 119.346 161.113 122.34 161.042 125.337Z" fill="black"/>
<path d="M174.93 117.495C174.944 118.537 174.648 119.601 174.373 120.623C174.353 120.696 174.335 120.766 174.317 120.839C173.664 120.635 173.101 120.212 172.723 119.641C172.527 119.331 172.383 118.992 172.295 118.637C171.477 119.194 170.652 119.746 169.821 120.292C167.099 122.084 164.222 123.863 161.042 125.336C159.958 125.839 158.84 126.307 157.683 126.727C157.442 125.883 157.213 125.033 156.997 124.177C156.76 123.297 156.574 122.403 156.44 121.501C156.176 119.452 156.381 117.37 157.04 115.412L157.121 115.177C157.428 114.306 157.824 113.47 158.304 112.681C158.754 111.957 159.644 112.079 160.552 112.319C160.964 112.426 161.381 112.555 161.761 112.634C164.121 113.13 166.572 112.618 168.984 112.754C170.134 112.811 171.261 113.098 172.298 113.599C173.459 114.183 174.395 115.077 174.762 116.313C174.814 116.491 174.853 116.672 174.881 116.856C174.911 117.068 174.927 117.281 174.93 117.495Z" fill="#BE6F72"/>
<path d="M131.482 34.155C127.753 30.5359 123.515 27.4687 119.179 24.6005C118.05 23.8915 116.965 23.1163 115.928 22.2789C114.844 21.3741 113.9 20.3119 112.75 19.4976C111.599 18.6833 110.176 18.1241 108.795 18.3919C107.413 18.6597 106.185 19.9843 106.387 21.3705C106.568 22.5901 107.662 23.4261 108.674 24.1264C110.588 25.4528 112.511 26.7829 114.593 27.8234C115.317 28.1519 116.018 28.5267 116.694 28.9453C117.99 29.8211 118.935 31.1168 119.915 32.3346C123.617 36.9412 128.15 40.8086 133.279 43.7348C133.341 43.771 135.477 39.1512 135.387 38.5522C135.188 37.1752 132.465 35.1105 131.482 34.155Z" fill="#BE6F72"/>
<path d="M163.379 92.6324C160.5 92.8134 157.739 93.787 154.923 94.4076C152.108 95.0283 149.049 95.269 146.436 94.0457L148.025 104.919C148.113 105.524 148.205 106.143 148.074 106.738C147.953 107.306 147.638 107.842 147.665 108.423C147.707 109.342 148.568 109.988 149.379 110.413C151.735 111.659 154.374 112.269 157.036 112.181C156.839 112.977 156.594 113.764 156.395 114.561C157.723 115.988 159.893 116.084 161.788 116.537C163.232 116.879 164.587 117.472 166.003 117.89C167.715 118.397 169.493 118.645 171.278 118.627C172.482 118.614 173.759 118.446 174.695 117.693C175.845 116.765 176.203 115.187 176.452 113.728C176.591 112.914 176.719 112.089 176.632 111.267C176.539 110.323 176.174 109.429 175.813 108.553L173.338 102.536C172.889 101.45 172.435 100.348 171.894 99.3007C170.124 95.9114 167.187 92.3954 163.379 92.6324Z" fill="#3F3D56"/>
<path d="M165.582 55.0633C165.796 54.5003 166.19 54.0246 166.704 53.7111C167.217 53.3976 167.82 53.264 168.417 53.3315C169.14 53.4329 169.784 53.8292 170.404 54.2164L173.853 56.3734C174.425 56.7142 174.973 57.0926 175.495 57.5062C177.873 59.4822 178.791 62.7304 179.052 65.8157C179.314 68.901 179.052 72.0388 179.665 75.0734C178.209 76.2822 176.594 77.3046 175.139 78.5116C174.377 79.1431 173.606 79.7783 173.028 80.5908C172.569 81.2295 172.242 81.9606 171.764 82.5813C170.98 83.5623 169.843 84.1953 168.598 84.3438C169.387 84.8034 169.829 85.6955 170.043 86.584C170.256 87.4725 170.313 88.3936 170.55 89.2821C170.875 90.4891 171.549 91.5911 171.771 92.8216C171.926 93.6703 171.858 94.5407 171.914 95.402C172.195 99.859 175.686 103.755 175.46 108.214C173.813 107.614 172.254 106.793 170.826 105.773C170.183 105.311 169.562 104.812 168.954 104.314L164.354 100.577C162.116 98.7678 159.857 96.9185 158.078 94.6456C156.962 93.2197 156.052 91.6418 154.932 90.2195C153.813 88.7971 152.435 87.5051 150.725 86.908C150.474 87.2862 150.027 87.5485 149.776 87.9267C149.732 87.9864 149.697 88.0522 149.672 88.1222C149.641 88.2909 149.662 88.4649 149.731 88.6216C149.933 89.3535 150.054 90.1053 150.093 90.8637L150.206 92.2244C150.249 92.5851 150.249 92.9495 150.206 93.3102C150.035 94.4737 148.958 95.3767 147.797 95.5577C147.629 95.594 147.455 95.5884 147.29 95.5414C146.966 95.4328 146.788 95.0908 146.69 94.7651C146.233 93.2197 146.934 91.5893 146.99 89.9806C146.998 89.5724 146.984 89.1641 146.948 88.7573L146.84 87.1522C145.791 86.9333 145.188 85.8041 144.909 84.7672C144.158 81.9678 143.402 79.0707 143.837 76.2044C143.952 75.4371 144.155 74.659 144.017 73.8918C143.837 72.8658 143.1 72.0334 142.712 71.0671C141.448 67.9166 144.133 64.4965 143.884 61.1145C143.779 59.694 142.88 58.4598 142.338 57.1425C142.057 56.3746 141.694 55.6398 141.254 54.9511C140.702 54.1603 139.956 53.527 139.232 52.89C136.995 50.9237 134.874 48.8296 132.878 46.6181C131.854 46.5116 130.892 46.0703 130.142 45.3622C129.666 44.9098 129.274 44.3127 129.261 43.6558C129.248 42.9989 129.732 42.3095 130.388 42.2751C130.771 42.2552 131.128 42.4452 131.502 42.5284C132.673 42.7854 133.85 41.9222 134.372 40.8383C134.894 39.7544 134.894 38.5076 134.885 37.3061C135.457 37.2043 136.045 37.252 136.593 37.4443C137.141 37.6367 137.631 37.9674 138.014 38.4045C138.822 39.2839 139.347 40.3805 139.983 41.3902C140.242 41.8389 140.574 42.2407 140.965 42.5791C141.834 43.2704 143.085 43.4007 143.844 44.2077C144.229 44.6203 144.442 45.1668 144.794 45.6083C145.784 46.8515 147.595 47.0035 148.948 47.8214C150.3 48.6393 151.241 50.134 152.74 50.619C153.282 50.8 153.872 50.8235 154.409 51.0243C155.648 51.4858 156.404 52.805 156.576 54.1169C156.747 55.4288 156.455 56.7552 156.159 58.0473L155.463 61.071C155.31 61.7406 155.192 62.5458 155.685 63.0235C155.918 63.2167 156.192 63.3546 156.485 63.4271C157.75 63.8397 159.158 64.245 160.347 63.6605C160.908 63.3818 161.349 62.9114 161.752 62.43C163.514 60.349 164.686 57.6238 165.582 55.0633Z" fill="#EB6565"/>
<path d="M179.836 116.597C179.587 118.253 178.677 119.882 177.187 120.64C176.294 121.081 175.263 121.153 174.317 120.839C173.664 120.635 173.101 120.212 172.723 119.641C172.527 119.331 172.383 118.992 172.295 118.637C172.295 118.618 172.286 118.599 172.282 118.58C172.146 117.94 172.09 117.286 172.114 116.632C172.114 115.616 172.174 114.602 172.295 113.593C172.395 112.744 172.562 111.905 172.793 111.082C173.129 109.907 173.613 108.776 174.057 107.643C174.288 107.046 174.511 106.447 174.693 105.834C174.803 105.472 174.897 105.099 174.973 104.723L175 104.587C175.014 104.511 175.027 104.435 175.04 104.359C175.22 103.328 175.273 102.26 175.737 101.328C176.82 99.1403 178.93 99.6995 179.251 101.717C179.275 101.873 179.289 102.031 179.293 102.189C179.341 104.743 178.33 107.238 178.792 109.8C178.923 110.425 179.087 111.043 179.284 111.65C179.446 112.209 179.592 112.775 179.704 113.349C179.931 114.417 179.976 115.515 179.836 116.597Z" fill="#BE6F72"/>
<path d="M180.829 88.2062C180.878 89.2521 180.829 90.3107 181.039 91.3367C181.528 93.7615 183.387 95.9077 183.181 98.3723C183.13 98.9731 182.908 99.6191 182.384 99.9158C181.861 100.213 180.994 100.189 180.822 100.786C180.774 100.953 180.799 101.134 180.745 101.298C180.631 101.649 180.203 101.8 179.842 101.791C179.48 101.781 179.119 101.662 178.745 101.693C177.436 101.803 176.956 103.558 175.789 104.161C175.004 104.566 173.983 104.342 173.335 103.743C172.687 103.144 172.403 102.21 172.454 101.325C172.492 100.658 172.703 100.014 172.815 99.3549C173.019 98.1805 172.912 96.9771 172.806 95.79C172.649 94.051 172.486 92.2903 171.915 90.6418C171.646 89.8637 171.289 89.12 171.056 88.331C170.724 87.2145 170.648 86.0401 170.613 84.8766C170.543 82.4282 170.711 79.8098 172.17 77.841C173.266 76.3644 174.837 75.1647 176.078 73.7984C176.855 72.9425 177.079 72.6747 177.936 73.4003C178.643 73.9957 179.381 74.8172 179.461 75.6243C179.677 77.6926 179.461 79.7266 179.847 81.8329C180.234 83.9392 180.728 86.0437 180.829 88.2062Z" fill="#EB6565"/>
<path d="M162.098 48.3481C167.185 48.3481 171.309 44.2163 171.309 39.1194C171.309 34.0225 167.185 29.8906 162.098 29.8906C157.012 29.8906 152.888 34.0225 152.888 39.1194C152.888 44.2163 157.012 48.3481 162.098 48.3481Z" fill="#BE6F72"/>
<path d="M170.532 56.7733C170.734 56.4892 170.974 56.1834 171.318 56.1237C171.577 56.1041 171.836 56.1587 172.065 56.2811L174.491 57.2963C175.146 56.2117 175.532 54.9856 175.618 53.7206C175.668 52.9443 175.607 52.1571 175.755 51.3935C175.975 50.2607 176.645 49.2455 176.8 48.1019C176.923 47.179 176.701 46.2507 176.567 45.3296C176.156 42.485 176.598 39.5825 176.362 36.7179C176.125 33.8534 174.978 30.7844 172.428 29.4688C171.706 29.1069 170.928 28.8898 170.176 28.6039C168.502 27.9651 167.001 26.9427 165.347 26.2514C163.693 25.5602 161.75 25.2435 160.146 26.0379C158.542 26.8323 157.609 29.0671 158.651 30.5256C158.994 31.0052 159.496 31.3454 159.976 31.691C160.953 32.3913 161.95 33.2563 162.176 34.4397C162.581 36.5696 160.37 38.2398 159.747 40.3226C159.517 41.136 159.496 41.9945 159.687 42.818C159.957 44.0521 160.614 45.2174 160.59 46.4805C160.572 47.8648 159.745 49.1189 159.59 50.4959C159.534 51.0008 159.568 51.5129 159.505 52.016C159.394 52.6796 159.198 53.3261 158.922 53.9395C157.477 57.5587 156.012 61.2158 153.865 64.4694C156.164 64.5085 158.437 63.9763 160.48 62.9204C160.187 64.3152 159.624 65.6393 158.824 66.8182C160.662 66.6051 162.429 65.9871 164 65.0086C163.619 66.3763 163.067 67.6902 162.357 68.9191C162.418 68.8141 163.554 68.5572 163.763 68.4377C164.194 68.1924 164.54 67.822 164.757 67.3755C165.371 66.2753 165.754 64.9489 166.322 63.8053C167.539 61.3539 168.946 59.0026 170.532 56.7733Z" fill="#3F3D56"/>
<path d="M100.682 1.39528C100.245 1.43944 99.8048 1.44972 99.3658 1.42604C99.291 1.41785 99.216 1.43943 99.1568 1.48614C99.0977 1.53284 99.0593 1.60094 99.0498 1.67576L98.21 7.98751C98.1454 8.44569 97.9582 8.87778 97.6683 9.23792C97.4292 9.52452 97.2515 9.8573 97.1462 10.2156C97.0409 10.5739 97.0102 10.95 97.0561 11.3207V22.0424C97.0561 22.0424 97.0019 23.4719 98.0981 23.4719C99.41 23.6371 100.737 23.6371 102.049 23.4719C102.049 23.4719 102.927 23.3054 102.927 21.9863V11.4293C102.994 11.061 102.98 10.6825 102.887 10.32C102.793 9.95756 102.622 9.61982 102.385 9.33021C102.105 8.96876 101.924 8.54022 101.86 8.08704L100.988 1.64319C100.978 1.57074 100.941 1.50479 100.884 1.45875C100.827 1.4127 100.755 1.39001 100.682 1.39528Z" fill="#3F3D56"/>
<path d="M100.688 11.5117H99.3568C98.2546 11.5117 97.3612 12.407 97.3612 13.5113V18.5292C97.3612 19.6335 98.2546 20.5288 99.3568 20.5288H100.688C101.79 20.5288 102.683 19.6335 102.683 18.5292V13.5113C102.683 12.407 101.79 11.5117 100.688 11.5117Z" fill="#EB6565"/>
<path d="M113.143 10.6218C112.706 10.666 112.266 10.6763 111.827 10.6526C111.752 10.6444 111.677 10.666 111.618 10.7127C111.559 10.7594 111.52 10.8275 111.511 10.9023L110.671 17.2141C110.606 17.6723 110.419 18.1043 110.129 18.4645C109.89 18.7511 109.712 19.0839 109.607 19.4422C109.502 19.8004 109.471 20.1766 109.517 20.5473V31.2689C109.517 31.2689 109.463 32.6985 110.559 32.6985C111.871 32.8637 113.198 32.8637 114.51 32.6985C114.51 32.6985 115.388 32.532 115.388 31.2128V20.6559C115.455 20.2875 115.441 19.909 115.348 19.5466C115.254 19.1841 115.083 18.8464 114.846 18.5568C114.566 18.1953 114.385 17.7668 114.321 17.3136L113.448 10.8698C113.438 10.7973 113.401 10.7314 113.345 10.6853C113.288 10.6393 113.216 10.6166 113.143 10.6218Z" fill="#3F3D56"/>
<path d="M113.149 20.7383H111.818C110.716 20.7383 109.822 21.6335 109.822 22.7378V27.7558C109.822 28.8601 110.716 29.7553 111.818 29.7553H113.149C114.251 29.7553 115.144 28.8601 115.144 27.7558V22.7378C115.144 21.6335 114.251 20.7383 113.149 20.7383Z" fill="#EB6565"/>
<g opacity="0.2">
<path opacity="0.2" d="M99.1364 118.748C99.1306 118.943 99.1083 119.138 99.0696 119.329C97.8126 119.129 96.5485 118.948 95.2771 118.786C95.2771 118.736 95.2771 118.683 95.2771 118.631C95.2889 118.088 95.4447 117.558 95.7286 117.096C96.1006 116.506 96.6659 116.137 97.2889 116.157C97.912 116.177 98.4519 116.58 98.786 117.19C99.0387 117.669 99.1596 118.207 99.1364 118.748Z" fill="#3F3D56"/>
<path opacity="0.2" d="M99.2377 115.659C99.2819 114.259 98.4529 113.097 97.3863 113.064C96.3196 113.03 95.4191 114.137 95.375 115.536C95.3308 116.936 96.1598 118.098 97.2264 118.131C98.2931 118.165 99.1936 117.058 99.2377 115.659Z" fill="#3F3D56"/>
<path opacity="0.2" d="M99.3362 112.561C99.3804 111.162 98.5514 110 97.4848 109.966C96.4181 109.932 95.5176 111.039 95.4735 112.439C95.4293 113.838 96.2583 115 97.3249 115.034C98.3916 115.068 99.2921 113.96 99.3362 112.561Z" fill="#3F3D56"/>
<path opacity="0.2" d="M99.433 109.463C99.4772 108.064 98.6482 106.902 97.5816 106.868C96.5149 106.835 95.6144 107.942 95.5703 109.341C95.5261 110.741 96.3551 111.902 97.4217 111.936C98.4884 111.97 99.3889 110.863 99.433 109.463Z" fill="#3F3D56"/>
<path opacity="0.2" d="M99.5314 106.362C99.5755 104.962 98.7466 103.801 97.6799 103.767C96.6133 103.733 95.7128 104.84 95.6687 106.24C95.6245 107.639 96.4534 108.801 97.5201 108.835C98.5868 108.868 99.4873 107.761 99.5314 106.362Z" fill="#3F3D56"/>
<path opacity="0.2" d="M91.0277 84.8652C90.7734 84.5202 90.5441 84.1573 90.3415 83.7795L95.445 83.1045L89.9514 82.9724C89.4612 81.8072 89.2133 80.5541 89.2229 79.2896C89.2325 78.0251 89.4995 76.7759 90.0074 75.6183L97.2528 79.6808L90.616 74.462C91.2855 73.377 92.1711 72.4419 93.2175 71.7152C94.2638 70.9886 95.4485 70.4859 96.6975 70.2385C97.9464 69.9912 99.2329 70.0046 100.476 70.2779C101.72 70.5511 102.894 71.0784 103.925 71.8267C104.956 72.575 105.822 73.5283 106.469 74.627C107.116 75.7257 107.53 76.9463 107.685 78.2125C107.84 79.4787 107.732 80.7633 107.37 81.9861C107.007 83.2089 106.396 84.3436 105.576 85.3194C105.972 85.8561 106.308 86.4343 106.579 87.0439L99.8804 90.2649L106.983 88.1242C107.43 89.6031 107.503 91.1704 107.193 92.6842C106.883 94.198 106.202 95.6105 105.21 96.7938C106.241 98.1957 106.858 99.8602 106.989 101.597C107.121 103.333 106.762 105.072 105.954 106.614C105.146 108.156 103.921 109.439 102.419 110.316C100.918 111.193 99.2003 111.629 97.4631 111.574C95.7259 111.519 94.0392 110.976 92.5958 110.005C91.1524 109.035 90.0106 107.678 89.3011 106.088C88.5915 104.498 88.3427 102.74 88.5832 101.015C88.8238 99.2904 89.5438 97.6682 90.6611 96.3342C89.4291 94.6588 88.795 92.6171 88.8605 90.5371C88.926 88.457 89.6874 86.4594 91.0223 84.8652H91.0277Z" fill="#EB6565"/>
<path opacity="0.1" d="M107.377 91.1232C107.314 93.2044 106.55 95.2031 105.21 96.7944C106.241 98.1963 106.858 99.8607 106.989 101.597C107.121 103.334 106.762 105.073 105.954 106.614C105.146 108.156 103.921 109.439 102.419 110.316C100.918 111.194 99.2003 111.63 97.4631 111.575C95.7259 111.52 94.0392 110.976 92.5958 110.006C91.1524 109.036 90.0106 107.678 89.3011 106.088C88.5915 104.498 88.3427 102.741 88.5832 101.016C88.8238 99.291 89.5438 97.6688 90.6611 96.3348C89.4746 94.7188 107.409 90.0827 107.377 91.1232Z" fill="black"/>
</g>
</g>
<defs>
<clipPath id="clip0">
<rect width="205" height="129" fill="white"/>
</clipPath>
</defs>
</svg>
