<svg width="339" height="243" viewBox="0 0 339 243" fill="none" xmlns="http://www.w3.org/2000/svg">
<g clip-path="url(#clip0)">
<path d="M3.05405 0C2.24436 0.000911314 1.4681 0.309103 0.895562 0.856969C0.323023 1.40483 0.000951333 2.14764 0 2.92244V240.078C0.000951333 240.852 0.323023 241.595 0.895562 242.143C1.4681 242.691 2.24436 242.999 3.05405 243H335.946C336.756 242.999 337.532 242.691 338.104 242.143C338.677 241.595 338.999 240.852 339 240.078V2.92244C338.999 2.14764 338.677 1.40483 338.104 0.856969C337.532 0.309103 336.756 0.000911314 335.946 0H3.05405Z" fill="#E6E6E6"/>
<path d="M9.77295 9.35156V233.648H329.227V9.35156H9.77295Z" fill="white"/>
<path d="M243.999 21.4805C243.822 21.4807 243.652 21.548 243.527 21.6678C243.402 21.7875 243.332 21.9499 243.331 22.1193V73.9575C243.332 74.1269 243.402 74.2892 243.527 74.409C243.652 74.5287 243.822 74.5961 243.999 74.5963H316.764C316.941 74.5961 317.11 74.5287 317.235 74.409C317.361 74.2892 317.431 74.1269 317.431 73.9575V22.1193C317.431 21.9499 317.361 21.7875 317.235 21.6678C317.11 21.548 316.941 21.4807 316.764 21.4805H243.999Z" fill="#E6E6E6"/>
<path d="M245.467 23.5234V72.5511H315.295V23.5234H245.467Z" fill="white"/>
<path d="M243.999 94.5117C243.822 94.5119 243.652 94.5793 243.527 94.699C243.402 94.8188 243.332 94.9812 243.331 95.1505V146.989C243.332 147.158 243.402 147.32 243.527 147.44C243.652 147.56 243.822 147.627 243.999 147.628H316.764C316.941 147.627 317.11 147.56 317.235 147.44C317.361 147.32 317.431 147.158 317.431 146.989V95.1505C317.431 94.9812 317.361 94.8188 317.235 94.699C317.11 94.5793 316.941 94.5119 316.764 94.5117H243.999Z" fill="#E6E6E6"/>
<path d="M245.467 96.5547V145.582H315.295V96.5547H245.467Z" fill="white"/>
<path d="M243.999 167.543C243.822 167.543 243.652 167.611 243.527 167.73C243.402 167.85 243.332 168.012 243.331 168.182V220.02C243.332 220.189 243.402 220.352 243.527 220.472C243.652 220.591 243.822 220.659 243.999 220.659H316.764C316.941 220.659 317.11 220.591 317.235 220.472C317.361 220.352 317.431 220.189 317.431 220.02V168.182C317.431 168.012 317.361 167.85 317.235 167.73C317.11 167.611 316.941 167.543 316.764 167.543H243.999Z" fill="#E6E6E6"/>
<path d="M245.467 169.59V218.617H315.295V169.59H245.467Z" fill="white"/>
<path d="M302.193 63.0987L288.28 53.7849H288.276L288.275 53.7865C287.801 52.3617 287.475 50.896 287.301 49.4104C288.607 48.272 289.534 46.7909 289.967 45.1516C290.023 45.1834 290.077 45.2184 290.128 45.2563C291.347 46.1893 293.663 36.276 289.762 34.4099C289.762 34.4099 286.837 28.3453 281.231 29.7448C275.624 31.1444 272.455 33.2437 272.212 35.343C271.968 37.4422 272.334 40.5912 272.334 40.5912C272.334 40.5912 272.671 38.2101 274.444 37.3685C273.567 38.3253 272.923 39.4562 272.558 40.6798C272.192 41.9034 272.115 43.1893 272.331 44.445C272.548 45.7006 273.052 46.8947 273.809 47.9414C274.565 48.988 275.555 49.8612 276.706 50.498C276.283 51.8884 275.718 53.6905 275.243 55.0135H275.243L270.991 57.037L261.729 62.6347C261.729 62.6347 258.075 67.0639 256.854 72.1976C256.759 72.6014 256.661 73.0053 256.557 73.4091H305.964C304.317 68.6448 302.193 63.0987 302.193 63.0987Z" fill="#E6E6E6"/>
<path d="M299.136 213.074C300.087 212.493 301.094 212.001 302.144 211.605L291.791 199.843L284.949 198.167C283.748 197.522 282.8 196.519 282.251 195.31L285.914 195.276L287.31 187.711C288.159 185.511 287.813 183.582 285.914 181.993C286.255 179.956 285.29 178.457 282.731 177.611C280.186 175.497 276.423 174.99 274.165 178.375C273.253 178.323 272.356 178.61 271.66 179.176C270.964 179.742 270.523 180.543 270.43 181.413C268.356 183.72 270.659 192.187 271.341 195.413L274.982 195.379C274.772 196.572 274.161 197.668 273.24 198.498L273.191 198.451L265.913 201.857L255.561 213.311C256.582 213.694 257.564 214.168 258.492 214.728L257.424 218.616H264.831L266.802 215.875H266.901C266.901 215.828 266.906 215.781 266.906 215.734L268.288 213.809C268.32 215.364 268.275 216.966 268.163 218.616H291.203C291.167 217.246 291.158 215.884 291.158 214.531L293.735 218.109C293.928 217.839 294.134 217.585 294.341 217.327L294.848 218.616H300.748L299.333 213.47C299.293 213.327 299.226 213.193 299.136 213.074Z" fill="#E6E6E6"/>
<path d="M293.986 131.076L284.204 127.249C283.97 126.364 283.773 125.53 283.647 124.796C284.652 124.249 285.531 123.516 286.235 122.638C286.938 121.761 287.45 120.758 287.741 119.688L288.774 118.627C289.323 118.079 289.742 117.425 290.006 116.709C290.269 115.994 290.369 115.232 290.3 114.477C290.121 113.024 289.352 111.697 288.159 110.782C288.559 108.363 287.414 106.585 284.379 105.58C281.362 103.075 276.895 102.469 274.219 106.486C273.137 106.424 272.072 106.765 271.245 107.436C270.419 108.108 269.895 109.058 269.783 110.09C267.584 112.539 269.851 117.424 270.933 121.165C271.015 121.442 271.182 121.69 271.411 121.876C271.64 122.063 271.922 122.18 272.221 122.214C272.941 123.231 273.887 124.084 274.991 124.71C275.019 125.791 274.886 126.87 274.596 127.915L274.605 127.588L267.31 130.728L267.305 130.643L266.6 131.033L265.483 131.515C265.491 131.558 265.5 131.596 265.509 131.639L265.406 131.695C263.835 132.566 262.631 133.935 262.003 135.566L258.254 146.065H291.818C292.159 144.971 292.579 143.9 293.075 142.86L293.084 142.744L296.065 146.065H305.17L293.986 131.076Z" fill="#E6E6E6"/>
<path d="M127.907 218.142C138.761 218.142 147.56 209.722 147.56 199.337C147.56 188.951 138.761 180.531 127.907 180.531C117.054 180.531 108.255 188.951 108.255 199.337C108.255 209.722 117.054 218.142 127.907 218.142Z" fill="#E6E6E6"/>
<path d="M127.908 213.753C136.229 213.753 142.974 207.298 142.974 199.335C142.974 191.373 136.229 184.918 127.908 184.918C119.586 184.918 112.841 191.373 112.841 199.335C112.841 207.298 119.586 213.753 127.908 213.753Z" fill="white"/>
<path d="M135.455 207.21C135.365 207.21 135.276 207.193 135.193 207.16C135.11 207.127 135.034 207.078 134.97 207.017L119.873 192.57C119.749 192.446 119.682 192.28 119.684 192.109C119.686 191.938 119.758 191.774 119.885 191.653C120.011 191.532 120.182 191.463 120.361 191.461C120.54 191.459 120.713 191.524 120.843 191.642L135.941 206.089C136.036 206.18 136.102 206.297 136.128 206.425C136.155 206.552 136.141 206.684 136.089 206.804C136.037 206.924 135.949 207.027 135.837 207.099C135.724 207.171 135.591 207.209 135.455 207.21H135.455Z" fill="#EB6565"/>
<path d="M127.563 201.786L125.342 199.661C125.329 199.648 125.313 199.64 125.295 199.638C125.278 199.635 125.259 199.638 125.243 199.645C125.227 199.653 125.214 199.665 125.206 199.68C125.197 199.696 125.194 199.713 125.197 199.73C125.286 200.281 125.557 200.791 125.969 201.186C126.382 201.581 126.915 201.839 127.491 201.925C127.509 201.928 127.527 201.925 127.543 201.916C127.558 201.908 127.571 201.896 127.579 201.881C127.587 201.865 127.59 201.848 127.587 201.831C127.584 201.814 127.576 201.798 127.563 201.786L127.563 201.786Z" fill="#EB6565"/>
<path d="M128.25 196.871L130.474 198.999C130.487 199.011 130.504 199.019 130.521 199.022C130.539 199.025 130.557 199.022 130.574 199.014C130.59 199.007 130.603 198.994 130.611 198.979C130.62 198.964 130.623 198.946 130.62 198.929C130.531 198.377 130.26 197.866 129.847 197.471C129.434 197.076 128.901 196.817 128.323 196.731C128.306 196.729 128.287 196.732 128.271 196.74C128.255 196.747 128.242 196.76 128.234 196.775C128.226 196.791 128.223 196.808 128.226 196.825C128.229 196.843 128.237 196.858 128.25 196.871Z" fill="#EB6565"/>
<path d="M137.986 200.045C138.128 199.832 138.203 199.584 138.202 199.331C138.202 199.078 138.125 198.831 137.982 198.618C136.881 196.972 135.43 195.566 133.724 194.492C131.995 193.392 129.97 192.792 127.893 192.766C126.846 192.767 125.805 192.93 124.812 193.25C124.785 193.258 124.76 193.274 124.74 193.295C124.72 193.315 124.706 193.34 124.7 193.368C124.693 193.395 124.694 193.423 124.702 193.45C124.71 193.477 124.725 193.502 124.746 193.522L126.772 195.46C126.793 195.481 126.819 195.495 126.848 195.503C126.876 195.51 126.907 195.511 126.936 195.504C127.622 195.343 128.341 195.355 129.021 195.538C129.702 195.72 130.322 196.067 130.822 196.546C131.322 197.024 131.685 197.617 131.875 198.269C132.066 198.92 132.078 199.607 131.911 200.265C131.904 200.292 131.904 200.321 131.912 200.348C131.92 200.376 131.935 200.401 131.956 200.421L134.87 203.212C134.901 203.241 134.941 203.258 134.984 203.26C135.027 203.262 135.069 203.248 135.102 203.222C136.224 202.307 137.196 201.236 137.986 200.045Z" fill="#EB6565"/>
<path d="M127.907 203.267C127.283 203.267 126.668 203.132 126.107 202.871C125.547 202.611 125.055 202.232 124.67 201.763C124.284 201.294 124.015 200.748 123.883 200.165C123.75 199.582 123.758 198.978 123.905 198.398C123.912 198.371 123.912 198.342 123.904 198.314C123.896 198.287 123.881 198.262 123.86 198.242L120.993 195.497C120.963 195.468 120.922 195.451 120.879 195.449C120.836 195.448 120.794 195.461 120.761 195.488C119.659 196.402 118.684 197.446 117.858 198.596C117.703 198.809 117.618 199.061 117.613 199.321C117.608 199.581 117.684 199.836 117.831 200.054C118.914 201.702 120.351 203.11 122.046 204.185C123.778 205.29 125.811 205.885 127.893 205.894C128.951 205.891 130.002 205.731 131.008 205.42C131.037 205.411 131.062 205.396 131.082 205.375C131.102 205.355 131.116 205.33 131.123 205.302C131.13 205.275 131.129 205.246 131.121 205.219C131.113 205.192 131.098 205.167 131.078 205.147L129.041 203.199C129.02 203.179 128.994 203.165 128.966 203.157C128.937 203.15 128.907 203.149 128.878 203.156C128.56 203.23 128.234 203.267 127.907 203.267Z" fill="#EB6565"/>
<path d="M53.3446 218.142C64.1983 218.142 72.9969 209.722 72.9969 199.337C72.9969 188.951 64.1983 180.531 53.3446 180.531C42.491 180.531 33.6924 188.951 33.6924 199.337C33.6924 209.722 42.491 218.142 53.3446 218.142Z" fill="#E6E6E6"/>
<path d="M53.3447 213.753C61.6658 213.753 68.4114 207.298 68.4114 199.335C68.4114 191.373 61.6658 184.918 53.3447 184.918C45.0236 184.918 38.278 191.373 38.278 199.335C38.278 207.298 45.0236 213.753 53.3447 213.753Z" fill="white"/>
<path d="M59.1327 208.527C58.2954 208.527 57.1193 208.237 55.3582 207.296C53.1694 206.176 51.1706 204.746 49.4302 203.053C47.6288 201.411 46.1245 199.495 44.9785 197.382C43.3984 194.632 43.6678 193.191 43.9689 192.574C44.3165 191.901 44.8631 191.34 45.5408 190.961C45.9294 190.717 46.3406 190.508 46.7692 190.337C46.8121 190.319 46.852 190.302 46.8876 190.287C47.0295 190.21 47.1868 190.163 47.3491 190.149C47.5115 190.135 47.6751 190.154 47.8291 190.205C48.1714 190.363 48.476 190.586 48.7238 190.862C49.6159 191.82 50.3684 192.889 50.961 194.04C51.2046 194.438 51.3544 194.882 51.3998 195.341C51.3642 195.796 51.1719 196.226 50.8529 196.565C50.7967 196.638 50.741 196.708 50.6869 196.776C50.3605 197.187 50.2889 197.305 50.3361 197.517C50.4317 197.943 51.145 199.21 52.3172 200.329C53.4895 201.448 54.7753 202.088 55.2218 202.179C55.4526 202.226 55.5791 202.155 56.0218 201.831C56.0852 201.785 56.1504 201.737 56.2186 201.689C56.5734 201.369 57.0308 201.173 57.5165 201.133H57.5191C58.006 201.181 58.4742 201.338 58.8856 201.592C59.6576 201.965 61.4209 202.971 62.1942 203.717C62.4827 203.953 62.7171 204.244 62.8826 204.571C62.9357 204.719 62.9555 204.876 62.9407 205.032C62.9259 205.187 62.8769 205.338 62.7968 205.474C62.781 205.508 62.7634 205.546 62.7449 205.587C62.5644 205.997 62.3448 206.389 62.0891 206.76C61.6918 207.408 61.1045 207.93 60.4 208.261C60.0041 208.441 59.5707 208.531 59.1327 208.527Z" fill="#EB6565"/>
<path d="M203.048 218.142C213.902 218.142 222.701 209.722 222.701 199.337C222.701 188.951 213.902 180.531 203.048 180.531C192.195 180.531 183.396 188.951 183.396 199.337C183.396 209.722 192.195 218.142 203.048 218.142Z" fill="#E6E6E6"/>
<path d="M203.048 213.753C211.37 213.753 218.115 207.298 218.115 199.335C218.115 191.373 211.37 184.918 203.048 184.918C194.727 184.918 187.982 191.373 187.982 199.335C187.982 207.298 194.727 213.753 203.048 213.753Z" fill="white"/>
<path d="M205.794 207.872H200.303C200.121 207.872 199.947 207.803 199.818 207.68C199.689 207.556 199.617 207.389 199.617 207.215C199.617 207.041 199.689 206.874 199.818 206.751C199.947 206.628 200.121 206.559 200.303 206.559H205.794C205.976 206.559 206.15 206.628 206.279 206.751C206.407 206.874 206.48 207.041 206.48 207.215C206.48 207.389 206.407 207.556 206.279 207.68C206.15 207.803 205.976 207.872 205.794 207.872Z" fill="#EB6565"/>
<path d="M203.048 204.587C201.411 204.585 199.841 203.962 198.683 202.854C197.525 201.746 196.874 200.244 196.872 198.677V197.364C196.872 197.19 196.944 197.023 197.073 196.899C197.202 196.776 197.376 196.707 197.558 196.707C197.74 196.707 197.915 196.776 198.044 196.899C198.172 197.023 198.245 197.19 198.245 197.364V198.677C198.246 199.896 198.752 201.064 199.653 201.925C200.554 202.786 201.775 203.27 203.048 203.27C204.322 203.27 205.543 202.786 206.444 201.925C207.344 201.064 207.851 199.896 207.852 198.677V197.364C207.852 197.19 207.925 197.023 208.053 196.899C208.182 196.776 208.357 196.707 208.539 196.707C208.721 196.707 208.895 196.776 209.024 196.899C209.152 197.023 209.225 197.19 209.225 197.364V198.677C209.223 200.244 208.572 201.746 207.414 202.854C206.256 203.962 204.686 204.585 203.048 204.587Z" fill="#EB6565"/>
<path d="M203.048 207.874C202.958 207.874 202.869 207.857 202.786 207.824C202.702 207.791 202.627 207.743 202.563 207.682C202.499 207.621 202.449 207.548 202.414 207.469C202.38 207.389 202.362 207.304 202.362 207.217V203.934C202.362 203.76 202.434 203.593 202.563 203.47C202.692 203.347 202.866 203.277 203.048 203.277C203.23 203.277 203.405 203.347 203.534 203.47C203.662 203.593 203.735 203.76 203.735 203.934V207.217C203.735 207.304 203.717 207.389 203.682 207.469C203.648 207.548 203.597 207.621 203.534 207.682C203.47 207.743 203.394 207.791 203.311 207.824C203.228 207.857 203.138 207.874 203.048 207.874Z" fill="#EB6565"/>
<path d="M203.048 201.961C202.595 201.96 202.147 201.872 201.731 201.702C201.314 201.532 200.937 201.283 200.623 200.972C199.979 200.35 199.618 199.511 199.617 198.636V194.08C199.615 193.651 199.702 193.225 199.872 192.828C200.042 192.43 200.293 192.069 200.609 191.764C200.925 191.459 201.301 191.217 201.715 191.051C202.129 190.885 202.573 190.799 203.022 190.797C203.031 190.797 203.04 190.797 203.048 190.797C203.5 190.792 203.949 190.874 204.367 191.037C204.786 191.201 205.166 191.443 205.486 191.748C205.805 192.054 206.058 192.418 206.228 192.818C206.399 193.219 206.485 193.648 206.48 194.08V198.636C206.484 199.512 206.126 200.354 205.482 200.977C204.839 201.601 203.964 201.954 203.048 201.961Z" fill="#EB6565"/>
<path d="M27.5979 21.582C27.1224 21.5826 26.6664 21.7636 26.3301 22.0854C25.9938 22.4072 25.8046 22.8435 25.8041 23.2986V162.598C25.8046 163.053 25.9938 163.489 26.3301 163.811C26.6664 164.133 27.1224 164.314 27.5979 164.314H223.13C223.606 164.314 224.062 164.133 224.398 163.811C224.734 163.489 224.924 163.053 224.924 162.598V23.2986C224.924 22.8435 224.734 22.4072 224.398 22.0854C224.062 21.7636 223.606 21.5826 223.13 21.582H27.5979Z" fill="#E6E6E6"/>
<path d="M31.5446 27.0781V158.824H219.184V27.0781H31.5446Z" fill="white"/>
<path d="M161.108 158.821L161.446 157.554L158.513 145.927L158.227 144.786L158.011 143.933L158.355 143.822L175.684 138.297L175.905 141.365L177.162 158.821H161.108Z" fill="#FFB9B9"/>
<path d="M92.2156 145.927L89.2827 157.554L89.6205 158.821H73.5664L74.823 141.365L75.0448 138.297L92.7177 143.933L92.2156 145.927Z" fill="#FFB9B9"/>
<path d="M139.846 99.308L111.864 102.127C114.803 94.8861 114.26 86.5768 111.864 77.6992H131.992C133.314 85.2753 135.97 92.5819 139.846 99.308Z" fill="#FFB9B9"/>
<path d="M122.173 88.9726C130.578 88.9726 137.392 82.4527 137.392 74.4101C137.392 66.3675 130.578 59.8477 122.173 59.8477C113.768 59.8477 106.955 66.3675 106.955 74.4101C106.955 82.4527 113.768 88.9726 122.173 88.9726Z" fill="#FFB9B9"/>
<path d="M165.866 104.945C162.653 118.532 160.01 131.448 158.355 143.824C158.309 144.147 158.266 144.467 158.227 144.787C158.172 145.207 158.117 145.626 158.069 146.045C157.527 150.368 157.118 154.627 156.843 158.822H95.5955C95.6594 154.866 95.5225 150.819 95.2152 146.718C94.1595 132.648 91.0594 117.935 86.8276 104.005L86.8581 103.993L113.633 95.1434L113.828 95.0793C121.546 98.4883 129.231 98.6455 136.855 93.4724C136.879 93.4578 136.9 93.4403 136.925 93.4258L161.884 103.362L161.893 103.365L165.866 104.945Z" fill="#EB6565"/>
<path d="M184.028 139.238L153.592 147.224L160.955 103.066L165.652 104.565C167.375 105.114 168.927 106.067 170.166 107.337C171.406 108.606 172.294 110.152 172.749 111.834L184.028 139.238Z" fill="#EB6565"/>
<path d="M66.7001 139.238L97.1367 147.224L89.773 103.066L85.0759 104.565C83.3534 105.114 81.8018 106.067 80.5623 107.337C79.3229 108.606 78.4349 110.152 77.9792 111.834L66.7001 139.238Z" fill="#EB6565"/>
<path d="M121.195 49.7753C118.606 49.8891 116.085 50.5995 113.845 51.8462C113.329 52.1331 113.568 53.1677 113.091 53.5051C112.492 53.9301 111.19 53.672 110.659 54.1697C108.945 55.7709 107.625 57.7173 106.796 59.8676C105.967 62.0178 105.648 64.3179 105.864 66.6006L106.71 74.6442L108.704 72.557C112.28 68.7629 117.244 66.4308 122.568 66.0439C122.794 66.0292 123.021 66.0177 123.248 66.0093L121.713 63.4399L124.38 65.9916C125.597 66.0044 126.811 66.0989 128.013 66.2746L125.973 62.8577L129.888 66.6041L129.888 66.6042C131.489 66.9412 132.985 67.6333 134.256 68.6248C135.526 69.6163 136.535 70.8795 137.202 72.3127L137.637 73.2349L138.124 65.5613C138.172 63.4403 137.764 61.3326 136.925 59.369C136.085 57.4055 134.833 55.6282 133.245 54.1476C131.657 52.6671 129.768 51.5149 127.695 50.7627C125.622 50.0105 123.41 49.6744 121.195 49.7753Z" fill="#2F2E41"/>
<path d="M107.111 76.832C107.783 76.832 108.327 75.5938 108.327 74.0664C108.327 72.539 107.783 71.3008 107.111 71.3008C106.438 71.3008 105.894 72.539 105.894 74.0664C105.894 75.5938 106.438 76.832 107.111 76.832Z" fill="#FFB9B9"/>
<path d="M137.533 75.9609C138.205 75.9609 138.75 74.7227 138.75 73.1953C138.75 71.6679 138.205 70.4297 137.533 70.4297C136.861 70.4297 136.316 71.6679 136.316 73.1953C136.316 74.7227 136.861 75.9609 137.533 75.9609Z" fill="#FFB9B9"/>
</g>
<defs>
<clipPath id="clip0">
<rect width="339" height="243" fill="white"/>
</clipPath>
</defs>
</svg>
