<svg width="176" height="162" viewBox="0 0 176 162" fill="none" xmlns="http://www.w3.org/2000/svg">
<g clip-path="url(#clip0)">
<path d="M86.8087 38.4967H85.8519V14.1125C85.8519 10.3697 84.254 6.78008 81.4098 4.13347C78.5656 1.48685 74.708 0 70.6857 0H15.1672C11.1448 0 7.28727 1.48685 4.44306 4.13347C1.59884 6.78008 0.000976562 10.3697 0.000976562 14.1125V147.887C0.000976562 151.629 1.59884 155.219 4.44306 157.866C7.28727 160.512 11.1448 161.999 15.1672 161.999H70.6855C74.7078 161.999 78.5654 160.512 81.4096 157.866C84.2538 155.219 85.8516 151.629 85.8516 147.887V55.8538H86.8085L86.8087 38.4967Z" fill="#3F3D56"/>
<path d="M71.2971 3.67188H64.0501C64.3835 4.43224 64.5109 5.25724 64.4209 6.07419C64.3309 6.89114 64.0264 7.67496 63.5341 8.35658C63.0419 9.0382 62.377 9.5967 61.5982 9.98287C60.8193 10.369 59.9503 10.571 59.0677 10.571H27.262C26.3796 10.5709 25.5107 10.3689 24.732 9.98278C23.9532 9.59663 23.2884 9.0382 22.7962 8.35668C22.304 7.67515 21.9995 6.89145 21.9094 6.0746C21.8194 5.25776 21.9466 4.43285 22.2799 3.67254H15.5101C12.5062 3.67254 9.62533 4.78294 7.50123 6.75947C5.37713 8.736 4.18384 11.4168 4.18384 14.212V147.789C4.18384 150.584 5.37713 153.265 7.50123 155.242C9.62533 157.218 12.5062 158.328 15.5101 158.328H71.2949C74.2989 158.328 77.1798 157.218 79.3039 155.242C81.4279 153.265 82.6213 150.584 82.6213 147.789V14.2113C82.6213 11.4161 81.4279 8.73533 79.3039 6.75881C77.1798 4.78228 74.2989 3.67188 71.2949 3.67188H71.2971Z" fill="white"/>
<path d="M75.5267 29.9375H11.2816V132.065H75.5267V29.9375Z" fill="#E6E6E6"/>
<path d="M43.4995 150.864C46.9345 150.864 49.7191 148.273 49.7191 145.077C49.7191 141.88 46.9345 139.289 43.4995 139.289C40.0645 139.289 37.2799 141.88 37.2799 145.077C37.2799 148.273 40.0645 150.864 43.4995 150.864Z" fill="#E6E6E6"/>
<path d="M73.2299 142.996L72.5194 149.387L76.5456 148.947L77.0193 143.657L73.2299 142.996Z" fill="#FFB9B9"/>
<path d="M62.5724 94.5117C62.5724 94.5117 41.9669 113.024 54.9934 118.755H59.0196C59.0196 118.755 67.7827 105.31 72.046 105.531L73.2301 118.314L72.5196 144.099L77.7302 144.32C77.7302 144.32 80.8091 131.317 80.5723 124.044L86.0197 97.1564L62.5724 94.5117Z" fill="#2F2E41"/>
<path d="M56.177 117.874L59.0191 118.755C59.0191 118.755 70.1507 116.331 70.8602 116.551L73.0641 116.537L72.9923 111.262H63.5194L56.177 117.874Z" fill="#2F2E41"/>
<path d="M77.0193 148.065C77.0193 148.065 72.7561 146.302 72.0456 148.065C71.3351 149.828 71.5719 154.897 71.5719 154.897C72.1402 155.914 72.3077 157.083 72.0456 158.203C71.5719 159.966 73.9404 160.847 77.0193 159.966C80.0983 159.084 80.0983 156.881 80.0983 156.881L77.0193 148.065Z" fill="#2F2E41"/>
<path d="M80.5717 110.818C80.5717 110.818 83.8875 109.055 83.6506 111.699C83.4541 113.446 82.975 115.155 82.2295 116.768C82.2295 116.768 85.3084 124.262 82.2295 124.923C79.1506 125.584 76.7821 124.041 76.7821 122.939C76.7821 121.837 80.5717 110.818 80.5717 110.818Z" fill="#2F2E41"/>
<path d="M70.1508 50.4352L70.6246 58.8102L74.6508 62.1155L79.1509 56.1651V50.2148L70.1508 50.4352Z" fill="#FFB9B9"/>
<path d="M73.2296 58.8092L70.5184 56.9345L68.7298 59.4703L60.6771 63.8776L65.4136 75.3377L65.6504 86.5777C65.6504 86.5777 56.8872 94.9524 62.0978 96.0545C67.3084 97.1565 85.7822 99.5806 86.7294 97.5973C87.6767 95.614 85.5453 75.1176 85.5453 75.1176L86.2558 57.7069L79.1511 55.3164L73.2296 58.8092Z" fill="#EB6565"/>
<path d="M58.7822 72.766C58.7822 72.766 56.8874 85.2536 60.4402 85.2536C62.5501 85.2603 64.6413 84.8861 66.5981 84.1517L63.756 77.3196L64.9401 72.6914L58.7822 72.766Z" fill="#FFB9B9"/>
<path d="M64.2295 83.7131L66.8348 84.1539C66.8348 84.1539 74.4139 79.7465 74.8875 79.5257C75.3611 79.3049 67.3085 75.5586 67.3085 75.5586L61.8611 77.5421L64.2295 83.7131Z" fill="#FFB9B9"/>
<path opacity="0.1" d="M67.3085 75.5564L63.8878 76.8019L64.9403 72.6914L58.7825 72.7651C58.7825 72.7651 56.8876 85.2527 60.4405 85.2527C62.5503 85.2594 64.6416 84.8852 66.5983 84.1509L66.5804 84.1077L66.8351 84.1509C66.8351 84.1509 74.4142 79.7435 74.8878 79.5227C75.3614 79.3018 67.3085 75.5564 67.3085 75.5564Z" fill="black"/>
<path d="M75.6299 54.6138C79.365 54.6138 82.393 51.7962 82.393 48.3206C82.393 44.8449 79.365 42.0273 75.6299 42.0273C71.8947 42.0273 68.8668 44.8449 68.8668 48.3206C68.8668 51.7962 71.8947 54.6138 75.6299 54.6138Z" fill="#FFB9B9"/>
<path d="M69.6505 41.2198L68.3291 40.7276C68.3291 40.7276 71.0921 37.8971 74.936 38.1433L73.8547 37.0357C73.8547 37.0357 76.4976 36.0511 78.9 38.6355C80.1631 39.9933 81.6242 41.5909 82.5361 43.3897H83.9513L83.3606 44.5997L85.4272 45.8104L83.3054 45.5929C83.5063 46.6377 83.4376 47.7119 83.1047 48.7271L83.1616 49.6842C83.1616 49.6842 80.7022 46.1434 80.7022 45.6512V46.882C80.7022 46.882 79.3808 45.7743 79.3808 45.036L78.6601 45.8974L78.2986 44.5416L73.854 45.8952L74.5748 44.7876L71.8118 45.1568L72.8931 43.8032C72.8931 43.8032 69.7699 45.403 69.6496 46.7569C69.5293 48.1107 67.9679 49.8334 67.9679 49.8334L67.2472 48.6026C67.2472 48.6026 66.1669 43.0658 69.6505 41.2198Z" fill="#2F2E41"/>
<path d="M81.5192 68.9468C80.3238 70.321 79.6568 72.0277 79.6244 73.7954L67.0716 73.3546C67.0716 73.3546 63.7559 72.9139 63.7559 75.1178V77.3215C63.7559 77.3215 65.4139 76.6604 66.3611 77.3215C67.3084 77.9826 77.4927 83.7129 82.4665 81.509C87.4402 79.3051 88.6243 70.71 88.6243 70.71C88.6243 70.71 84.1245 67.1836 81.5192 68.9468Z" fill="#FFB9B9"/>
<path d="M84.3624 57.9274L86.2572 57.707C86.2572 57.707 90.0466 58.1478 89.573 64.9799C89.0993 71.812 88.8625 72.2528 88.8625 72.2528C88.8625 72.2528 83.8888 68.0653 80.3362 70.0491L84.3624 57.9274Z" fill="#EB6565"/>
<path d="M61.6243 63.8789H60.6771C59.4496 65.3216 58.7819 67.1078 58.7822 68.9478C58.7605 70.9186 58.4822 72.8796 57.9534 74.7881L65.414 73.5761L61.6243 63.8789Z" fill="#EB6565"/>
<path d="M176 29.9297H107.228V42.5644H176V29.9297Z" fill="#E6E6E6"/>
<path d="M108.694 41.1985H174.534V31.293H108.694V41.1985Z" fill="white"/>
<path d="M114.457 32.3906C115.26 32.3906 116.044 32.612 116.711 33.0267C117.378 33.4414 117.898 34.0308 118.205 34.7204C118.512 35.4101 118.592 36.1689 118.435 36.901C118.279 37.6331 117.893 38.3056 117.325 38.8334C116.758 39.3612 116.036 39.7207 115.249 39.8663C114.462 40.0119 113.646 39.9372 112.905 39.6515C112.164 39.3659 111.531 38.8822 111.085 38.2615C110.639 37.6409 110.402 36.9112 110.402 36.1647C110.402 35.1638 110.829 34.2038 111.59 33.496C112.35 32.7883 113.382 32.3906 114.457 32.3906V32.3906Z" fill="#EB6565"/>
<path d="M164.185 34.6875H124.156V35.508H164.185V34.6875Z" fill="#E6E6E6"/>
<path d="M164.185 36.8203H124.156V37.6408H164.185V36.8203Z" fill="#E6E6E6"/>
<path d="M176 47.9609H107.228V60.5957H176V47.9609Z" fill="#E6E6E6"/>
<path d="M108.694 59.2297H174.534V49.3242H108.694V59.2297Z" fill="white"/>
<path d="M114.457 57.9701C116.698 57.9701 118.513 56.2804 118.513 54.196C118.513 52.1116 116.698 50.4219 114.457 50.4219C112.217 50.4219 110.402 52.1116 110.402 54.196C110.402 56.2804 112.217 57.9701 114.457 57.9701Z" fill="#EB6565"/>
<path d="M164.185 52.7188H124.156V53.5392H164.185V52.7188Z" fill="#E6E6E6"/>
<path d="M164.185 54.8516H124.156V55.672H164.185V54.8516Z" fill="#E6E6E6"/>
<path d="M176 65.9883H107.228V78.623H176V65.9883Z" fill="#E6E6E6"/>
<path d="M108.694 77.2571H174.534V67.3516H108.694V77.2571Z" fill="white"/>
<path d="M114.457 75.9974C116.698 75.9974 118.513 74.3077 118.513 72.2233C118.513 70.1389 116.698 68.4492 114.457 68.4492C112.217 68.4492 110.402 70.1389 110.402 72.2233C110.402 74.3077 112.217 75.9974 114.457 75.9974Z" fill="#EB6565"/>
<path d="M164.185 70.7461H124.156V71.5666H164.185V70.7461Z" fill="#E6E6E6"/>
<path d="M164.185 72.8789H124.156V73.6994H164.185V72.8789Z" fill="#E6E6E6"/>
</g>
<defs>
<clipPath id="clip0">
<rect width="176" height="162" fill="white"/>
</clipPath>
</defs>
</svg>
