<svg width="400" height="245" viewBox="0 0 400 245" fill="none" xmlns="http://www.w3.org/2000/svg">
<g clip-path="url(#clip0)">
<path d="M392.847 222.796C390.111 231.305 382.12 237.261 373.784 242.321C372.62 243.028 371.456 243.718 370.292 244.392C370.284 244.395 370.275 244.402 370.268 244.405C370.211 244.437 370.155 244.47 370.103 244.502C369.863 244.641 369.622 244.78 369.384 244.917L369.515 244.97C369.515 244.97 369.643 245.031 369.503 244.98C369.461 244.964 369.417 244.95 369.375 244.934C364.533 243.184 359.605 241.304 355.894 238.025C352.044 234.62 349.794 229.28 351.879 224.807C352.153 224.221 352.499 223.664 352.911 223.147C353.08 222.93 353.262 222.723 353.451 222.519C354.601 221.261 356.104 220.301 357.806 219.736C359.507 219.171 361.345 219.023 363.132 219.306C364.918 219.59 366.588 220.294 367.97 221.348C369.352 222.401 370.396 223.766 370.995 225.301C371.607 220.19 366.906 215.91 362.381 212.752C357.854 209.595 352.711 206.157 351.836 201.075C351.347 198.248 352.444 195.508 354.443 193.308C354.504 193.242 354.566 193.175 354.63 193.11C357.063 190.548 360.484 188.903 364.211 188.503C371.152 187.857 377.894 191.149 382.936 195.474C391.052 202.433 395.958 213.122 392.847 222.796Z" fill="#F2F2F2"/>
<path d="M379.801 211.667C381.133 213.525 382.156 215.546 382.837 217.668C383.413 219.565 383.669 221.528 383.597 223.493C383.412 227.535 382.145 231.478 379.905 234.991C378.218 237.656 376.161 240.119 373.784 242.321C372.62 243.028 371.456 243.718 370.292 244.393C370.284 244.396 370.276 244.402 370.268 244.405C370.212 244.438 370.155 244.47 370.103 244.502C369.863 244.641 369.622 244.78 369.384 244.918C369.384 244.918 369.644 245.032 369.503 244.98C369.461 244.964 369.417 244.95 369.375 244.935C369.809 241.746 369.384 238.51 368.136 235.498C366.887 232.487 364.851 229.788 362.198 227.627C359.54 225.499 356.357 223.964 352.911 223.147C353.08 222.931 353.262 222.723 353.452 222.519C354.783 222.854 356.078 223.293 357.323 223.832C361.772 225.747 365.416 228.895 367.714 232.81C369.776 236.366 370.663 240.374 370.272 244.366C370.471 244.204 370.67 244.039 370.863 243.875C374.543 240.801 377.811 237.272 380.023 233.199C381.942 229.749 382.885 225.93 382.769 222.078C382.589 217.876 380.721 213.985 378.017 210.598C375.053 206.984 371.552 203.75 367.611 200.986C363.639 198.135 359.292 195.73 354.668 193.825C354.564 193.781 354.483 193.703 354.441 193.607C354.399 193.511 354.399 193.404 354.443 193.309C354.474 193.223 354.541 193.152 354.63 193.11C354.676 193.093 354.726 193.084 354.776 193.086C354.826 193.088 354.874 193.1 354.918 193.121C355.489 193.357 356.056 193.596 356.619 193.845C361.303 195.92 365.681 198.508 369.653 201.551C373.49 204.482 377.102 207.832 379.801 211.667Z" fill="white"/>
<path d="M333.535 5.51859e-09H4.72346C3.47104 0.001022 2.27025 0.447372 1.38467 1.24107C0.499095 2.03478 0.00110012 3.11097 0 4.23342V203.923C0.00109869 205.045 0.499094 206.121 1.38467 206.915C2.27025 207.709 3.47104 208.155 4.72346 208.156H333.535C334.218 208.156 334.892 208.023 335.512 207.767C336.133 207.51 336.683 207.136 337.126 206.67C337.164 206.634 337.198 206.595 337.229 206.554C337.511 206.245 337.739 205.9 337.906 205.53C338.144 205.021 338.265 204.474 338.264 203.923V4.23344C338.262 3.1102 337.763 2.03339 336.877 1.23959C335.99 0.445795 334.788 -5.72749e-05 333.535 5.51859e-09ZM336.915 203.923C336.915 204.513 336.721 205.091 336.357 205.583C336.033 206.016 335.594 206.37 335.078 206.612C334.601 206.833 334.072 206.948 333.535 206.947H4.72346C3.82874 206.946 2.97098 206.627 2.33832 206.06C1.70566 205.493 1.34976 204.725 1.34868 203.923V4.23344C1.34976 3.43158 1.70566 2.66283 2.33832 2.09583C2.97098 1.52882 3.82874 1.20984 4.72346 1.20887H333.535C334.43 1.20877 335.289 1.52724 335.923 2.09433C336.557 2.66143 336.914 3.43079 336.915 4.23344V203.923Z" fill="#3F3D56"/>
<path d="M337.586 16.9688H0.673096V18.179H337.586V16.9688Z" fill="#3F3D56"/>
<path d="M12.1512 12.7066C14.3885 12.7066 16.2022 11.0811 16.2022 9.07597C16.2022 7.07082 14.3885 5.44531 12.1512 5.44531C9.91382 5.44531 8.1001 7.07082 8.1001 9.07597C8.1001 11.0811 9.91382 12.7066 12.1512 12.7066Z" fill="#3F3D56"/>
<path d="M23.7979 12.7066C26.0352 12.7066 27.8489 11.0811 27.8489 9.07597C27.8489 7.07082 26.0352 5.44531 23.7979 5.44531C21.5605 5.44531 19.7468 7.07082 19.7468 9.07597C19.7468 11.0811 21.5605 12.7066 23.7979 12.7066Z" fill="#3F3D56"/>
<path d="M35.4447 12.7066C37.6821 12.7066 39.4958 11.0811 39.4958 9.07597C39.4958 7.07082 37.6821 5.44531 35.4447 5.44531C33.2074 5.44531 31.3937 7.07082 31.3937 9.07597C31.3937 11.0811 33.2074 12.7066 35.4447 12.7066Z" fill="#3F3D56"/>
<path d="M218.203 85.1354C216.041 85.1354 213.929 84.561 212.131 83.4848C210.334 82.4085 208.934 80.8789 208.106 79.0892C207.279 77.2996 207.063 75.3303 207.485 73.4304C207.906 71.5305 208.947 69.7853 210.475 68.4155C212.004 67.0458 213.951 66.113 216.071 65.7351C218.191 65.3572 220.388 65.5511 222.385 66.2924C224.382 67.0337 226.089 68.2891 227.289 69.8997C228.49 71.5104 229.131 73.404 229.131 75.3411C229.128 77.9378 227.976 80.4273 225.927 82.2635C223.878 84.0996 221.1 85.1324 218.203 85.1354ZM218.203 66.4751C216.246 66.4751 214.334 66.9951 212.707 67.9693C211.08 68.9435 209.812 70.3282 209.063 71.9482C208.314 73.5683 208.119 75.351 208.5 77.0708C208.882 78.7906 209.824 80.3704 211.208 81.6104C212.591 82.8503 214.354 83.6947 216.273 84.0368C218.192 84.3789 220.181 84.2033 221.989 83.5323C223.796 82.8612 225.341 81.7248 226.428 80.2668C227.515 78.8088 228.096 77.0947 228.096 75.3411C228.093 72.9905 227.049 70.737 225.195 69.0748C223.34 67.4127 220.826 66.4778 218.203 66.4751Z" fill="#EB6565"/>
<path d="M217.171 78.9007C216.937 78.9011 216.709 78.8332 216.522 78.7072L216.51 78.6994L214.063 77.0221C213.835 76.8648 213.685 76.6326 213.647 76.3764C213.609 76.1201 213.687 75.861 213.862 75.6559C214.038 75.4508 214.297 75.3166 214.583 75.2827C214.868 75.2489 215.158 75.3182 215.386 75.4754L216.971 76.5646L220.716 72.1861C220.803 72.0846 220.911 71.9994 221.035 71.9354C221.158 71.8714 221.295 71.8298 221.436 71.8131C221.578 71.7963 221.721 71.8047 221.859 71.8378C221.997 71.8708 222.126 71.9279 222.24 72.0057L222.24 72.0059L222.217 72.0349L222.241 72.0059C222.469 72.1633 222.619 72.3955 222.656 72.6516C222.694 72.9077 222.617 73.1667 222.442 73.3718L218.037 78.5195C217.935 78.6381 217.804 78.7341 217.654 78.8C217.504 78.8659 217.339 78.9 217.172 78.8995L217.171 78.9007Z" fill="#EB6565"/>
<path d="M249.472 85.1354C247.311 85.1354 245.198 84.561 243.401 83.4848C241.604 82.4085 240.203 80.8789 239.376 79.0892C238.549 77.2996 238.332 75.3303 238.754 73.4304C239.176 71.5305 240.216 69.7853 241.745 68.4155C243.273 67.0458 245.22 66.113 247.34 65.7351C249.46 65.3572 251.657 65.5511 253.654 66.2924C255.651 67.0337 257.358 68.2891 258.559 69.8997C259.76 71.5104 260.401 73.404 260.401 75.3411C260.397 77.9378 259.245 80.4274 257.196 82.2635C255.147 84.0996 252.37 85.1325 249.472 85.1354ZM249.472 66.4751C247.516 66.4751 245.603 66.9951 243.976 67.9693C242.349 68.9435 241.081 70.3282 240.333 71.9482C239.584 73.5683 239.388 75.351 239.77 77.0708C240.151 78.7906 241.094 80.3704 242.477 81.6104C243.861 82.8503 245.623 83.6947 247.542 84.0368C249.461 84.3789 251.45 84.2033 253.258 83.5323C255.066 82.8612 256.611 81.7248 257.698 80.2668C258.785 78.8088 259.365 77.0947 259.365 75.3411C259.362 72.9905 258.319 70.7369 256.464 69.0748C254.61 67.4127 252.095 66.4777 249.472 66.4751Z" fill="#E6E6E6"/>
<path d="M253.406 78.7282C253.275 78.8455 253.097 78.9115 252.911 78.9115C252.726 78.9115 252.548 78.8455 252.417 78.7282L249.794 76.3779C249.736 76.3256 249.657 76.2962 249.574 76.2962C249.491 76.2962 249.412 76.3256 249.354 76.3779L246.731 78.7281C246.6 78.8457 246.422 78.9117 246.237 78.9117C246.051 78.9117 245.873 78.8457 245.742 78.7281C245.611 78.6105 245.537 78.4511 245.537 78.2848C245.537 78.1185 245.611 77.959 245.742 77.8414L248.364 75.4912C248.423 75.4388 248.455 75.3678 248.455 75.2937C248.456 75.2197 248.423 75.1486 248.364 75.0962L245.742 72.7459C245.611 72.6283 245.537 72.4689 245.537 72.3026C245.537 72.1364 245.611 71.9769 245.742 71.8594C245.873 71.7418 246.051 71.6758 246.236 71.6758C246.422 71.6758 246.6 71.7418 246.731 71.8594L249.354 74.2097C249.412 74.262 249.491 74.2914 249.574 74.2914C249.656 74.2914 249.736 74.262 249.794 74.2097L252.417 71.8595C252.548 71.7419 252.726 71.6758 252.911 71.6758C253.097 71.6758 253.275 71.7419 253.406 71.8595C253.537 71.977 253.611 72.1365 253.611 72.3028C253.611 72.4691 253.537 72.6285 253.406 72.7461L250.784 75.0963C250.725 75.1488 250.692 75.2198 250.692 75.2939C250.692 75.368 250.725 75.439 250.784 75.4914L253.406 77.8417C253.537 77.9593 253.611 78.1187 253.611 78.2849C253.611 78.4511 253.537 78.6105 253.406 78.7282Z" fill="#E6E6E6"/>
<path d="M218.203 116.229C216.041 116.229 213.929 115.655 212.131 114.579C210.334 113.502 208.934 111.973 208.106 110.183C207.279 108.393 207.063 106.424 207.485 104.524C207.906 102.624 208.947 100.879 210.475 99.5093C212.004 98.1395 213.951 97.2067 216.071 96.8288C218.191 96.4509 220.388 96.6449 222.385 97.3862C224.382 98.1275 226.089 99.3828 227.289 100.993C228.49 102.604 229.131 104.498 229.131 106.435C229.128 109.032 227.976 111.521 225.927 113.357C223.878 115.193 221.1 116.226 218.203 116.229ZM218.203 97.5688C216.246 97.5688 214.334 98.0888 212.707 99.063C211.08 100.037 209.812 101.422 209.063 103.042C208.314 104.662 208.119 106.445 208.5 108.165C208.882 109.884 209.824 111.464 211.208 112.704C212.591 113.944 214.354 114.788 216.273 115.131C218.192 115.473 220.181 115.297 221.989 114.626C223.796 113.955 225.341 112.819 226.428 111.361C227.515 109.903 228.096 108.188 228.096 106.435C228.093 104.084 227.049 101.831 225.195 100.169C223.34 98.5065 220.826 97.5715 218.203 97.5688Z" fill="#EB6565"/>
<path d="M217.171 109.994C216.937 109.995 216.709 109.927 216.522 109.801L216.51 109.793L214.063 108.116C213.835 107.959 213.685 107.726 213.647 107.47C213.609 107.214 213.687 106.955 213.862 106.75C214.038 106.545 214.297 106.41 214.583 106.376C214.868 106.343 215.158 106.412 215.386 106.569L216.971 107.658L220.716 103.28C220.803 103.178 220.911 103.093 221.035 103.029C221.158 102.965 221.295 102.924 221.436 102.907C221.578 102.89 221.721 102.898 221.859 102.932C221.997 102.965 222.126 103.022 222.24 103.099L222.24 103.1L222.217 103.129L222.241 103.1C222.469 103.257 222.619 103.489 222.656 103.745C222.694 104.001 222.617 104.26 222.442 104.466L218.037 109.613C217.935 109.732 217.804 109.828 217.654 109.894C217.504 109.96 217.339 109.994 217.172 109.993L217.171 109.994Z" fill="#EB6565"/>
<path d="M249.472 116.229C247.311 116.229 245.198 115.655 243.401 114.579C241.604 113.502 240.203 111.973 239.376 110.183C238.549 108.393 238.332 106.424 238.754 104.524C239.176 102.624 240.216 100.879 241.745 99.5093C243.273 98.1395 245.22 97.2067 247.34 96.8288C249.46 96.4509 251.657 96.6449 253.654 97.3862C255.651 98.1275 257.358 99.3828 258.559 100.993C259.76 102.604 260.401 104.498 260.401 106.435C260.397 109.032 259.245 111.521 257.196 113.357C255.147 115.193 252.37 116.226 249.472 116.229ZM249.472 97.5688C247.516 97.5688 245.603 98.0888 243.976 99.063C242.349 100.037 241.081 101.422 240.333 103.042C239.584 104.662 239.388 106.445 239.77 108.165C240.151 109.884 241.094 111.464 242.477 112.704C243.861 113.944 245.623 114.788 247.542 115.131C249.461 115.473 251.45 115.297 253.258 114.626C255.066 113.955 256.611 112.819 257.698 111.361C258.785 109.903 259.365 108.188 259.365 106.435C259.362 104.084 258.319 101.831 256.464 100.169C254.61 98.5064 252.095 97.5715 249.472 97.5688Z" fill="#E6E6E6"/>
<path d="M253.406 109.822C253.275 109.939 253.097 110.005 252.911 110.005C252.726 110.005 252.548 109.939 252.417 109.822L249.794 107.472C249.736 107.419 249.657 107.39 249.574 107.39C249.491 107.39 249.412 107.419 249.354 107.472L246.731 109.822C246.6 109.939 246.422 110.005 246.237 110.005C246.051 110.005 245.873 109.939 245.742 109.822C245.611 109.704 245.537 109.545 245.537 109.379C245.537 109.212 245.611 109.053 245.742 108.935L248.364 106.585C248.423 106.533 248.455 106.462 248.455 106.387C248.455 106.313 248.423 106.242 248.364 106.19L245.742 103.84C245.611 103.722 245.537 103.563 245.537 103.396C245.537 103.23 245.611 103.071 245.742 102.953C245.873 102.836 246.051 102.77 246.236 102.77C246.422 102.77 246.6 102.836 246.731 102.953L249.353 105.303C249.412 105.356 249.491 105.385 249.574 105.385C249.657 105.385 249.736 105.356 249.794 105.303L252.417 102.953C252.548 102.836 252.726 102.77 252.911 102.77C253.097 102.77 253.275 102.836 253.406 102.953C253.537 103.071 253.611 103.23 253.611 103.397C253.611 103.563 253.537 103.722 253.406 103.84L250.784 106.19C250.725 106.243 250.692 106.314 250.692 106.388C250.692 106.462 250.725 106.533 250.784 106.585L253.406 108.935C253.537 109.053 253.611 109.212 253.611 109.379C253.611 109.545 253.537 109.704 253.406 109.822Z" fill="#E6E6E6"/>
<path d="M218.203 147.323C216.041 147.323 213.929 146.748 212.131 145.672C210.334 144.596 208.934 143.066 208.106 141.277C207.279 139.487 207.063 137.518 207.485 135.618C207.906 133.718 208.947 131.973 210.475 130.603C212.004 129.233 213.951 128.3 216.071 127.923C218.191 127.545 220.388 127.739 222.385 128.48C224.382 129.221 226.089 130.477 227.289 132.087C228.49 133.698 229.131 135.592 229.131 137.529C229.128 140.125 227.976 142.615 225.927 144.451C223.878 146.287 221.1 147.32 218.203 147.323ZM218.203 128.663C216.246 128.663 214.334 129.183 212.707 130.157C211.08 131.131 209.812 132.516 209.063 134.136C208.314 135.756 208.119 137.538 208.5 139.258C208.882 140.978 209.824 142.558 211.208 143.798C212.591 145.038 214.354 145.882 216.273 146.224C218.192 146.566 220.181 146.391 221.989 145.72C223.796 145.049 225.341 143.912 226.428 142.454C227.515 140.996 228.096 139.282 228.096 137.529C228.093 135.178 227.049 132.924 225.195 131.262C223.34 129.6 220.826 128.665 218.203 128.663Z" fill="#E6E6E6"/>
<path d="M217.171 141.088C216.937 141.089 216.709 141.021 216.522 140.895L216.51 140.887L214.063 139.21C213.835 139.052 213.685 138.82 213.647 138.564C213.609 138.308 213.687 138.048 213.862 137.843C214.038 137.638 214.297 137.504 214.583 137.47C214.868 137.436 215.158 137.506 215.386 137.663L216.971 138.752L220.716 134.374C220.803 134.272 220.911 134.187 221.035 134.123C221.158 134.059 221.295 134.017 221.436 134.001C221.578 133.984 221.721 133.992 221.859 134.025C221.997 134.058 222.126 134.115 222.24 134.193L222.24 134.193L222.217 134.222L222.241 134.193C222.469 134.351 222.619 134.583 222.656 134.839C222.694 135.095 222.617 135.354 222.442 135.559L218.037 140.707C217.935 140.826 217.804 140.922 217.654 140.988C217.504 141.053 217.339 141.087 217.172 141.087L217.171 141.088Z" fill="#E6E6E6"/>
<path d="M249.472 147.323C247.311 147.323 245.198 146.748 243.401 145.672C241.604 144.596 240.203 143.066 239.376 141.277C238.549 139.487 238.332 137.518 238.754 135.618C239.176 133.718 240.216 131.973 241.745 130.603C243.273 129.233 245.22 128.3 247.34 127.923C249.46 127.545 251.657 127.739 253.654 128.48C255.651 129.221 257.358 130.477 258.559 132.087C259.76 133.698 260.401 135.592 260.401 137.529C260.397 140.125 259.245 142.615 257.196 144.451C255.147 146.287 252.37 147.32 249.472 147.323ZM249.472 128.663C247.516 128.663 245.603 129.183 243.976 130.157C242.349 131.131 241.081 132.516 240.333 134.136C239.584 135.756 239.388 137.538 239.77 139.258C240.151 140.978 241.094 142.558 242.477 143.798C243.861 145.038 245.623 145.882 247.542 146.224C249.461 146.566 251.45 146.391 253.258 145.72C255.066 145.049 256.611 143.912 257.698 142.454C258.785 140.996 259.365 139.282 259.365 137.529C259.362 135.178 258.319 132.924 256.464 131.262C254.61 129.6 252.095 128.665 249.472 128.663Z" fill="#E6E6E6"/>
<path d="M253.406 140.92C253.275 141.037 253.097 141.103 252.911 141.103C252.726 141.103 252.548 141.037 252.417 140.92L249.794 138.569C249.736 138.517 249.657 138.488 249.574 138.488C249.491 138.488 249.412 138.517 249.354 138.569L246.731 140.92C246.6 141.037 246.422 141.103 246.237 141.103C246.051 141.103 245.873 141.037 245.742 140.92C245.611 140.802 245.537 140.642 245.537 140.476C245.537 140.31 245.611 140.15 245.742 140.033L248.364 137.683C248.423 137.63 248.455 137.559 248.455 137.485C248.455 137.411 248.423 137.34 248.364 137.288L245.742 134.937C245.611 134.82 245.537 134.66 245.537 134.494C245.537 134.328 245.611 134.168 245.742 134.051C245.873 133.933 246.051 133.867 246.236 133.867C246.422 133.867 246.6 133.933 246.731 134.051L249.353 136.401C249.412 136.453 249.491 136.483 249.574 136.483C249.656 136.483 249.736 136.453 249.794 136.401L252.417 134.051C252.548 133.934 252.726 133.868 252.911 133.868C253.096 133.868 253.274 133.934 253.405 134.052C253.536 134.169 253.61 134.328 253.61 134.494C253.61 134.661 253.537 134.82 253.406 134.938L250.784 137.288C250.725 137.34 250.692 137.411 250.692 137.485C250.692 137.559 250.725 137.63 250.784 137.683L253.406 140.033C253.537 140.151 253.61 140.31 253.61 140.476C253.61 140.642 253.537 140.802 253.406 140.92Z" fill="#E6E6E6"/>
<path d="M399.458 244.858H193.071C192.927 244.858 192.79 244.807 192.688 244.715C192.586 244.624 192.529 244.501 192.529 244.372C192.529 244.243 192.586 244.12 192.688 244.029C192.79 243.938 192.927 243.887 193.071 243.887H399.458C399.602 243.887 399.74 243.938 399.841 244.029C399.943 244.12 400 244.243 400 244.372C400 244.501 399.943 244.624 399.841 244.715C399.74 244.807 399.602 244.858 399.458 244.858Z" fill="#3F3D56"/>
<path d="M222.453 112.363C223.135 112.732 223.898 112.963 224.69 113.039C225.482 113.115 226.283 113.035 227.036 112.804C227.79 112.573 228.477 112.196 229.051 111.701C229.624 111.206 230.07 110.604 230.356 109.938L249.703 110.515L244.447 102.828L226.881 103.459C225.6 103.102 224.219 103.179 222.997 103.675C221.776 104.171 220.8 105.051 220.254 106.148C219.708 107.246 219.631 108.485 220.036 109.63C220.442 110.775 221.302 111.748 222.453 112.363V112.363Z" fill="#FFB8B8"/>
<path d="M331.537 149.918C332.062 149.382 332.45 148.748 332.672 148.063C332.895 147.378 332.947 146.657 332.824 145.952C332.702 145.246 332.409 144.574 331.966 143.981C331.522 143.388 330.939 142.89 330.258 142.521L334.28 125.551L324.915 128.842L322.531 144.452C321.915 145.52 321.758 146.752 322.089 147.917C322.419 149.081 323.215 150.097 324.325 150.77C325.435 151.444 326.783 151.73 328.112 151.573C329.441 151.415 330.66 150.827 331.537 149.918Z" fill="#FFB8B8"/>
<path d="M286.217 238.36L279.576 238.36L276.417 215.402L286.218 215.403L286.217 238.36Z" fill="#FFB8B8"/>
<path d="M287.91 244.131L266.497 244.13V243.888C266.497 242.907 266.712 241.935 267.131 241.029C267.55 240.123 268.164 239.299 268.938 238.606C269.712 237.912 270.631 237.362 271.642 236.987C272.653 236.611 273.737 236.418 274.831 236.418H274.832L287.911 236.418L287.91 244.131Z" fill="#2F2E41"/>
<path d="M318.719 238.36L312.078 238.36L308.918 215.402L318.72 215.403L318.719 238.36Z" fill="#FFB8B8"/>
<path d="M320.412 244.131L298.999 244.13V243.888C298.999 242.907 299.214 241.935 299.633 241.029C300.052 240.123 300.666 239.299 301.44 238.606C302.214 237.912 303.133 237.362 304.144 236.987C305.155 236.611 306.239 236.418 307.333 236.418H307.334L320.413 236.418L320.412 244.131Z" fill="#2F2E41"/>
<path d="M286.909 226.371L277.508 226.034C276.866 226.009 276.262 225.759 275.824 225.339C275.386 224.918 275.151 224.359 275.169 223.784L277.817 145.923L277.99 145.867C294.467 140.525 308.097 140.929 319.661 147.1L319.79 147.169L321.377 223.003C321.383 223.293 321.324 223.582 321.205 223.852C321.085 224.122 320.906 224.367 320.679 224.575C320.453 224.782 320.182 224.946 319.883 225.059C319.584 225.171 319.264 225.229 318.94 225.229H311.012C310.448 225.228 309.901 225.052 309.465 224.731C309.029 224.409 308.73 223.962 308.62 223.466L297.821 174.233C297.784 174.063 297.68 173.91 297.529 173.803C297.377 173.695 297.188 173.639 296.994 173.646C296.801 173.652 296.616 173.72 296.474 173.838C296.332 173.955 296.241 174.114 296.218 174.286L289.426 224.451C289.351 224.98 289.064 225.467 288.619 225.82C288.173 226.174 287.6 226.37 287.005 226.372C286.973 226.372 286.941 226.372 286.909 226.371Z" fill="#2F2E41"/>
<path d="M296.054 77.6409C303.402 77.6409 309.359 72.3024 309.359 65.717C309.359 59.1315 303.402 53.793 296.054 53.793C288.706 53.793 282.75 59.1315 282.75 65.717C282.75 72.3024 288.706 77.6409 296.054 77.6409Z" fill="#FFB8B8"/>
<path d="M233.506 109.544C233.358 109.12 233.358 108.665 233.505 108.24L234.884 104.282C235.034 103.854 235.328 103.477 235.725 103.203C236.121 102.929 236.603 102.771 237.103 102.75L254.558 102.059L282.877 89.0486C283.861 88.7671 284.896 88.6621 285.925 88.7396C286.953 88.817 287.954 89.0754 288.871 89.5C289.788 89.9246 290.603 90.5071 291.269 91.2141C291.934 91.921 292.438 92.7387 292.751 93.6202C293.063 94.5018 293.179 95.4299 293.091 96.3516C293.003 97.2733 292.714 98.1704 292.239 98.9916C291.764 99.8129 291.113 100.542 290.323 101.138C289.533 101.733 288.62 102.183 287.636 102.463L270.281 111.484C265.014 114.223 258.817 115.154 252.841 114.104L235.364 111.035C235.028 110.976 234.709 110.854 234.429 110.677C234.149 110.501 233.914 110.273 233.738 110.01C233.641 109.863 233.563 109.707 233.506 109.544Z" fill="#CCCCCC"/>
<path d="M330.969 138.929C330.502 139.08 329.995 139.1 329.516 138.986L325.044 137.92C324.561 137.804 324.128 137.557 323.806 137.213C323.484 136.869 323.287 136.445 323.243 135.998L321.728 120.398L306.018 95.5951C305.662 94.7268 305.501 93.8041 305.544 92.88C305.586 91.9558 305.832 91.0482 306.266 90.2092C306.7 89.3701 307.315 88.616 308.075 87.9899C308.834 87.3639 309.724 86.8782 310.694 86.5606C311.663 86.243 312.692 86.0998 313.724 86.1392C314.755 86.1785 315.767 86.3996 316.703 86.7899C317.638 87.1801 318.479 87.7319 319.177 88.4135C319.874 89.0952 320.415 89.8934 320.768 90.7625L331.565 105.918C334.843 110.517 336.145 116.027 335.229 121.422L332.552 137.203C332.501 137.506 332.378 137.796 332.193 138.055C332.008 138.313 331.765 138.533 331.479 138.702C331.319 138.795 331.148 138.872 330.969 138.929Z" fill="#CCCCCC"/>
<path d="M281.502 86.8928C283.787 84.6468 286.606 82.8892 289.75 81.7499C292.894 80.6105 296.284 80.1184 299.669 80.3098C299.891 80.3222 300.113 80.3361 300.333 80.3516H300.334C303.542 80.5789 306.659 81.4174 309.476 82.8111C312.294 84.2048 314.747 86.1216 316.671 88.4332C318.628 90.7771 320.004 93.4683 320.707 96.327C321.41 99.1857 321.423 102.146 320.747 105.01C318.168 115.955 318.821 127.313 322.642 137.962L326.211 147.895C326.325 148.213 326.357 148.551 326.302 148.882C326.248 149.212 326.11 149.528 325.899 149.803C325.687 150.079 325.408 150.307 325.082 150.47C324.757 150.634 324.394 150.728 324.021 150.746L305.774 151.625L301.105 144.396V151.85L278.927 152.919C278.883 152.921 278.839 152.922 278.795 152.922C278.459 152.922 278.126 152.859 277.818 152.738C277.509 152.617 277.232 152.44 277.004 152.218C276.776 151.997 276.602 151.735 276.492 151.45C276.382 151.165 276.339 150.862 276.366 150.562L278.873 122.704L275.729 103.783C275.22 100.76 275.474 97.6732 276.473 94.75C277.473 91.8268 279.191 89.1417 281.502 86.8928Z" fill="#CCCCCC"/>
<path d="M305.301 77.1011C304.069 77.7363 299.2 78.1575 298.853 76.9223L298.846 76.8951C298.604 75.9901 298.805 75.0451 298.874 74.1167C298.944 73.1882 298.842 72.1683 298.137 71.4857C296.821 70.2131 294.481 70.8877 292.58 70.5659C291.466 70.3431 290.48 69.7641 289.808 68.9372C289.136 68.1104 288.823 67.0924 288.928 66.0738C288.956 65.8808 288.998 65.6876 289.046 65.4946C289.165 65.0054 289.155 64.4981 289.019 64.0126C288.882 63.5271 288.622 63.0766 288.258 62.6965C287.895 62.3164 287.438 62.0169 286.923 61.8217C286.409 61.6264 285.851 61.5407 285.293 61.5712C283.371 61.6697 281.297 62.1916 279.707 60.9158C278.477 59.9291 278.177 57.3609 278.717 55.9632C279.625 53.6143 285.442 52.3846 287.981 51.7086C291.122 50.8952 294.426 50.7194 297.652 51.1938C300.878 51.6683 303.946 52.7811 306.632 54.4513C308.236 55.4646 309.734 56.7379 310.418 58.3865C311.102 60.0352 310.772 62.1152 309.23 63.2035C310.425 64.3375 311.267 65.733 311.67 67.2502C312.074 68.7674 312.026 70.3531 311.53 71.8483C310.769 74.0472 307.135 76.1555 305.301 77.1011Z" fill="#2F2E41"/>
<path d="M121.677 77.7148H36.4892C35.3913 77.7136 34.3388 77.3219 33.5629 76.6258C32.787 75.9296 32.3512 74.9859 32.3512 74.0019C32.3512 73.0179 32.787 72.0742 33.5629 71.378C34.3388 70.6819 35.3913 70.2902 36.4892 70.2891H121.677C122.775 70.2902 123.828 70.6819 124.604 71.378C125.379 72.0742 125.815 73.0179 125.815 74.0019C125.815 74.9859 125.379 75.9296 124.604 76.6258C123.828 77.3219 122.775 77.7136 121.677 77.7148Z" fill="#EB6565"/>
<path d="M174.272 80.8811H28.0129C27.8692 80.8811 27.7314 80.83 27.6299 80.7389C27.5283 80.6479 27.4712 80.5244 27.4712 80.3956C27.4712 80.2669 27.5283 80.1434 27.6299 80.0524C27.7314 79.9613 27.8692 79.9102 28.0129 79.9102H174.272C174.415 79.9102 174.553 79.9613 174.655 80.0524C174.756 80.1434 174.813 80.2669 174.813 80.3956C174.813 80.5244 174.756 80.6479 174.655 80.7389C174.553 80.83 174.415 80.8811 174.272 80.8811Z" fill="#3F3D56"/>
<path d="M121.677 108.809H36.4892C35.3905 108.809 34.3367 108.417 33.5598 107.721C32.7829 107.025 32.3464 106.08 32.3464 105.096C32.3464 104.111 32.7829 103.167 33.5598 102.47C34.3367 101.774 35.3905 101.383 36.4892 101.383H121.677C122.775 101.384 123.828 101.776 124.604 102.472C125.379 103.168 125.815 104.112 125.815 105.096C125.815 106.08 125.379 107.023 124.604 107.72C123.828 108.416 122.775 108.807 121.677 108.809Z" fill="#EB6565"/>
<path d="M174.272 111.975H28.0129C27.8692 111.975 27.7314 111.924 27.6299 111.833C27.5283 111.742 27.4712 111.618 27.4712 111.489C27.4712 111.361 27.5283 111.237 27.6299 111.146C27.7314 111.055 27.8692 111.004 28.0129 111.004H174.272C174.415 111.004 174.553 111.055 174.655 111.146C174.756 111.237 174.813 111.361 174.813 111.489C174.813 111.618 174.756 111.742 174.655 111.833C174.553 111.924 174.415 111.975 174.272 111.975Z" fill="#3F3D56"/>
<path d="M121.677 139.902H36.4892C35.3905 139.902 34.3367 139.511 33.5598 138.815C32.7829 138.118 32.3464 137.174 32.3464 136.189C32.3464 135.205 32.7829 134.26 33.5598 133.564C34.3367 132.868 35.3905 132.477 36.4892 132.477H121.677C122.775 132.478 123.828 132.869 124.604 133.566C125.379 134.262 125.815 135.205 125.815 136.189C125.815 137.173 125.379 138.117 124.604 138.813C123.828 139.509 122.775 139.901 121.677 139.902Z" fill="#F2F2F2"/>
<path d="M174.272 143.069H28.0129C27.8692 143.069 27.7314 143.017 27.6299 142.926C27.5283 142.835 27.4712 142.712 27.4712 142.583C27.4712 142.454 27.5283 142.331 27.6299 142.24C27.7314 142.149 27.8692 142.098 28.0129 142.098H174.272C174.415 142.098 174.553 142.149 174.655 142.24C174.756 142.331 174.813 142.454 174.813 142.583C174.813 142.712 174.756 142.835 174.655 142.926C174.553 143.017 174.415 143.069 174.272 143.069Z" fill="#3F3D56"/>
</g>
<defs>
<clipPath id="clip0">
<rect width="400" height="245" fill="white"/>
</clipPath>
</defs>
</svg>
